<?xml version="1.0" encoding="UTF-8"?>
<svg version="1.1" xmlns="http://www.w3.org/2000/svg" width="512" height="512">
<path d="M0 0 C1.14816193 -0.00101212 1.14816193 -0.00101212 2.31951904 -0.00204468 C13.36982033 0.01346523 23.89974562 0.33338153 34.625 3.25 C35.2957959 3.43224121 35.9665918 3.61448242 36.65771484 3.80224609 C73.57963422 14.05881084 105.90488579 37.16086095 125.4387207 70.44042969 C131.62241646 81.4294871 136.32596611 92.6616113 139.875 104.75 C140.24467896 105.99463013 140.24467896 105.99463013 140.62182617 107.2644043 C145.0098709 122.90088998 144.90249436 138.32677037 144.85205078 154.43115234 C144.85148588 156.96520483 144.85180477 159.49925764 144.85293579 162.03330994 C144.85338921 167.46408918 144.84776712 172.89480647 144.83646011 178.32557297 C144.82012338 186.17728777 144.8149888 194.02897941 144.81248413 201.88070937 C144.80811977 214.62328564 144.79484504 227.36583614 144.77587891 240.10839844 C144.75748738 252.47786328 144.74334694 264.8473211 144.73486328 277.21679688 C144.73433783 277.98077661 144.73381239 278.74475634 144.73327102 279.53188698 C144.73066072 283.36500437 144.72813336 287.1981218 144.72564721 291.03123927 C144.70495396 322.77084508 144.66961304 354.51041851 144.625 386.25 C145.22837189 386.37588501 145.83174377 386.50177002 146.45339966 386.63146973 C147.2526889 386.80271362 148.05197815 386.97395752 148.87548828 387.15039062 C149.66448517 387.31752563 150.45348206 387.48466064 151.26638794 387.65686035 C164.84401683 391.07133879 176.82698515 400.23110459 184.5625 411.6875 C187.67921006 416.94928389 189.86259815 422.40375301 191.625 428.25 C191.80133469 428.80776123 191.97766937 429.36552246 192.15934753 429.94018555 C192.80842992 433.15988261 192.78925562 436.34639211 192.80200195 439.6171875 C192.80857315 440.3526178 192.81514435 441.0880481 192.82191467 441.84576416 C192.84157889 444.27217722 192.85329156 446.69852875 192.86328125 449.125 C192.86735678 449.95481384 192.8714323 450.78462769 192.87563133 451.6395874 C192.89645738 456.0273005 192.91077705 460.4149826 192.92016602 464.80273438 C192.93125548 469.33578122 192.965694 473.86834057 193.00533772 478.4012146 C193.03145463 481.88762334 193.03985317 485.37391464 193.04344749 488.8604126 C193.04832205 490.53179233 193.05996076 492.20316651 193.07848549 493.87445068 C193.10278521 496.21096871 193.10193003 498.54620731 193.0949707 500.8828125 C193.11418579 501.91779877 193.11418579 501.91779877 193.13378906 502.97369385 C193.09720242 506.34157541 192.82615778 507.99308295 190.7228241 510.67944336 C187.21160983 513.30814845 184.92214302 512.72746034 180.625 512.25 C177.95068511 510.43836733 177.66579641 509.37238923 176.625 506.25 C166.065 505.92 155.505 505.59 144.625 505.25 C144.295 506.9 143.965 508.55 143.625 510.25 C140.4104393 512.39304046 138.39571584 512.72210474 134.56640625 512.64453125 C132.625 512.25 132.625 512.25 130.125 509.875 C128.625 507.25 128.625 507.25 128.625 505.25 C123.345 505.25 118.065 505.25 112.625 505.25 C112.295 506.9 111.965 508.55 111.625 510.25 C108.4104393 512.39304046 106.39571584 512.72210474 102.56640625 512.64453125 C100.625 512.25 100.625 512.25 98.125 509.875 C96.625 507.25 96.625 507.25 96.625 505.25 C62.02480036 505.26309352 27.42473977 505.30235132 -7.17538153 505.37685562 C-11.25730149 505.38562271 -15.33922188 505.39417245 -19.42114258 505.40258789 C-20.23380286 505.40426695 -21.04646315 505.40594602 -21.88374951 505.40767596 C-35.05404362 505.43436883 -48.22429421 505.44344267 -61.39461259 505.44604143 C-74.90172633 505.44909746 -88.40871393 505.47100348 -101.91577071 505.51052457 C-110.25499138 505.53432715 -118.59396051 505.54330607 -126.93321051 505.53351311 C-132.64646352 505.52821031 -138.35949045 505.54116465 -144.07267908 505.5686629 C-147.37240357 505.58399985 -150.67151681 505.58840773 -153.97127151 505.57659721 C-157.54405457 505.56507087 -161.1153945 505.58394925 -164.68806458 505.61076355 C-165.73766399 505.60009029 -166.7872634 505.58941703 -167.86866885 505.57842034 C-170.47128012 505.61510323 -172.83747604 505.67157669 -175.375 506.25 C-177.58819076 508.55665241 -177.58819076 508.55665241 -178.375 511.25 C-180.2253199 513.1003199 -182.79972082 512.54140132 -185.26953125 512.67578125 C-188.38638632 512.04547104 -189.42524987 510.73741523 -191.375 508.25 C-191.88293457 504.97120667 -191.88293457 504.97120667 -191.89257812 501.02563477 C-191.8995874 500.3046611 -191.90659668 499.58368744 -191.91381836 498.84086609 C-191.93141775 496.45732028 -191.91975863 494.07496423 -191.90625 491.69140625 C-191.90894703 490.0243253 -191.9128312 488.35724588 -191.91784668 486.69017029 C-191.92374654 483.19051179 -191.9151732 479.69126141 -191.89648438 476.19165039 C-191.87385324 471.74008621 -191.88671282 467.28949522 -191.91077423 462.83796787 C-191.92535591 459.38973412 -191.92056751 455.94172377 -191.91026306 452.49348259 C-191.90762142 450.8546938 -191.91077374 449.21588375 -191.92018127 447.57711983 C-192.00167026 429.36988656 -187.5449912 415.07487417 -174.83984375 401.56640625 C-163.21531574 390.64192906 -146.61418392 386.21574353 -131.85546875 381.0703125 C-130.53641346 380.60826339 -129.21742999 380.14600923 -127.89851379 379.68356323 C-125.1725913 378.72862206 -122.44586806 377.77601651 -119.71850586 376.82519531 C-116.22113986 375.60573054 -112.72587968 374.38034861 -109.23116589 373.15330696 C-106.52544244 372.20397605 -103.81868597 371.25762039 -101.11159706 370.31219101 C-99.82065545 369.86095351 -98.53003222 369.40880408 -97.23973656 368.95572281 C-95.45149011 368.32830091 -93.66169542 367.70529692 -91.87182617 367.08251953 C-90.34751228 366.55007126 -90.34751228 366.55007126 -88.79240417 366.00686646 C-86.375 365.25 -86.375 365.25 -84.375 365.25 C-85.17550781 364.28513672 -85.17550781 364.28513672 -85.9921875 363.30078125 C-88.02815379 360.83155569 -90.05262414 358.35356051 -92.06640625 355.86621094 C-93.31212212 354.32765887 -94.5621972 352.79263933 -95.8125 351.2578125 C-106.53481424 337.75182053 -115.16553124 322.8950627 -122.375 307.25 C-122.7059668 306.53827637 -123.03693359 305.82655273 -123.37792969 305.09326172 C-138.25335623 272.7018425 -143.70349924 238.25463076 -143.67578125 202.87109375 C-143.67968225 200.76278094 -143.68401972 198.65446891 -143.68876648 196.54615784 C-143.69616712 192.15843134 -143.69598159 187.77078541 -143.69067383 183.38305664 C-143.68487202 177.80701006 -143.70185789 172.23129487 -143.7250185 166.655303 C-143.73986254 162.31140775 -143.7406134 157.96759052 -143.73750877 153.62367439 C-143.73801613 151.56952315 -143.74314132 149.51536685 -143.75332069 147.46124077 C-143.82241552 131.58084921 -142.43434085 116.63161474 -137.75 101.375 C-137.49911621 100.55257812 -137.24823242 99.73015625 -136.98974609 98.8828125 C-125.3411711 62.38626232 -98.41139513 32.27134557 -64.61987305 14.73217773 C-44.22387604 4.51482433 -22.7327132 0.01789882 0 0 Z " fill="#020101" transform="translate(255.375,-0.24999999999999997)"/>
<path d="M0 0 C3.89875952 1.41002568 7.40864542 3.27892927 11.02587891 5.2746582 C41.87887559 22.18897513 76.00092015 30.79075576 111 33 C111.03867187 34.35931641 111.03867187 34.35931641 111.078125 35.74609375 C111.43304414 43.36878896 112.1951061 49.35522153 116 56 C116.515625 57.03125 117.03125 58.0625 117.5625 59.125 C121.79577212 64.11809019 127.78289324 67.92763108 134 70 C137.48440725 70.23373664 140.96775308 70.38132328 144.45703125 70.5234375 C149.74973546 71.23535582 153.00154521 73.06666182 156.875 76.6875 C158.96822781 79.95047277 159.80263245 82.06659767 159.5625 85.96875 C158.51154188 89.76387654 155.97304894 92.50437498 153 95 C149.30904412 96.23031863 145.81984176 96.86708064 142 96 C140.66666667 94 139.33333333 92 138 90 C135.01966885 89.22798651 133.13883658 89.54436243 130 90 C127.9055326 93.1417011 127.65021401 94.43616759 127.2890625 98.0859375 C127.18118408 99.09269531 127.07330566 100.09945312 126.9621582 101.13671875 C126.850896 102.20535156 126.73963379 103.27398437 126.625 104.375 C123.4668666 131.44585632 111.27179106 154.1523753 90.5078125 172.05859375 C69.15575955 188.58814253 43.56169359 195.15132269 16.875 192.375 C-8.77073199 188.61747984 -32.13349444 174.77205162 -47.8269043 154.14331055 C-53.38083851 146.57755062 -57.48799485 138.686109 -61 130 C-61.39960938 129.02417969 -61.79921875 128.04835937 -62.2109375 127.04296875 C-65.28533603 118.4092255 -66.06432171 109.4834765 -66.96191406 100.40478516 C-67.06987305 99.34952637 -67.17783203 98.29426758 -67.2890625 97.20703125 C-67.37881348 96.2528833 -67.46856445 95.29873535 -67.56103516 94.31567383 C-67.8100323 91.81460833 -67.8100323 91.81460833 -70 90 C-75.27255894 89.40900252 -75.27255894 89.40900252 -79.9375 91.3125 C-81.17571726 93.13070391 -81.17571726 93.13070391 -82 96 C-89.59568204 96.7595682 -89.59568204 96.7595682 -92.86328125 94.9921875 C-96.70532825 91.80795997 -98.83512903 89.23653229 -99.5 84.25 C-99.39511892 79.87726562 -97.65755976 77.61951085 -94.80078125 74.4453125 C-90.7434182 71.1888606 -86.82655444 70.78440871 -81.75 70.625 C-75.70301606 70.22914778 -71.22513689 69.03262847 -66 66 C-65.36320312 65.6390625 -64.72640625 65.278125 -64.0703125 64.90625 C-57.47087118 60.71433019 -54.0142613 54.43794322 -52 47 C-51.63956282 43.8791415 -51.4951249 40.76326298 -51.375 37.625 C-51.33632812 36.79355469 -51.29765625 35.96210938 -51.2578125 35.10546875 C-51.16425754 33.07064844 -51.08107287 31.03535584 -51 29 C-49.67162109 28.50693359 -49.67162109 28.50693359 -48.31640625 28.00390625 C-30.43841496 21.20767819 -14.85671019 12.02293028 0 0 Z " fill="#FDCF8C" transform="translate(226,112)"/>
<path d="M0 0 C1.296875 1.328125 1.296875 1.328125 2.75 3.25 C21.33391389 25.2092803 50.87584498 37.28990443 79 40 C101.36232658 41.22741734 121.439637 36.37100493 142 28 C143.66650961 27.33294083 145.33312364 26.66614219 147 26 C147.27038086 26.50112305 147.54076172 27.00224609 147.81933594 27.51855469 C152.56198351 36.28430314 157.3352676 45.00495846 162.55957031 53.49487305 C176.33554132 75.88418265 185 95.27364009 185 122 C94.91 122 4.82 122 -88 122 C-88 43.74257426 -88 43.74257426 -77 31 C-68.45075753 22.70933575 -57.61467231 19.12870573 -46.625 15.1875 C-45.75641357 14.87296875 -44.88782715 14.5584375 -43.99291992 14.234375 C-43.16252197 13.94433594 -42.33212402 13.65429688 -41.4765625 13.35546875 C-40.73486816 13.09403076 -39.99317383 12.83259277 -39.22900391 12.56323242 C-36.67982299 11.91909657 -34.61852162 11.73532645 -32 12 C-30.0364253 13.92436353 -28.46650954 15.71192607 -26.8125 17.875 C-25.83651027 19.08200291 -24.85729536 20.28640447 -23.875 21.48828125 C-23.14603516 22.38667725 -23.14603516 22.38667725 -22.40234375 23.30322266 C0.76220944 51.33136413 39.0154088 68.11829286 74.56469727 71.80151367 C94.74938867 73.4466419 119.29300231 72.75434234 138 64 C140.3151437 60.52728445 140.25453763 59.07260203 140 55 C139.67 54.01 139.34 53.02 139 52 C132.76706933 51.46061177 127.20921639 52.27303683 121.1875 53.875 C86.86002912 62.89721895 51.01108874 57.37124575 20.12841797 39.94384766 C5.79026791 31.3310436 -7.22657743 19.72949091 -18 7 C-16.42560529 3.85121058 -13.28472275 3.45977508 -10.125 2.375 C-9.48691406 2.14554687 -8.84882813 1.91609375 -8.19140625 1.6796875 C-5.32723295 0.67513402 -3.05749257 0 0 0 Z " fill="#FAF3DA" transform="translate(167,383)"/>
<path d="M0 0 C12.83114679 11.39215638 21.92759519 24.67184255 30.08447266 39.63793945 C30.65681641 40.6846582 31.22916016 41.73137695 31.81884766 42.80981445 C33.08447266 45.63793945 33.08447266 45.63793945 33.08447266 49.63793945 C12.89757216 52.87533827 -10.23953715 52.18725285 -29.91552734 46.63793945 C-30.68558105 46.42363281 -31.45563477 46.20932617 -32.24902344 45.98852539 C-50.20786591 40.82737719 -67.58542772 32.78453148 -82.20458984 21.0324707 C-82.73528076 20.6108667 -83.26597168 20.1892627 -83.81274414 19.75488281 C-85.25897888 18.58877152 -86.6800623 17.39166098 -88.09912109 16.19262695 C-91.82967851 14.13331787 -93.87437324 14.49158108 -97.91552734 15.63793945 C-100.19311667 18.48848536 -100.19311667 18.48848536 -100.04052734 21.88793945 C-98.4071251 27.33261359 -95.42010992 29.35403905 -90.91552734 32.63793945 C-89.90619141 33.38946289 -88.89685547 34.14098633 -87.85693359 34.9152832 C-59.65490849 55.15052002 -25.83861288 65.13235964 8.64086914 64.84375 C10.91319916 64.82530776 13.18512175 64.82324274 15.45751953 64.82348633 C23.37494937 64.80383211 31.21238144 64.56475794 39.08447266 63.63793945 C41.10030107 69.43344615 41.26381738 74.53668859 41.08447266 80.63793945 C29.29715246 82.80008853 17.72084562 83.0357499 5.77197266 83.01293945 C4.80080505 83.0130603 3.82963745 83.01318115 2.82904053 83.01330566 C-12.4077668 82.98632065 -27.0359638 82.20319105 -41.91552734 78.63793945 C-42.95845947 78.38971436 -42.95845947 78.38971436 -44.02246094 78.13647461 C-48.04737698 77.14065049 -51.97426862 75.91992083 -55.91552734 74.63793945 C-57.15689453 74.28086914 -58.39826172 73.92379883 -59.67724609 73.5559082 C-70.19289893 70.51450182 -80.05957198 66.38324025 -89.91552734 61.63793945 C-90.63385742 61.2924707 -91.3521875 60.94700195 -92.09228516 60.59106445 C-103.49980213 55.01983065 -113.7766877 48.25622205 -123.91552734 40.63793945 C-124.86556641 39.93411133 -125.81560547 39.2302832 -126.79443359 38.50512695 C-141.47158561 27.07711546 -154.60485148 13.10395325 -164.91552734 -2.36206055 C-164.75263558 -5.12036106 -164.18399697 -6.11148889 -162.15771484 -8.00268555 C-142.50776035 -21.36206055 -142.50776035 -21.36206055 -136.91552734 -21.36206055 C-136.44244141 -20.4906543 -135.96935547 -19.61924805 -135.48193359 -18.72143555 C-132.04206204 -12.48033696 -128.44282864 -6.38912219 -124.35302734 -0.54956055 C-123.67111328 0.42625977 -122.98919922 1.40208008 -122.28662109 2.4074707 C-119.21340372 5.29842148 -117.07123983 5.49845373 -112.91552734 5.63793945 C-110.35701709 4.82341629 -110.35701709 4.82341629 -108.91552734 2.63793945 C-108.4545377 -1.53602112 -108.54774357 -3.74107488 -110.70849609 -7.3894043 C-111.49869141 -8.34975586 -112.28888672 -9.31010742 -113.10302734 -10.29956055 C-122.91552734 -22.65030976 -122.91552734 -22.65030976 -122.91552734 -27.36206055 C-120.27123083 -28.01478586 -117.62535228 -28.65932883 -114.97802734 -29.29956055 C-114.24261719 -29.48196289 -113.50720703 -29.66436523 -112.74951172 -29.85229492 C-72.79331508 -39.44876136 -30.56579333 -26.45228937 0 0 Z " fill="#835151" transform="translate(341.91552734375,47.362060546875)"/>
<path d="M0 0 C0 93.72 0 187.44 0 284 C-5.61 284 -11.22 284 -17 284 C-17.09796875 282.00324219 -17.1959375 280.00648438 -17.296875 277.94921875 C-18.71031938 251.32551469 -22.336078 225.85648068 -29 200 C-37.06328576 168.47316154 -37.06328576 168.47316154 -39 155 C-39.15795044 154.008862 -39.31590088 153.017724 -39.4786377 151.99655151 C-41.04901452 141.46395526 -41.41130109 131.0721212 -41.51171875 120.43359375 C-41.52111795 119.52705614 -41.53051716 118.62051853 -41.54020119 117.68651009 C-41.58735476 112.89820639 -41.62120442 108.11000545 -41.64526367 103.3215332 C-41.66752363 99.3962784 -41.71642626 95.47274107 -41.78881836 91.5480957 C-41.87714763 86.75836973 -41.9202043 81.97018174 -41.93177223 77.17967415 C-41.94324359 75.37408278 -41.9697855 73.56851304 -42.01270103 71.76339531 C-42.30474392 58.71991253 -39.94306006 51.2973518 -32 41 C-25.60606387 30.19510831 -21.0640972 17.32860799 -19.32421875 4.90625 C-19 3 -19 3 -18 2 C-15.85795689 1.79016721 -13.71075887 1.63176615 -11.5625 1.5 C-7.52296358 1.25168602 -3.89436931 0 0 0 Z " fill="#A26859" transform="translate(385,221)"/>
<path d="M0 0 C11.10245464 2.69477054 11.10245464 2.69477054 15.28515625 4.1171875 C34.68308501 10.42500318 59.02176942 7.8193374 77.84765625 0.76953125 C80 0 80 0 82 0 C82.00586624 0.57834595 82.01173248 1.15669189 82.01777649 1.75256348 C82.08245784 7.85405858 82.16705357 13.95506198 82.26245117 20.05615234 C82.29539978 22.32333837 82.32352177 24.59060051 82.34643555 26.85791016 C82.51735323 43.33146604 83.11655207 58.84536529 89.1875 74.375 C92 81.82180851 92 81.82180851 92 84 C63.46619224 97.03984026 35.38200087 101.61432023 5 91 C-9.14101218 85.5601335 -22.01162827 77.46511593 -33 67 C-33 66.34 -33 65.68 -33 65 C-31.92621094 64.56429687 -30.85242188 64.12859375 -29.74609375 63.6796875 C-15.94865544 57.95962771 -8.46395004 52.51670419 -2.44702148 38.34130859 C-0.87805284 34.09538486 -0.52918344 30.27746088 -0.48828125 25.78125 C-0.47033005 25.03790405 -0.45237885 24.29455811 -0.43388367 23.52868652 C-0.38028535 21.18584646 -0.3460502 18.84320395 -0.3125 16.5 C-0.27928208 14.89841028 -0.24478837 13.29684649 -0.20898438 11.6953125 C-0.12458934 7.79701889 -0.05754068 3.89877869 0 0 Z " fill="#F9BC7F" transform="translate(215,312)"/>
<path d="M0 0 C2.94978343 1.5435397 5.88042937 3.11560049 8.79541016 4.72387695 C39.64840684 21.63819388 73.7704514 30.23997451 108.76953125 32.44921875 C108.7953125 33.35542969 108.82109375 34.26164062 108.84765625 35.1953125 C109.20257539 42.81800771 109.96463735 48.80444028 113.76953125 55.44921875 C114.28515625 56.48046875 114.80078125 57.51171875 115.33203125 58.57421875 C119.56530337 63.56730894 125.55242449 67.37684983 131.76953125 69.44921875 C135.2539385 69.68295539 138.73728433 69.83054203 142.2265625 69.97265625 C147.51926671 70.68457457 150.77107646 72.51588057 154.64453125 76.13671875 C156.73775906 79.39969152 157.5721637 81.51581642 157.33203125 85.41796875 C156.28107313 89.21309529 153.74258019 91.95359373 150.76953125 94.44921875 C147.07857537 95.67953738 143.58937301 96.31629939 139.76953125 95.44921875 C138.43619792 93.44921875 137.10286458 91.44921875 135.76953125 89.44921875 C132.7892001 88.67720526 130.90836783 88.99358118 127.76953125 89.44921875 C125.67506385 92.59091985 125.41974526 93.88538634 125.05859375 97.53515625 C124.95071533 98.54191406 124.84283691 99.54867187 124.73168945 100.5859375 C124.62042725 101.65457031 124.50916504 102.72320312 124.39453125 103.82421875 C121.23639785 130.89507507 109.04132231 153.60159405 88.27734375 171.5078125 C67.48705261 187.60247714 41.70010944 195.04747921 15.59375 191.72949219 C12.64789442 191.33144108 9.70792278 190.89880871 6.76953125 190.44921875 C6.76953125 190.11921875 6.76953125 189.78921875 6.76953125 189.44921875 C7.66671875 189.37445313 8.56390625 189.2996875 9.48828125 189.22265625 C29.5509122 187.10861869 47.39327289 178.71531421 61.76953125 164.44921875 C62.65640625 163.60359375 63.54328125 162.75796875 64.45703125 161.88671875 C65.60171875 160.68015625 65.60171875 160.68015625 66.76953125 159.44921875 C67.28773438 158.92585937 67.8059375 158.4025 68.33984375 157.86328125 C88.36696183 136.57885531 91.43704398 108.76574094 91.08203125 80.94921875 C91.07051187 78.59115375 91.06073506 76.23307957 91.05273438 73.875 C91.03933728 71.63931291 91.02442188 69.40363428 91.0078125 67.16796875 C91.00042557 66.11919556 90.99303864 65.07042236 90.98542786 63.98986816 C90.966175 62.54565491 90.966175 62.54565491 90.9465332 61.07226562 C90.936689 60.22498901 90.92684479 59.3777124 90.91670227 58.50476074 C90.89651993 56.38469879 90.89651993 56.38469879 89.76953125 54.44921875 C88.90972656 54.47242188 88.04992187 54.495625 87.1640625 54.51953125 C65.87722951 54.84452107 65.87722951 54.84452107 60.41796875 50.63671875 C57.79753584 47.15936701 58.48650064 44.69467791 58.76953125 40.44921875 C57.84269531 40.35511719 56.91585937 40.26101562 55.9609375 40.1640625 C31.08208408 36.56719494 6.65880919 22.69624525 -14.23046875 9.44921875 C-11.68460495 6.85232427 -9.11732158 4.36725768 -6.29296875 2.07421875 C-5.64457031 1.53023438 -4.99617187 0.98625 -4.328125 0.42578125 C-2.23046875 -0.55078125 -2.23046875 -0.55078125 0 0 Z " fill="#F8BB7E" transform="translate(228.23046875,112.55078125)"/>
<path d="M0 0 C0.47308594 0.87140625 0.94617188 1.7428125 1.43359375 2.640625 C4.87346531 8.88172359 8.47269871 14.97293836 12.5625 20.8125 C13.24441406 21.78832031 13.92632812 22.76414062 14.62890625 23.76953125 C17.72561042 26.68257587 19.81062794 26.79168868 24 27 C24.86882812 26.93941406 25.73765625 26.87882812 26.6328125 26.81640625 C31.01673412 27.15641337 33.34915414 30.38924104 36.2578125 33.421875 C38.22918125 36.33914714 38.38340772 37.3016478 37.75 40.6875 C37.51796875 41.37199219 37.2859375 42.05648437 37.046875 42.76171875 C36.98232303 45.84407528 38.4212431 47.29043884 40.43945312 49.49829102 C43.05520544 52.01542063 45.87121398 54.09442229 48.875 56.125 C49.55916992 56.58874023 50.24333984 57.05248047 50.94824219 57.53027344 C79.74529358 76.52947394 111.07179695 86.49446303 145.55639648 86.20581055 C147.8287265 86.18736831 150.10064909 86.18530329 152.37304688 86.18554688 C160.29047671 86.16589265 168.12790878 85.92681849 176 85 C178.01582841 90.79550669 178.17934472 95.89874913 178 102 C166.2126798 104.16214908 154.63637296 104.39781045 142.6875 104.375 C141.7163324 104.37512085 140.74516479 104.3752417 139.74456787 104.37536621 C124.50776054 104.34838119 109.87956354 103.56525159 95 100 C93.95706787 99.7517749 93.95706787 99.7517749 92.89306641 99.49853516 C88.86815036 98.50271104 84.94125872 97.28198137 81 96 C79.75863281 95.64292969 78.51726562 95.28585938 77.23828125 94.91796875 C66.72262841 91.87656236 56.85595537 87.7453008 47 83 C46.28166992 82.65453125 45.56333984 82.3090625 44.82324219 81.953125 C33.41572521 76.3818912 23.13883965 69.61828259 13 62 C12.04996094 61.29617187 11.09992188 60.59234375 10.12109375 59.8671875 C-4.55605826 48.43917601 -17.68932414 34.46601379 -28 19 C-27.83710824 16.24169948 -27.26846963 15.25057166 -25.2421875 13.359375 C-5.59223301 0 -5.59223301 0 0 0 Z " fill="#A26858" transform="translate(205,26)"/>
<path d="M0 0 C0.52078125 0.15339844 1.0415625 0.30679688 1.578125 0.46484375 C4.63278515 1.13982511 7.63015971 1.34411118 10.75 1.5625 C11.92046875 1.64628906 13.0909375 1.73007813 14.296875 1.81640625 C15.18890625 1.87699219 16.0809375 1.93757812 17 2 C18.83623337 8.35619243 18.83623337 8.35619243 19.625 11.45703125 C26.04778005 36.38179701 39.63613712 60.75050147 61 76 C62.37164307 76.58140747 62.37164307 76.58140747 63.77099609 77.17456055 C67.24366582 78.79433654 69.44320067 80.12177909 72 83 C73.685035 88.37757128 73.24244732 94.18856407 72.99462891 99.7512207 C72.87544405 102.42752873 72.83080934 105.09673771 72.80078125 107.77539062 C72.76474493 109.49488783 72.7245178 111.21430335 72.6796875 112.93359375 C72.65115189 114.11833534 72.65115189 114.11833534 72.62203979 115.32701111 C72.30975718 122.0334206 71.0238653 127.72932186 66.4375 132.875 C65.633125 133.57625 64.82875 134.2775 64 135 C63.34 135.66 62.68 136.32 62 137 C56.50740635 136.60601649 52.97727807 131.59802884 49.52734375 127.77294922 C21.30576405 95.01318071 -2.17776507 44.28122307 0 0 Z " fill="#A26959" transform="translate(128,221)"/>
<path d="M0 0 C3.77048629 3.61507198 6.96813039 7.40902845 10.125 11.5625 C21.46053005 26.20592093 34.42377614 37.67885984 49 49 C47.48823061 53.39420968 44.10310419 55.33841794 40.375 57.75 C39.70404297 58.18683105 39.03308594 58.62366211 38.34179688 59.07373047 C15.96338871 73.35948173 -9.46776734 81.9223603 -36 83 C-37.67234363 53.20750794 -21.7614794 24.96787544 -2.875 3.1875 C-1.9208576 2.12123488 -0.96439432 1.05700172 0 0 Z " fill="#C47E5C" transform="translate(164,53)"/>
<path d="M0 0 C1.296875 1.328125 1.296875 1.328125 2.75 3.25 C21.33391389 25.2092803 50.87584498 37.28990443 79 40 C101.36232658 41.22741734 121.439637 36.37100493 142 28 C143.66640391 27.33267682 145.33303224 26.66591343 147 26 C148.81312305 29.29132385 150.62539248 32.58311694 152.4375 35.875 C152.95376953 36.81214844 153.47003906 37.74929688 154.00195312 38.71484375 C154.74155273 40.05869141 154.74155273 40.05869141 155.49609375 41.4296875 C155.95169678 42.25710449 156.4072998 43.08452148 156.87670898 43.93701172 C157.60745987 45.27907757 158.31660588 46.63321176 159 48 C156.61153168 49.20474943 154.21609848 50.38864958 151.8125 51.5625 C151.13896484 51.90474609 150.46542969 52.24699219 149.77148438 52.59960938 C146.52897545 54.16550393 144.66517814 55.06347452 141.01171875 54.71484375 C140.34785156 54.47894531 139.68398438 54.24304688 139 54 C139 53.34 139 52.68 139 52 C132.76706933 51.46061177 127.20921639 52.27303683 121.1875 53.875 C86.86002912 62.89721895 51.01108874 57.37124575 20.12841797 39.94384766 C5.79026791 31.3310436 -7.22657743 19.72949091 -18 7 C-16.42560529 3.85121058 -13.28472275 3.45977508 -10.125 2.375 C-9.48691406 2.14554687 -8.84882813 1.91609375 -8.19140625 1.6796875 C-5.32723295 0.67513402 -3.05749257 0 0 0 Z " fill="#F3E6C8" transform="translate(167,383)"/>
<path d="M0 0 C14.59336288 5.30667741 22.52412092 10.37642938 29.921875 23.59375 C32.39318268 29.10942221 33.2488043 34.2056114 33.22705078 40.22045898 C33.22734283 40.90423111 33.22763489 41.58800323 33.22793579 42.29249573 C33.22655503 44.52716265 33.21105393 46.7614859 33.1953125 48.99609375 C33.19157789 50.55550454 33.18873304 52.11491768 33.18673706 53.67433167 C33.17913582 57.75961901 33.15951786 61.84476199 33.1373291 65.92999268 C33.11317828 70.84181485 33.10407296 75.75368556 33.09242249 80.66555023 C33.0730911 88.11046694 33.03474431 95.55506746 33 103 C22.11 103 11.22 103 0 103 C0 69.01 0 35.02 0 0 Z " fill="#F5E8CA" transform="translate(400,402)"/>
<path d="M0 0 C12 3 12 3 15.28515625 4.1171875 C34.68308501 10.42500318 59.02176942 7.8193374 77.84765625 0.76953125 C80 0 80 0 82 0 C82.00586624 0.57834595 82.01173248 1.15669189 82.01777649 1.75256348 C82.08245784 7.85405858 82.16705357 13.95506198 82.26245117 20.05615234 C82.29539978 22.32333837 82.32352177 24.59060051 82.34643555 26.85791016 C82.49750086 41.41803479 83.38488485 54.86204517 87 69 C77.0054189 64.65645699 71.97433128 53.54264569 68 44 C67.11990738 41.13075496 66.37625617 38.26396608 65.671875 35.34765625 C64.53580547 31.37801794 62.79684866 28.16222656 59.24145508 25.86254883 C56.40871121 24.77246234 54.10901046 24.76055179 51.07421875 24.76171875 C49.89529053 24.74882812 48.7163623 24.7359375 47.50170898 24.72265625 C46.24302002 24.71105469 44.98433105 24.69945312 43.6875 24.6875 C30.27214561 24.41890753 17.93958034 22.42134329 5 19 C3.68 18.67 2.36 18.34 1 18 C1 21.63 1 25.26 1 29 C0.67 29 0.34 29 0 29 C0 19.43 0 9.86 0 0 Z " fill="#EFA771" transform="translate(215,312)"/>
<path d="M0 0 C0.66 0 1.32 0 2 0 C2.00142502 0.83540314 2.00285004 1.67080627 2.00431824 2.53152466 C2.02244107 10.55745752 2.06488999 18.58286035 2.13209057 26.60853767 C2.16581806 30.7307926 2.19138312 34.85269846 2.19555664 38.97509766 C2.22505676 60.51237105 3.51856183 80.87073852 8 102 C8.17878693 102.84479919 8.35757385 103.68959839 8.54177856 104.55999756 C9.47673428 108.86470523 10.53910844 113.12150416 11.6875 117.375 C11.98205078 118.50808594 12.27660156 119.64117187 12.58007812 120.80859375 C13.13469412 122.93981476 13.69395165 125.06983697 14.25927734 127.19824219 C15.208938 130.79030076 16.10920707 134.39294687 17 138 C12.44527315 133.89722303 9.83207667 128.1952311 6.8125 122.9375 C6.47640717 122.35408844 6.14031433 121.77067688 5.79403687 121.16958618 C-9.29879362 94.88255708 -15.40090652 71.04957432 -15.81005859 40.73925781 C-15.8535562 38.31843596 -15.92215661 35.89794224 -16.01513672 33.47851562 C-16.76179449 13.78375613 -16.76179449 13.78375613 -13.82531738 9.1439209 C-10.70949244 6.03594768 -7.03130455 4.57011574 -3 3 C-1.97157097 2.02926124 -0.96109933 1.03744305 0 0 Z " fill="#C17C5A" transform="translate(327,293)"/>
<path d="M0 0 C6.82993197 2.27664399 6.82993197 2.27664399 9.6875 5.1875 C10.24824219 5.73792969 10.80898438 6.28835938 11.38671875 6.85546875 C15.27472075 12.02378133 16.37571439 16.74521891 16.34057617 23.12866211 C16.34123329 24.13968994 16.34123329 24.13968994 16.34190369 25.17114258 C16.33983283 27.37351631 16.31658455 29.57510493 16.29296875 31.77734375 C16.28736669 33.31433191 16.28309947 34.85132547 16.28010559 36.38832092 C16.26870474 40.41451054 16.23927927 44.44037044 16.20599365 48.46643066 C16.17518951 52.5823928 16.16157825 56.69840871 16.14648438 60.81445312 C16.11440431 68.87646953 16.061676 76.93815564 16 85 C10.72 85 5.44 85 0 85 C0 56.95 0 28.9 0 0 Z " fill="#FAF3DA" transform="translate(400,420)"/>
<path d="M0 0 C2.5625 1.875 2.5625 1.875 5 4 C10.16768458 5.82350965 14.89208469 6.41849176 20.3125 6.4375 C21.4252832 6.44221313 21.4252832 6.44221313 22.56054688 6.44702148 C29.03267603 6.30666036 35.263587 4.736413 40 0 C47.08571429 -0.45714286 47.08571429 -0.45714286 50 1 C51.6804482 4.36089639 51.90488381 7.42128659 51 11 C47.22484085 16.69585416 39.52736524 19.89920986 33.15673828 21.58837891 C20.65472688 23.9744318 6.42138565 23.51793406 -4.390625 16.43359375 C-6.71607737 14.74642114 -8.96614591 13.03385409 -11 11 C-11.45714286 3.91428571 -11.45714286 3.91428571 -10 1 C-6.73944369 -0.63027816 -3.51262607 -0.64432786 0 0 Z " fill="#050402" transform="translate(236,233)"/>
<path d="M0 0 C0 9.57 0 19.14 0 29 C-3.3 28.01 -6.6 27.02 -10 26 C-13.2961609 25.59024236 -13.2961609 25.59024236 -16.25 25.5625 C-22.7001303 25.14076071 -25.97390141 23.24513628 -30.3125 18.4375 C-32.93612539 14.64781888 -33.1153849 11.80771645 -33.0625 7.3125 C-33.05347656 6.31863281 -33.04445313 5.32476562 -33.03515625 4.30078125 C-33.02355469 3.54152344 -33.01195312 2.78226563 -33 2 C-29.00043584 1.66129817 -25.00028974 1.33001275 -21 1 C-19.87464844 0.90460938 -18.74929688 0.80921875 -17.58984375 0.7109375 C-16.48769531 0.62070313 -15.38554687 0.53046875 -14.25 0.4375 C-13.24453125 0.35371094 -12.2390625 0.26992187 -11.203125 0.18359375 C-7.47436851 -0.03012766 -3.73487641 0 0 0 Z " fill="#A06758" transform="translate(385,143)"/>
<path d="M0 0 C0.57995227 10.86873508 0.57995227 10.86873508 -3 16 C-8.12864092 21.15666628 -12.85287694 22.19024167 -19.875 23 C-24.29724553 23.51552589 -28.62686383 24.12537277 -33 25 C-33 18.4 -33 11.8 -33 5 C-29.38968828 3.79656276 -25.82438753 3.46579406 -22.0625 3.0625 C-15.71066422 2.35327496 -9.42122395 1.47929227 -3.125 0.3671875 C-1 0 -1 0 0 0 Z " fill="#A06757" transform="translate(160,146)"/>
<path d="M0 0 C1.75547303 3.09789358 1.54973574 5.40344534 1.0625 8.875 C-1.77308257 12.62201983 -5.07230026 13.28356296 -9.5 14.125 C-25.98963701 16.34671871 -25.98963701 16.34671871 -30.75 12.75 C-32.22738201 9.17318039 -32.18139509 7.52894182 -30.9375 3.875 C-29.24704568 1.52496272 -27.87067952 0.13136668 -25.03662109 -0.6472168 C-22.73357038 -1.00734237 -20.44781285 -1.24314604 -18.125 -1.4375 C-17.34318359 -1.52322266 -16.56136719 -1.60894531 -15.75585938 -1.69726562 C-10.47299973 -2.21363536 -4.74744931 -2.75658347 0 0 Z " fill="#060503" transform="translate(223.9375,152.125)"/>
<path d="M0 0 C1.24007813 0.13148438 2.48015625 0.26296875 3.7578125 0.3984375 C4.93085938 0.53507813 6.10390625 0.67171875 7.3125 0.8125 C8.21742188 0.86664063 9.12234375 0.92078125 10.0546875 0.9765625 C13.59055287 1.20276264 16.20895079 1.75966877 19.375 3.375 C21.4144992 5.94082157 21.69003513 6.73059714 21.875 9.875 C21.3125 13.8125 21.3125 13.8125 19.5859375 15.5390625 C13.05582619 19.19682245 3.23347731 16.56883724 -3.83984375 15.640625 C-7.18812014 14.66691499 -8.56966993 13.55616638 -10.6875 10.8125 C-11.24189118 6.93176176 -11.40608487 4.80599143 -9.07421875 1.58203125 C-5.81561596 -0.83392139 -3.98413628 -0.44268181 0 0 Z " fill="#040302" transform="translate(297.6875,150.1875)"/>
<path d="M0 0 C1.6640625 1.08203125 1.6640625 1.08203125 3 3 C3.32632361 5.58413022 3.46469974 7.85847049 3.4375 10.4375 C3.45683594 11.75621094 3.47617188 13.07492188 3.49609375 14.43359375 C3 18 3 18 1.19140625 20.4375 C-2.03764649 22.73985489 -4.1383656 22.62061981 -8 22 C-10.4375 20.25 -10.4375 20.25 -12 17 C-12.74348321 11.4507026 -13.00835538 6.71420415 -10.125 1.8125 C-6.44926047 -1.3226896 -4.66085525 -1.14143394 0 0 Z " fill="#090705" transform="translate(212,177)"/>
<path d="M0 0 C3.9309583 1.42183598 5.02002494 2.30129892 6.9375 6.0625 C7.78242873 11.77169136 8.0263652 16.39717675 4.8125 21.3125 C1.42445834 23.37478623 -0.17069624 23.80773902 -4.0625 23.0625 C-7.2697311 20.72413696 -7.99226855 19.50035677 -8.62890625 15.53125 C-8.62697266 13.56671875 -8.62697266 13.56671875 -8.625 11.5625 C-8.64691406 10.2528125 -8.66882813 8.943125 -8.69140625 7.59375 C-8.0625 4.0625 -8.0625 4.0625 -5.71875 1.59765625 C-3.0625 0.0625 -3.0625 0.0625 0 0 Z " fill="#080704" transform="translate(305.0625,175.9375)"/>
</svg>
