<?xml version="1.0" encoding="UTF-8"?>
<svg version="1.1" xmlns="http://www.w3.org/2000/svg" width="512" height="512">
<path d="M0 0 C1.20269531 -0.02578125 2.40539062 -0.0515625 3.64453125 -0.078125 C10.08726912 0.51855635 13.99477505 3.49069059 18.1875 8.25 C20.6075236 11.74558965 21.95946514 15.18803853 23.1875 19.25 C23.8475 18.569375 24.5075 17.88875 25.1875 17.1875 C26.18405361 16.20482596 27.18446553 15.22605799 28.1875 14.25 C28.74566406 13.69570312 29.30382812 13.14140625 29.87890625 12.5703125 C38.89646376 4.09870315 48.76145934 0.08671618 60.9375 -0.0625 C62.09765625 -0.10600586 62.09765625 -0.10600586 63.28125 -0.15039062 C70.01701466 -0.22385115 75.04977771 1.59686803 80.2109375 5.9609375 C85.8779757 12.93827355 86.59269619 19.4531647 87.1875 28.25 C87.87714844 27.79109375 88.56679688 27.3321875 89.27734375 26.859375 C98.68094849 20.71929838 107.84305581 14.77537841 119.5390625 16.62109375 C126.1291585 18.44412718 131.58524794 22.27676279 135.3515625 28.02734375 C139.440276 37.06454695 137.67838526 47.77779492 134.5703125 56.80859375 C126.25070219 77.51361263 113.12567504 97.33912588 96.76953125 112.578125 C92.92071598 119.07834634 95.42052654 129.35058391 96.0625 136.62890625 C96.15128418 137.68101791 96.24006836 138.73312958 96.33154297 139.81712341 C96.61290834 143.14926637 96.89958246 146.48091724 97.1875 149.8125 C97.5668672 154.20927677 97.94107583 158.60645224 98.3125 163.00390625 C98.39999512 163.99789932 98.48749023 164.9918924 98.57763672 166.01600647 C99.06499037 171.78552723 99.27089276 177.45978724 99.1875 183.25 C100.486875 183.45625 101.78625 183.6625 103.125 183.875 C111.55031775 185.76639786 118.89315281 191.52012086 124.1875 198.25 C130.56788002 208.9445748 131.97861152 220.28365256 129.5390625 232.49609375 C126.2934198 242.27463264 120.26874953 248.91717195 112.0078125 254.83984375 C108.20516815 256.74116593 104.34822278 257.4827141 100.1875 258.25 C100.17291748 258.83265625 100.15833496 259.4153125 100.14331055 260.015625 C99.34651284 288.66655608 94.55258031 312.05147334 74.1875 333.25 C73.56617188 333.91128906 72.94484375 334.57257813 72.3046875 335.25390625 C68.56780509 339.13322588 64.71463716 342.32067596 60.1875 345.25 C59.5275 345.25 58.8675 345.25 58.1875 345.25 C58.1875 345.91 58.1875 346.57 58.1875 347.25 C58.75984375 347.51554687 59.3321875 347.78109375 59.921875 348.0546875 C77.22819732 357.18526445 89.96099512 375.99782228 95.85595703 394.32861328 C99.57184929 407.05914838 100.34862194 419.28299097 100.35546875 432.46875 C100.3586894 433.93648306 100.36205405 435.40421582 100.36555481 436.87194824 C100.37151138 439.93465926 100.37339817 442.9973422 100.37280273 446.06005859 C100.37270101 449.96344101 100.38637978 453.86664197 100.40357494 457.76998138 C100.41474772 460.79678153 100.41672037 463.82353841 100.41619301 466.85035706 C100.41736415 468.28870776 100.42173664 469.72705992 100.42952538 471.16539001 C100.49436341 484.36809429 99.61861772 494.32756871 90.296875 504.265625 C83.49671663 510.63742693 76.63794985 512.709155 67.50775146 512.63768005 C66.67069365 512.64306559 65.83363583 512.64845113 64.97121263 512.65399987 C62.18605944 512.66822744 59.40138502 512.66118881 56.61621094 512.65405273 C54.61169047 512.65975879 52.60717325 512.66672396 50.60266113 512.67485046 C45.17324036 512.69276475 39.74398134 512.69161746 34.31453991 512.68590808 C29.78126496 512.68281568 25.24802106 512.68890882 20.71475053 512.69494683 C10.02497661 512.70898293 -0.66471735 512.70743657 -11.35449219 512.69604492 C-22.38822623 512.68454674 -33.42171768 512.69867006 -44.45541978 512.7254414 C-53.92989257 512.74757002 -63.40428904 512.75424271 -72.87878585 512.74836498 C-78.53729425 512.74498957 -84.1956469 512.74745008 -89.85413361 512.76461601 C-95.16972158 512.78003928 -100.48494838 512.77618106 -105.80052185 512.75731087 C-107.7532672 512.75361308 -109.70603906 512.7567679 -111.65876007 512.76719666 C-114.31982309 512.78032617 -116.97967593 512.76893145 -119.64068604 512.75120544 C-120.41733116 512.76081045 -121.19397629 512.77041546 -121.99415612 512.78031152 C-125.49557174 512.73215874 -127.46517584 512.50506643 -130.32323837 510.40617466 C-131.8125 508.25 -131.8125 508.25 -131.8125 505.25 C-136.4325 505.25 -141.0525 505.25 -145.8125 505.25 C-146.4725 506.9 -147.1325 508.55 -147.8125 510.25 C-151.18776437 513.62526437 -155.73214268 512.61902042 -160.3125 512.625 C-161.26898438 512.64949219 -162.22546875 512.67398438 -163.2109375 512.69921875 C-172.43099816 512.73669867 -180.45366026 510.34203273 -187.28125 503.94921875 C-193.66013089 496.87061368 -196.05265942 489.32980538 -196.0871582 479.80859375 C-196.09226913 479.10014816 -196.09738007 478.39170258 -196.10264587 477.66178894 C-196.11645777 475.33693807 -196.11559007 473.01238686 -196.11328125 470.6875 C-196.11717562 469.05191948 -196.1215118 467.41633996 -196.12626648 465.78076172 C-196.13371282 462.35462163 -196.13345104 458.92858457 -196.12817383 455.50244141 C-196.12241182 451.15334138 -196.13923819 446.80467178 -196.1625185 442.4556427 C-196.17740103 439.07515068 -196.17810753 435.6947585 -196.17500877 432.3142395 C-196.17551575 430.71338048 -196.18063349 429.11251492 -196.19082069 427.51168823 C-196.32643491 403.2017093 -189.74643395 382.00844633 -173.8125 363.25 C-172.66007812 361.78626953 -172.66007812 361.78626953 -171.484375 360.29296875 C-168.72776526 356.98535313 -165.55834606 354.44903747 -162.125 351.875 C-161.25391602 351.20017578 -161.25391602 351.20017578 -160.36523438 350.51171875 C-156.07741261 347.25 -156.07741261 347.25 -153.8125 347.25 C-153.8125 346.59 -153.8125 345.93 -153.8125 345.25 C-154.88757813 344.87875 -154.88757813 344.87875 -155.984375 344.5 C-173.07510291 336.94608711 -184.21368486 317.96959698 -190.78515625 301.30859375 C-195.49774004 287.27835378 -196.02854368 272.91696515 -195.8125 258.25 C-196.76125 258.20875 -197.71 258.1675 -198.6875 258.125 C-206.97636028 256.916907 -214.79255399 250.74263425 -219.8125 244.25 C-225.87803757 234.39350146 -228.42622509 224.18651122 -226.34765625 212.67578125 C-224.62435182 206.18024917 -221.41988547 200.86628876 -217.8125 195.25 C-216.31560324 192.25620649 -217.34035397 190.26703863 -218.10546875 187.0390625 C-218.40786906 185.73147479 -218.70976734 184.4237709 -219.01123047 183.1159668 C-219.17282654 182.42465668 -219.33442261 181.73334656 -219.50091553 181.02108765 C-228.59210637 141.92852231 -239.29714339 89.50852508 -217.58984375 52.77734375 C-209.79678865 41.69579067 -199.22076016 34.61993133 -185.8125 32.25 C-182.74352994 31.96711748 -179.70572283 31.9173316 -176.625 31.9375 C-175.8 31.93878906 -174.975 31.94007812 -174.125 31.94140625 C-167.88253155 32.03848974 -162.30773564 32.91627462 -156.28125 34.59375 C-153.75502856 35.37845058 -153.75502856 35.37845058 -150.8125 35.25 C-149.39893905 33.7521052 -149.39893905 33.7521052 -148.125 31.75 C-139.12136437 19.30701938 -127.02423791 11.1259692 -111.8125 8.25 C-110.87019531 8.06824219 -109.92789063 7.88648438 -108.95703125 7.69921875 C-82.98166034 3.98845148 -58.55563078 13.87843461 -35.8125 25.25 C-35.08546875 24.30640625 -35.08546875 24.30640625 -34.34375 23.34375 C-25.29988127 11.79542532 -15.70761839 0.20073634 0 0 Z " fill="#010101" transform="translate(301.8125,-0.25)"/>
<path d="M0 0 C3.77767091 31.12810877 4.37836035 62.06146099 4.3125 93.375 C4.31111023 94.33762379 4.30972046 95.30024757 4.30828857 96.29204178 C4.29851545 102.82760359 4.2735957 109.36296689 4.23828125 115.8984375 C4.23470423 116.73941294 4.2311272 117.58038837 4.22744179 118.44684792 C4.1846781 127.24573505 4.01743068 136.02342503 3.55151367 144.81103516 C3.51371701 145.54472509 3.47592035 146.27841503 3.43697834 147.034338 C2.5058745 162.96300613 -4.31509579 178.15261778 -15 190 C-15.495 190.58652344 -15.99 191.17304688 -16.5 191.77734375 C-29.29284259 205.8814527 -48.55845576 212.4831066 -67.15576172 213.4074707 C-69.45506924 213.48649183 -71.75477562 213.55441892 -74.0546875 213.61328125 C-75.33592499 213.65060867 -76.61716248 213.6879361 -77.93722534 213.72639465 C-94.49169168 214.17693486 -111.05435721 214.18713087 -127.61376953 214.18530273 C-131.29155363 214.18522121 -134.96921385 214.19222898 -138.64697266 214.20581055 C-173.72127651 214.33302985 -173.72127651 214.33302985 -191.08203125 213.12890625 C-192.18495514 213.0532695 -193.28787903 212.97763275 -194.42422485 212.89970398 C-202.85202246 212.21966928 -210.27014947 210.56150127 -218 207 C-218.95003906 206.57976562 -219.90007812 206.15953125 -220.87890625 205.7265625 C-238.75927391 196.92626775 -250.44232029 181.7612323 -257 163.1640625 C-259.61441083 154.79292013 -260.25541886 146.70997123 -260.55859375 137.98046875 C-260.60084579 136.79680222 -260.64309784 135.61313568 -260.68663025 134.39360046 C-261.13328015 120.70028292 -261.11008733 107.01136656 -261.0625 93.3125 C-261.0574643 90.7376311 -261.05290513 88.16276122 -261.04882812 85.58789062 C-261.03801098 79.39190509 -261.02144401 73.19595743 -261 67 C-260.06333496 66.74895508 -259.12666992 66.49791016 -258.16162109 66.23925781 C-256.91977051 65.89733398 -255.67791992 65.55541016 -254.3984375 65.203125 C-253.17302246 64.86958008 -251.94760742 64.53603516 -250.68505859 64.19238281 C-235.17701824 59.17441083 -225.5706785 47.8670133 -218 34 C-215.74849608 29.43551369 -213.84689474 24.7413724 -212 20 C-211.33372014 18.33317866 -210.66720168 16.66645256 -210 15 C-209.47277344 15.37769531 -208.94554687 15.75539062 -208.40234375 16.14453125 C-189.23751825 29.11343853 -167.72174935 37.15204494 -145 41 C-144.09894531 41.16991455 -143.19789063 41.3398291 -142.26953125 41.51489258 C-132.93890307 43.14993938 -123.81558864 43.35735862 -114.375 43.3125 C-113.57941681 43.31067719 -112.78383362 43.30885437 -111.96414185 43.30697632 C-100.07432042 43.2611112 -88.60743231 42.77965372 -77 40 C-76.18772949 39.81244141 -75.37545898 39.62488281 -74.53857422 39.43164062 C-68.97083526 38.12605813 -63.47646681 36.64511002 -58 35 C-56.98164063 34.70480469 -55.96328125 34.40960938 -54.9140625 34.10546875 C-52.58073252 33.2786091 -50.87399666 32.61534608 -49 31 C-48.05496315 28.75975639 -47.49954485 26.56061394 -46.9296875 24.19921875 C-45.41365502 20.61297386 -42.68485928 19.4322456 -39.3515625 17.6796875 C-36.47634346 16.84864412 -34.89819451 17.32460954 -32 18 C-25.99753821 18.60994993 -22.75631353 17.09649221 -18.125 13.5 C-17.21862793 12.82638428 -17.21862793 12.82638428 -16.29394531 12.13916016 C-11.86534739 8.80178575 -7.69097281 5.22111324 -3.671875 1.3984375 C-2 0 -2 0 0 0 Z " fill="#F0CFA4" transform="translate(382,130)"/>
<path d="M0 0 C2.46607214 2.17911102 3.83265082 3.93663542 4.3515625 7.23388672 C4.46746205 9.91665088 4.44652868 12.56579201 4.375 15.25 C4.37306641 16.60544922 4.37306641 16.60544922 4.37109375 17.98828125 C4.3034285 23.21354232 3.74861954 28.01952764 2.4609375 33.08569336 C1.79328866 35.85848708 1.6055463 38.17308179 2 41 C3.41666667 43.58333333 3.41666667 43.58333333 6 45 C9.43078589 45.39349043 9.43078589 45.39349043 13 44 C15.34387265 41.12687834 16.83886847 37.89305641 18.4375 34.5625 C19.38368562 32.721677 20.3367678 30.88438173 21.296875 29.05078125 C21.75642578 28.17115723 22.21597656 27.2915332 22.68945312 26.38525391 C25.23382186 21.75438905 28.4273814 17.86229038 32 14 C32.60972656 13.2884375 33.21945312 12.576875 33.84765625 11.84375 C40.23166475 4.81740799 48.28385855 -0.20611896 57.9375 -0.6875 C61.48769454 -0.44124373 63.0194129 0.01103871 66.1875 1.8125 C69.63586742 7.87687028 68.65577367 13.68686392 66.97265625 20.25 C65.40399826 25.89520947 63.72814406 31.44855902 61.35546875 36.8125 C59.90638017 40.22015499 59.50118206 42.34200179 60 46 C60.93597315 48.01951062 60.93597315 48.01951062 63 49 C66.41499591 49.66707548 66.41499591 49.66707548 70 49 C73.27843777 46.04940601 76.12967694 42.74848581 79.04663086 39.44482422 C86.83640903 30.69588136 97.95275752 18.35339144 110.125 17.125 C111.39730469 16.97417969 111.39730469 16.97417969 112.6953125 16.8203125 C115 17 115 17 116.76171875 18.14453125 C119.69903517 22.54587288 118.75939701 28.01180393 118 33 C114.37672458 45.09701993 107.44153198 55.92573378 100 66 C99.56284668 66.59264648 99.12569336 67.18529297 98.67529297 67.79589844 C92.01437707 76.72420472 84.71826512 84.97827368 77 93 C76.44940918 93.57782227 75.89881836 94.15564453 75.33154297 94.75097656 C68.05904856 102.35356706 60.55643486 109.2568069 52.15625 115.59765625 C45.8355458 119.89134193 45.8355458 119.89134193 42.0625 126.125 C41.83698357 129.07223697 41.83698357 129.07223697 43 132 C38.33333333 134.33333333 33.66666667 136.66666667 29 139 C28.195625 138.01 28.195625 138.01 27.375 137 C24.27555218 134.38993867 22.9957734 134.67601837 19 135 C16.42539954 135.70115599 13.95503986 136.45105901 11.4375 137.3125 C-4.24352507 142.42973274 -18.84316295 144.23575776 -35.3125 144.25 C-36.3697226 144.25101212 -36.3697226 144.25101212 -37.44830322 144.25204468 C-70.63835868 144.20181504 -103.41055354 136.22325698 -128.875 113.9375 C-132.19204851 111.10695194 -134.25608441 109.4375 -138.6875 109.4375 C-139.780625 109.623125 -140.87375 109.80875 -142 110 C-152.54745594 90.31141558 -150.7763864 65.09961175 -144.640625 44.1484375 C-140.60599291 31.22807167 -136.77281045 19.27704351 -124.21484375 12.49609375 C-107.05074014 4.38761412 -87.82711983 6.84031473 -70.375 12.91015625 C-62.95083273 15.69421898 -55.91554027 19.13572859 -49 23 C-50.38836644 27.16509933 -52.31755366 29.75127978 -55.3125 32.9375 C-57.81242199 35.61995598 -60.24303231 38.25101806 -62.4375 41.1875 C-67.62036453 46.87600985 -74.13211212 50.65410591 -81 54 C-82.54163175 57.0832635 -82.29747535 59.60878099 -82 63 C-80.55851025 65.18547684 -80.55851025 65.18547684 -78 66 C-69.10677605 66.36298873 -61.57230007 59.52435909 -55.125 54.0625 C-45.85174896 45.40550931 -38.38669011 34.91978573 -30.875 24.75 C-10.7187722 -2.43608459 -10.7187722 -2.43608459 0 0 Z " fill="#655D65" transform="translate(305,15)"/>
<path d="M0 0 C0.76183594 0.09023438 1.52367187 0.18046875 2.30859375 0.2734375 C4.5625 0.625 4.5625 0.625 6.32348633 1.11352539 C9.09771203 1.74726248 11.8024002 1.95146325 14.640625 2.16015625 C15.80078125 2.24716797 16.9609375 2.33417969 18.15625 2.42382812 C19.3628125 2.51083984 20.569375 2.59785156 21.8125 2.6875 C23.64554688 2.82381836 23.64554688 2.82381836 25.515625 2.96289062 C28.53103537 3.18669061 31.54664606 3.40727284 34.5625 3.625 C34.88138184 4.43541748 35.20026367 5.24583496 35.52880859 6.08081055 C35.96016113 7.15113525 36.39151367 8.22145996 36.8359375 9.32421875 C37.25794434 10.38213623 37.67995117 11.44005371 38.11474609 12.5300293 C43.09131338 23.16880561 53.25770504 29.67489628 63.8125 34.0625 C78.52184507 38.49834688 96.73715097 37.03027004 110.41796875 30.19921875 C112.8975682 28.78178154 115.22983335 27.27082591 117.5625 25.625 C118.635 24.8825 119.7075 24.14 120.8125 23.375 C126.40272004 17.78477996 129.55904612 10.8368332 132.5625 3.625 C133.67625 3.58761719 134.79 3.55023438 135.9375 3.51171875 C145.20768351 3.13342737 153.95765204 2.19806008 163.01171875 0.1484375 C172.12108959 -1.19441805 178.29456925 2.60157728 185.5625 7.625 C200.69840581 19.50668606 211.76947758 35.98407444 215.1875 55.125 C215.72739542 61.60374509 215.5625 68.12379819 215.5625 74.625 C202.0325 74.625 188.5025 74.625 174.5625 74.625 C174.2325 70.665 173.9025 66.705 173.5625 62.625 C171.8060669 60.46794485 171.8060669 60.46794485 169.6875 60.359375 C168.98625 60.36453125 168.285 60.3696875 167.5625 60.375 C166.86125 60.36984375 166.16 60.3646875 165.4375 60.359375 C163.3189331 60.46794485 163.3189331 60.46794485 161.5625 62.625 C161.31706859 65.27287789 161.18900614 67.82403823 161.1484375 70.4765625 C161.12907135 71.25059418 161.1097052 72.02462585 161.0897522 72.82211304 C161.0299017 75.29796275 160.98354989 77.77385883 160.9375 80.25 C160.89932518 81.92710377 160.86027375 83.60418784 160.8203125 85.28125 C160.72254264 89.39573163 160.64302009 93.5099996 160.5625 97.625 C153.9625 97.625 147.3625 97.625 140.5625 97.625 C142.28205094 90.79025059 144.36039389 84.1615595 146.69921875 77.51953125 C146.9849173 76.70507538 147.27061584 75.89061951 147.56497192 75.05148315 C148.75992165 71.65138807 149.95812037 68.25261691 151.1730957 64.85961914 C152.06809258 62.35424892 152.94723765 59.84375495 153.82421875 57.33203125 C154.2366407 56.19892265 154.2366407 56.19892265 154.65739441 55.04292297 C156.38644032 50.04263963 156.98826899 45.92281384 156.5625 40.625 C152.68026087 36.90691475 146.18051255 35.61102489 141.125 33.9375 C140.19623047 33.61716797 139.26746094 33.29683594 138.31054688 32.96679688 C131.58725098 30.64509321 131.58725098 30.64509321 124.5625 30.625 C121.63598046 32.91288389 120.73167422 35.36567625 119.57299805 38.83642578 C119.03179573 40.43552292 119.03179573 40.43552292 118.47966003 42.06692505 C117.9077166 43.80110184 117.9077166 43.80110184 117.32421875 45.5703125 C116.92096878 46.76872772 116.51771881 47.96714294 116.10224915 49.20187378 C115.02799587 52.39905459 113.96136219 55.59856923 112.89855957 58.79956055 C111.83702941 61.99194318 110.76686542 65.18140536 109.69726562 68.37109375 C109.0750412 70.22729088 109.0750412 70.22729088 108.44024658 72.12098694 C106.83864179 76.89514058 105.23467795 81.66849887 103.62927246 86.44137573 C102.66592156 89.31635369 101.71435516 92.19495888 100.76464844 95.07446289 C100.24880842 96.60588824 99.73227598 98.13708064 99.21484375 99.66796875 C98.89322517 100.66529526 98.89322517 100.66529526 98.56510925 101.68276978 C96.89770883 106.54188428 94.53653288 109.31663749 90.3984375 112.265625 C87.65749196 114.29509106 86.27048479 116.70719266 84.5625 119.625 C81.27864911 118.22579397 79.52810551 116.64988457 77.3125 113.875 C69.53075236 104.83444025 59.89725864 99.70528721 47.96002197 98.32382202 C41.18837263 97.84439522 34.41057475 97.83068007 27.625 97.8125 C25.57354172 97.7893041 23.52210688 97.76392841 21.47070312 97.73632812 C16.50121423 97.67413039 11.5323427 97.64127991 6.5625 97.625 C6.53744385 96.61074951 6.5123877 95.59649902 6.48657227 94.55151367 C6.39240355 90.78868973 6.29220595 87.02604631 6.19018555 83.26342773 C6.14687251 81.63488996 6.10519482 80.00630784 6.06518555 78.37768555 C6.00739497 76.03681065 5.94372602 73.69615824 5.87890625 71.35546875 C5.86219376 70.62724411 5.84548126 69.89901947 5.82826233 69.14872742 C5.73782762 66.06333061 5.54526007 63.57328022 4.5625 60.625 C3.12594146 60.54368537 1.6880517 60.48566441 0.25 60.4375 C-0.55050781 60.40269531 -1.35101563 60.36789062 -2.17578125 60.33203125 C-4.86997515 60.44706226 -4.86997515 60.44706226 -7.4375 63.625 C-7.7675 67.255 -8.0975 70.885 -8.4375 74.625 C-21.9675 74.625 -35.4975 74.625 -49.4375 74.625 C-49.4375 51.8473327 -44.19181615 32.86945365 -28.16796875 16.3515625 C-10.48294713 -1.30815866 -10.48294713 -1.30815866 0 0 Z " fill="#6DBF7C" transform="translate(170.4375,354.375)"/>
<path d="M0 0 C0.66 8.58 1.32 17.16 2 26 C1.34 25.34 0.68 24.68 0 24 C-0.66902344 24.64324219 -1.33804687 25.28648437 -2.02734375 25.94921875 C-32.63905139 54.75298661 -67.07855515 71.75530634 -109.56884766 71.33618164 C-112.13085277 71.31244578 -114.69181752 71.31567363 -117.25390625 71.32226562 C-131.41191553 71.29985485 -145.18194447 70.24065993 -158.875 66.375 C-159.79772705 66.11847656 -160.7204541 65.86195313 -161.67114258 65.59765625 C-175.02122103 61.7240108 -186.80179928 55.65356403 -199 49 C-199 59.89 -199 70.78 -199 82 C-196.36 81.67 -193.72 81.34 -191 81 C-186.75664958 82.48023852 -184.18415241 85.48211698 -181.95703125 89.29296875 C-179.65429642 95.80641869 -179.61195408 104.21292984 -181.9921875 110.70703125 C-183.18210649 112.69885217 -184.4097917 114.31733773 -186 116 C-186.5775 116.680625 -187.155 117.36125 -187.75 118.0625 C-190.41321999 119.172175 -191.80537803 118.92189153 -194.640625 118.55859375 C-195.45563477 118.45732178 -196.27064453 118.3560498 -197.11035156 118.25170898 C-197.73393555 118.16864502 -198.35751953 118.08558105 -199 118 C-198.81300406 168.23240824 -198.81300406 168.23240824 -178 213 C-201.31455197 213.58776181 -222.22954369 209.0001765 -239.6875 192.4375 C-254.20927225 177.13076709 -259.84308304 158.58261223 -260.55859375 137.98046875 C-260.60084579 136.79680222 -260.64309784 135.61313568 -260.68663025 134.39360046 C-261.13328015 120.70028292 -261.11008733 107.01136656 -261.0625 93.3125 C-261.0574643 90.7376311 -261.05290513 88.16276122 -261.04882812 85.58789062 C-261.03801098 79.39190509 -261.02144401 73.19595743 -261 67 C-260.06333496 66.74895508 -259.12666992 66.49791016 -258.16162109 66.23925781 C-256.91977051 65.89733398 -255.67791992 65.55541016 -254.3984375 65.203125 C-253.17302246 64.86958008 -251.94760742 64.53603516 -250.68505859 64.19238281 C-235.17701824 59.17441083 -225.5706785 47.8670133 -218 34 C-215.74849608 29.43551369 -213.84689474 24.7413724 -212 20 C-211.33372014 18.33317866 -210.66720168 16.66645256 -210 15 C-209.47277344 15.37769531 -208.94554687 15.75539062 -208.40234375 16.14453125 C-189.23751825 29.11343853 -167.72174935 37.15204494 -145 41 C-144.09894531 41.16991455 -143.19789063 41.3398291 -142.26953125 41.51489258 C-132.93890307 43.14993938 -123.81558864 43.35735862 -114.375 43.3125 C-113.57941681 43.31067719 -112.78383362 43.30885437 -111.96414185 43.30697632 C-100.07432042 43.2611112 -88.60743231 42.77965372 -77 40 C-76.18772949 39.81244141 -75.37545898 39.62488281 -74.53857422 39.43164062 C-68.97083526 38.12605813 -63.47646681 36.64511002 -58 35 C-56.98164063 34.70480469 -55.96328125 34.40960938 -54.9140625 34.10546875 C-52.58073252 33.2786091 -50.87399666 32.61534608 -49 31 C-48.05496315 28.75975639 -47.49954485 26.56061394 -46.9296875 24.19921875 C-45.41365502 20.61297386 -42.68485928 19.4322456 -39.3515625 17.6796875 C-36.47634346 16.84864412 -34.89819451 17.32460954 -32 18 C-25.99753821 18.60994993 -22.75631353 17.09649221 -18.125 13.5 C-17.21862793 12.82638428 -17.21862793 12.82638428 -16.29394531 12.13916016 C-11.86534739 8.80178575 -7.69097281 5.22111324 -3.671875 1.3984375 C-2 0 -2 0 0 0 Z " fill="#EFB885" transform="translate(382,130)"/>
<path d="M0 0 C0.495 0.99 0.495 0.99 1 2 C0.14453125 4.14453125 0.14453125 4.14453125 -1.1875 6.8125 C-10.81125143 27.419591 -15.74427618 56.06785329 -7.90625 78.0703125 C-7.17776535 79.91613509 -6.41633223 81.74960978 -5.609375 83.5625 C-4.81447142 86.74211431 -5.62167174 88.07558641 -7 91 C-7.44312605 92.76439823 -7.85802263 94.53603847 -8.25 96.3125 C-12.48379946 113.37345425 -19.28726177 130.66687446 -35.03125 140.234375 C-42.73850678 144.32514975 -50.34531419 145.4084951 -58.9375 146.125 C-59.90751953 146.21136719 -60.87753906 146.29773438 -61.87695312 146.38671875 C-64.25084011 146.59721119 -66.62508706 146.80147885 -69 147 C-72.12794546 133.78820207 -74.67822177 120.53824995 -76.75 107.125 C-76.90968765 106.09572388 -76.90968765 106.09572388 -77.07260132 105.0456543 C-80.81144851 80.82305602 -84.92543257 50.64974244 -73 28 C-72.64164062 27.29875 -72.28328125 26.5975 -71.9140625 25.875 C-67.71640568 18.43754093 -61.33697306 12.39351807 -53 10 C-49.614779 9.56304795 -46.28504888 9.52521318 -42.875 9.5625 C-41.94864746 9.56644775 -41.02229492 9.57039551 -40.06787109 9.57446289 C-32.39525115 9.73422558 -26.1871599 11.30211715 -19 14 C-16.38330773 14.80295611 -14.78772256 15.05807755 -12 15 C-6.82027255 11.2446976 -3.53975973 5.2535339 0 0 Z " fill="#443F44" transform="translate(168,38)"/>
<path d="M0 0 C13.53 0 27.06 0 41 0 C41.495 8.91 41.495 8.91 42 18 C43.5 22 43.5 22 46 23 C47.64224914 23.09867301 49.28839505 23.1355339 50.93359375 23.1418457 C52.47660156 23.15239738 52.47660156 23.15239738 54.05078125 23.16316223 C55.16839844 23.16732651 56.28601563 23.17149078 57.4375 23.17578125 C59.80079001 23.1989948 62.16407127 23.22311273 64.52734375 23.24804688 C68.25542922 23.28305122 71.98319658 23.31243921 75.71142578 23.32592773 C79.30801208 23.34149012 82.90366344 23.381772 86.5 23.42578125 C88.15213501 23.42291862 88.15213501 23.42291862 89.83764648 23.41999817 C100.42729312 23.58570173 108.29476236 26.48227139 116.01953125 33.76953125 C119.04497937 37.17688998 121.08825883 40.88634266 123 45 C123.33 45.66 123.66 46.32 124 47 C124.04022391 49.3329866 124.04320247 51.66706666 124 54 C123.1296965 54.00586624 122.25939301 54.01173248 121.36271667 54.01777649 C113.16657651 54.07564623 104.97071053 54.14768976 96.77483654 54.23571491 C92.56109206 54.28046969 88.34744541 54.3197143 84.13354492 54.34643555 C80.06795155 54.37241795 76.00273362 54.41278373 71.93737221 54.46318626 C70.38526385 54.47988942 68.8330905 54.49138219 67.28090477 54.49761391 C65.10898727 54.50721798 62.93803772 54.5352303 60.76635742 54.56762695 C58.91103645 54.58428154 58.91103645 54.58428154 57.01823425 54.60127258 C54.04929761 54.75430729 54.04929761 54.75430729 52.20210266 56.27702332 C50.73010523 58.29810143 50.73010523 58.29810143 49 62 C44.05 62 39.1 62 34 62 C33.34 60.35 32.68 58.7 32 57 C28.23040017 54.48693345 25.17371792 54.75836105 20.8125 54.6875 C14.13066642 54.41245235 8.83138688 54.08050671 4 49 C0.30027938 42.9317437 -0.56559137 37.36182672 -0.390625 30.37109375 C-0.38458252 29.20519714 -0.38458252 29.20519714 -0.37841797 28.01574707 C-0.35773932 25.15608576 -0.30189687 22.29676514 -0.25 19.4375 C-0.1675 13.023125 -0.085 6.60875 0 0 Z " fill="#F0CFA4" transform="translate(121,443)"/>
<path d="M0 0 C13.2 0 26.4 0 40 0 C40.09199537 5.87237118 40.17158327 11.74222757 40.21972656 17.61474609 C40.23980169 19.61092618 40.26706789 21.60704775 40.30175781 23.60302734 C40.35045657 26.4776862 40.37300986 29.3515654 40.390625 32.2265625 C40.41127014 33.11429352 40.43191528 34.00202454 40.45318604 34.91665649 C40.45518003 40.46335756 39.70628325 43.60313128 36 48 C31.8667577 51.72999915 28.92287918 53.12645339 23.38728333 53.12025452 C21.96751945 53.12231651 21.96751945 53.12231651 20.51907349 53.12442017 C19.4825766 53.12082489 18.44607971 53.11722961 17.37817383 53.11352539 C16.28533585 53.11367142 15.19249786 53.11381744 14.06654358 53.1139679 C10.44668609 53.11327005 6.82687977 53.10548358 3.20703125 53.09765625 C0.70025155 53.09579162 -1.80652852 53.09436793 -4.31330872 53.09336853 C-10.24185005 53.08993774 -16.17037491 53.08205257 -22.09890777 53.07201904 C-29.51059669 53.05974754 -36.92228789 53.05437466 -44.33398438 53.04882812 C-57.55599895 53.03809709 -70.77799831 53.02121663 -84 53 C-83.22203805 46.12341112 -81.75856312 41.85165516 -78 36 C-77.443125 35.113125 -76.88625 34.22625 -76.3125 33.3125 C-71.28654319 28.28654319 -63.62010131 23.4384702 -56.42028809 22.75517273 C-55.50493286 22.75693008 -54.58957764 22.75868744 -53.64648438 22.76049805 C-52.60190063 22.75676682 -51.55731689 22.75303558 -50.4810791 22.74919128 C-48.8043512 22.75539238 -48.8043512 22.75539238 -47.09375 22.76171875 C-44.71744217 22.74630496 -42.34113997 22.73000177 -39.96484375 22.71289062 C-36.22529671 22.69640926 -32.48616257 22.6875261 -28.74658203 22.69458008 C-25.13266332 22.69719507 -21.52000111 22.66912026 -17.90625 22.63671875 C-16.7884314 22.64692551 -15.67061279 22.65713226 -14.5189209 22.66764832 C-13.47433716 22.6544606 -12.42975342 22.64127289 -11.35351562 22.62768555 C-10.4381604 22.62705612 -9.52280518 22.6264267 -8.57971191 22.6257782 C-5.16754265 22.03501668 -5.16754265 22.03501668 -1 17 C-0.67 11.39 -0.34 5.78 0 0 Z " fill="#F0CFA4" transform="translate(346,444)"/>
<path d="M0 0 C2.55032045 2.09257063 4.5164785 4.38494117 6.55078125 6.97265625 C11.26141874 12.76619891 15.77351775 16.13193374 23.2578125 17.375 C30.32022065 17.7687231 35.88219989 15.03019542 41.6875 11.25 C44.39535857 8.61532679 46.56175111 5.76859834 48.765625 2.70703125 C50 1 50 1 51 0 C55.0111386 -0.54697345 56.58042052 -0.29459835 59.9375 2.0625 C62 5 62 5 62.25 8.25 C59.72434593 15.8269622 53.7247314 22.67964184 47 27 C35.96855805 32.29337071 25.46492533 35.45448566 13.375 31.5 C2.66130199 27.04247601 -4.83224466 20.33551068 -10 10 C-10.38932198 6.4182378 -10.43596718 4.63718279 -8.375 1.625 C-5.24988831 -0.51323431 -3.71837535 -0.6829669 0 0 Z " fill="#040303" transform="translate(228,274)"/>
<path d="M0 0 C0.80824219 0.10183594 1.61648437 0.20367187 2.44921875 0.30859375 C3.06410156 0.39238281 3.67898437 0.47617187 4.3125 0.5625 C3.58546875 1.14128906 2.8584375 1.72007812 2.109375 2.31640625 C-15.43515625 16.40593903 -24.90692928 32.79251642 -29.6875 54.5625 C-29.87570313 55.21734375 -30.06390625 55.8721875 -30.2578125 56.546875 C-30.94424571 59.7668708 -31.06072306 63.03358665 -31.25 66.3125 C-31.394375 68.705 -31.53875 71.0975 -31.6875 73.5625 C-24.0975 73.5625 -16.5075 73.5625 -8.6875 73.5625 C-8.6875 73.8925 -8.6875 74.2225 -8.6875 74.5625 C-22.2175 74.5625 -35.7475 74.5625 -49.6875 74.5625 C-49.6875 51.7848327 -44.44181615 32.80695365 -28.41796875 16.2890625 C-10.70700306 -1.39656562 -10.70700306 -1.39656562 0 0 Z " fill="#5BA16D" transform="translate(170.6875,354.4375)"/>
<path d="M0 0 C-0.36569092 0.50249268 -0.73138184 1.00498535 -1.1081543 1.52270508 C-5.57102591 7.9001707 -8.69119188 14.57779633 -11.8125 21.6875 C-16.18589825 31.38376643 -20.62826345 40.45635325 -27 49 C-27.65355469 49.8765625 -28.30710937 50.753125 -28.98046875 51.65625 C-33.54378843 57.26703827 -38.28893045 60.38729353 -45 63 C-45.79277344 63.31839844 -46.58554687 63.63679688 -47.40234375 63.96484375 C-54.23636012 66.36837949 -60.82010084 66.30385153 -68 66 C-68.33 65.34 -68.66 64.68 -69 64 C-68.14277344 63.43152344 -67.28554687 62.86304688 -66.40234375 62.27734375 C-53.82884457 53.83797577 -45.45102205 43.69839081 -36.28076172 31.76220703 C-10.60175572 -1.63103934 -10.60175572 -1.63103934 0 0 Z " fill="#443F44" transform="translate(305,15)"/>
<path d="M0 0 C13.53 0 27.06 0 41 0 C41 0.33 41 0.66 41 1 C33.41 1 25.82 1 18 1 C18.07431412 6.53255827 18.15742483 12.06359216 18.26245117 17.59545898 C18.29553184 19.47395704 18.32361527 21.35255046 18.34643555 23.23120117 C18.38029386 25.94490889 18.43262215 28.65775576 18.48828125 31.37109375 C18.49467117 32.19959335 18.5010611 33.02809296 18.50764465 33.88169861 C18.69005789 41.25549022 20.62150525 47.46864042 24 54 C11.24268878 54.95679834 11.24268878 54.95679834 5.75823975 50.71556091 C1.60682282 46.66491388 -0.1864574 41.0083583 -0.45410156 35.30639648 C-0.45312094 33.6611598 -0.43178964 32.01581567 -0.390625 30.37109375 C-0.38458252 29.20519714 -0.38458252 29.20519714 -0.37841797 28.01574707 C-0.35773932 25.15608576 -0.30189687 22.29676514 -0.25 19.4375 C-0.1675 13.023125 -0.085 6.60875 0 0 Z " fill="#E6B180" transform="translate(121,443)"/>
<path d="M0 0 C21.78 0 43.56 0 66 0 C62.15290146 6.73242245 60.22640359 9.20287865 54 13 C53.33871094 13.41636719 52.67742187 13.83273437 51.99609375 14.26171875 C46.02320917 17.30692824 40.00712968 17.38375836 33.4375 17.4375 C32.10779175 17.45272705 32.10779175 17.45272705 30.7512207 17.46826172 C20.16282165 17.32869496 10.94635481 13.86318901 3.32421875 6.34765625 C0 2.51778169 0 2.51778169 0 0 Z " fill="#EEB784" transform="translate(221,359)"/>
<path d="M0 0 C3.99606603 1.64786228 5.71736479 4.95518612 8 8.49609375 C10.32117958 14.42574465 10.04518564 23.58600655 7.9140625 29.50390625 C5.87833533 32.85502636 3.46965522 36.04785656 -0.10546875 37.78125 C-4.26806714 38.50518015 -5.74455971 38.02185603 -9.29296875 35.65625 C-13.65194482 31.62819097 -15.66570403 26.55169176 -16.34375 20.73828125 C-16.57909003 13.93819297 -14.97193135 8.49577846 -10.78515625 3.0703125 C-7.38801193 -0.28970456 -4.48795643 -0.89244258 0 0 Z " fill="#050403" transform="translate(192.10546875,211.21875)"/>
<path d="M0 0 C5.08751146 1.66500375 7.37785391 4.32129249 10.05078125 8.87109375 C12.66599222 15.00763103 12.4870403 22.25889675 10.74609375 28.671875 C8.69392231 33.23988841 6.08396032 36.0295375 1.4375 38.125 C-2.22411551 38.32115797 -4.40828688 38.09168651 -7.26953125 35.6953125 C-12.75278839 29.69174628 -14.04919368 23.8879092 -13.875 15.875 C-13.23449356 10.23854331 -10.77469764 6.00087705 -6.75 2.0625 C-3.5625 0.125 -3.5625 0.125 0 0 Z " fill="#040302" transform="translate(319.5625,210.875)"/>
<path d="M0 0 C7.10612194 2.84244878 12.19779247 6.65975562 15.33984375 13.80078125 C17.38865241 20.6261024 16.34549474 26.73932679 13.20703125 33.02734375 C11.49525137 35.82491281 9.4915245 37.88220417 7 40 C6.29875 40.598125 5.5975 41.19625 4.875 41.8125 C3 43 3 43 0 43 C0 28.81 0 14.62 0 0 Z " fill="#E5AF7F" transform="translate(401,199)"/>
<path d="M0 0 C0 14.19 0 28.38 0 43 C-7.38074913 40.53975029 -10.86311218 37.0879593 -14.4375 30.25 C-15.95143414 21.50282499 -15.9507082 14.67679545 -10.86328125 7.13671875 C-8.40378069 4.3162852 -4.06578131 0 0 0 Z " fill="#EDB684" transform="translate(106,199)"/>
<path d="M0 0 C2.79297711 0.44099639 5.31340243 1.10446748 8 2 C6.69559077 8.28562933 5.04593138 14.29517526 2.99609375 20.375 C2.71274673 21.22553955 2.42939972 22.0760791 2.13746643 22.95239258 C1.54375906 24.73119236 0.94786283 26.50926296 0.34985352 28.28662109 C-0.56875872 31.01861372 -1.47919027 33.75323715 -2.38867188 36.48828125 C-2.96827254 38.22151391 -3.54833382 39.95459261 -4.12890625 41.6875 C-4.40182999 42.50718262 -4.67475372 43.32686523 -4.95594788 44.17138672 C-6.88445177 49.88445177 -6.88445177 49.88445177 -8 51 C-11.00003445 51.14177857 -13.99757235 51.04228771 -17 51 C-15.67327794 44.54282628 -13.92906303 38.41421138 -11.77734375 32.1875 C-11.47180069 31.29256836 -11.16625763 30.39763672 -10.85145569 29.47558594 C-10.21080836 27.60256388 -9.56782941 25.73033782 -8.92260742 23.85888672 C-7.93135205 20.98215798 -6.94855353 18.1026388 -5.96679688 15.22265625 C-5.34163852 13.3982686 -4.71600478 11.57404376 -4.08984375 9.75 C-3.79504623 8.88656982 -3.50024872 8.02313965 -3.19651794 7.13354492 C-1.1156902 1.1156902 -1.1156902 1.1156902 0 0 Z " fill="#635B63" transform="translate(303,401)"/>
<path d="M0 0 C0 3.93953221 -1.74331877 6.47415621 -3.625 9.8125 C-7.07565852 16.05683976 -9.90996353 22.31344022 -12.48046875 28.9765625 C-14.5970765 33.1880134 -17.28175956 36.07479361 -21.4375 38.3125 C-24.37536391 39.10070739 -26.97012998 39.04584398 -30 39 C-22.95878352 24.07486825 -14.95115782 8.37893258 0 0 Z " fill="#443F44" transform="translate(350,18)"/>
<path d="M0 0 C-0.70125 0.350625 -1.4025 0.70125 -2.125 1.0625 C-12.00779664 7.72264556 -15.23400206 17.93600826 -18 29 C-21.63 29 -25.26 29 -29 29 C-28.6287829 22.19435323 -26.66451213 17.70522846 -23 12 C-22.1646875 10.6696875 -22.1646875 10.6696875 -21.3125 9.3125 C-16.44375509 4.44375509 -7.10741653 -2.63237649 0 0 Z " fill="#EAB483" transform="translate(291,468)"/>
<path d="M0 0 C4.95 0 9.9 0 15 0 C15 4.95 15 9.9 15 15 C10.05 15 5.1 15 0 15 C0 10.05 0 5.1 0 0 Z " fill="#F1B986" transform="translate(346,444)"/>
<path d="M0 0 C0.33 0.66 0.66 1.32 1 2 C5.95 2 10.9 2 16 2 C16 4.31 16 6.62 16 9 C24.25 9 32.5 9 41 9 C41 9.33 41 9.66 41 10 C27.47 10 13.94 10 0 10 C0 6.7 0 3.4 0 0 Z " fill="#529161" transform="translate(345,419)"/>
<path d="M0 0 C0.99 0.33 1.98 0.66 3 1 C2.66266846 1.95140869 2.32533691 2.90281738 1.9777832 3.88305664 C0.69968191 7.48900404 -0.5765559 11.09560883 -1.85229492 14.70239258 C-2.39965603 16.24911571 -2.94749043 17.79567145 -3.49584961 19.34204102 C-4.29412261 21.59344893 -5.09050668 23.84551877 -5.88671875 26.09765625 C-6.28164017 27.20918564 -6.28164017 27.20918564 -6.68453979 28.34317017 C-7.9842866 32.02298129 -9.23833319 35.70871194 -10.40478516 39.43310547 C-10.62536087 40.12907333 -10.84593658 40.8250412 -11.07319641 41.542099 C-11.67045 43.44221344 -12.25330421 45.34683678 -12.83520508 47.25170898 C-13.2195874 48.15864502 -13.60396973 49.06558105 -14 50 C-15.485 50.495 -15.485 50.495 -17 51 C-15.67327794 44.54282628 -13.92906303 38.41421138 -11.77734375 32.1875 C-11.47180069 31.29256836 -11.16625763 30.39763672 -10.85145569 29.47558594 C-10.21080836 27.60256388 -9.56782941 25.73033782 -8.92260742 23.85888672 C-7.93135205 20.98215798 -6.94855353 18.1026388 -5.96679688 15.22265625 C-5.34163852 13.3982686 -4.71600478 11.57404376 -4.08984375 9.75 C-3.79504623 8.88656982 -3.50024872 8.02313965 -3.19651794 7.13354492 C-1.1156902 1.1156902 -1.1156902 1.1156902 0 0 Z " fill="#3F3A3F" transform="translate(303,401)"/>
<path d="M0 0 C-7.15370027 5.42839609 -14.36929531 10.77130747 -21.625 16.0625 C-22.41890137 16.64668701 -23.21280273 17.23087402 -24.03076172 17.83276367 C-24.77600098 18.37392822 -25.52124023 18.91509277 -26.2890625 19.47265625 C-26.95631348 19.96000244 -27.62356445 20.44734863 -28.31103516 20.94946289 C-30 22 -30 22 -32 22 C-30.42723103 18.02619911 -27.66753398 15.49472412 -24.5625 12.6875 C-24.03333984 12.20619629 -23.50417969 11.72489258 -22.95898438 11.22900391 C-7.50548256 -2.50182752 -7.50548256 -2.50182752 0 0 Z " fill="#423D42" transform="translate(417,33)"/>
</svg>
