<?xml version="1.0" encoding="UTF-8"?>
<svg version="1.1" xmlns="http://www.w3.org/2000/svg" width="512" height="512">
<path d="M0 0 C1.37285156 0.74056641 1.37285156 0.74056641 2.7734375 1.49609375 C19.09783156 10.82054537 33.64987701 24.10427482 45 39 C45.74894531 39.95648438 46.49789063 40.91296875 47.26953125 41.8984375 C74.23629429 76.90469549 80.83118955 123.74427308 82 167 C82.02191406 167.79164551 82.04382813 168.58329102 82.06640625 169.39892578 C82.73666399 198.48252617 79.02546603 227.15370689 74.6640625 255.84375 C74.495364 256.9534893 74.495364 256.9534893 74.32325745 258.08564758 C73.77742177 261.66665041 73.22575677 265.24659222 72.6628418 268.82495117 C67.49856641 302.04152103 71.80073286 327.93313829 89.125 356.5625 C97.52066009 370.53355207 102.83379067 385.65648258 104.93383789 401.8515625 C106.06984803 410.46944946 108.21225746 417.65813435 111.80224609 425.56860352 C114.67693555 431.97371742 116.86677139 438.46261896 118.875 445.1875 C119.16084961 446.14366211 119.44669922 447.09982422 119.74121094 448.08496094 C124.77645037 465.2337896 124.77645037 465.2337896 124 472 C122.35979256 474.68719026 121.70989397 475.58680568 119 477 C114.32167881 477.76675551 109.64438058 477.67498606 104.91723633 477.63491821 C103.44804575 477.64067921 101.97886238 477.64862018 100.5096941 477.65855443 C96.47148785 477.67945454 92.43387133 477.66909857 88.39566278 477.65362334 C84.04110852 477.64232657 79.6866568 477.6597642 75.3321228 477.67352295 C66.80122899 477.69577783 58.27055489 477.69094418 49.7396524 477.67645974 C42.80758721 477.66517634 35.87558369 477.66363271 28.94351196 477.66907883 C27.46465066 477.67022807 27.46465066 477.67022807 25.95591336 477.67140054 C23.95317767 477.67299914 21.950442 477.6746202 19.94770634 477.6762635 C1.15980866 477.69052759 -17.62796711 477.67411792 -36.4158448 477.64726166 C-52.54324145 477.62492229 -68.67045816 477.62880224 -84.79785156 477.65185547 C-103.51765691 477.67860181 -122.23735537 477.68915423 -140.95717716 477.67379415 C-142.95262208 477.67220137 -144.94806701 477.67062952 -146.94351196 477.66907883 C-147.92535672 477.66830745 -148.90720147 477.66753607 -149.9187991 477.66674132 C-156.84403462 477.66242082 -163.76920245 477.6697184 -170.69442749 477.68147659 C-179.13187303 477.69548719 -187.56908595 477.69173205 -196.00650477 477.66507287 C-200.31300586 477.6519152 -204.61911884 477.64681527 -208.92561722 477.66331863 C-212.86611882 477.67819125 -216.80587168 477.67007538 -220.74630511 477.64343087 C-222.1735493 477.63783436 -223.60085642 477.64071266 -225.02806032 477.65280981 C-237.03274168 477.74677676 -237.03274168 477.74677676 -240.35282898 474.69469261 C-242.55903398 471.08544728 -242.63778047 468.06859953 -242 464 C-241.75378906 463.27425781 -241.50757813 462.54851562 -241.25390625 461.80078125 C-240.44270221 459.3923879 -239.93827166 457.54849875 -240 455 C-241.63295586 452.60188768 -243.56528775 450.74886405 -245.625 448.70703125 C-257.40886019 435.2757564 -259.07887623 418.10179053 -258 401 C-256.72775789 387.34821053 -252.94353542 374.08255997 -249 361 C-248.75830078 360.18869629 -248.51660156 359.37739258 -248.26757812 358.54150391 C-241.93755096 337.76306107 -231.78230761 318.01929098 -220.70336914 299.40380859 C-200.27810931 264.83563265 -197.01143536 223.6690434 -199.5 184.375 C-202.38185165 138.63392299 -192.86807854 84.64177848 -167 46 C-166.35546875 45.03707031 -165.7109375 44.07414062 -165.046875 43.08203125 C-160.50998729 36.6071423 -155.43294426 30.73379133 -150 25 C-149.16726562 24.1028125 -148.33453125 23.205625 -147.4765625 22.28125 C-108.34067008 -18.57616261 -49.09822405 -26.58227855 0 0 Z " fill="#FEB2A8" transform="translate(275,27)"/>
<path d="M0 0 C1.37285156 0.74056641 1.37285156 0.74056641 2.7734375 1.49609375 C19.09783156 10.82054537 33.64987701 24.10427482 45 39 C45.74894531 39.95648438 46.49789063 40.91296875 47.26953125 41.8984375 C74.23629429 76.90469549 80.83118955 123.74427308 82 167 C82.02191406 167.79164551 82.04382813 168.58329102 82.06640625 169.39892578 C82.73666399 198.48252617 79.02546603 227.15370689 74.6640625 255.84375 C74.495364 256.9534893 74.495364 256.9534893 74.32325745 258.08564758 C73.77742177 261.66665041 73.22575677 265.24659222 72.6628418 268.82495117 C67.49856641 302.04152103 71.80073286 327.93313829 89.125 356.5625 C99.17828835 373.29197851 106.89790887 394.24600494 106 414 C102.85216643 410.24681382 100.18137556 406.29348305 97.52734375 402.1875 C96.17575279 400.25171755 94.78836478 398.7211527 93.125 397.0625 C90.1343717 392.75247687 90.54739801 389.08925793 91 384 C85.91696314 383.88679144 85.91696314 383.88679144 81 385 C73.52800619 382.04206786 68.52343248 377.16144812 65 370 C65 369.34 65 368.68 65 368 C58.48894226 365.76678203 51.93123377 363.76335558 45.3125 361.875 C44.40177734 361.61074219 43.49105469 361.34648437 42.55273438 361.07421875 C35.86608862 359.08150372 35.86608862 359.08150372 29 358 C27.64631404 359.31266518 26.31200404 360.64567325 25 362 C10.14543974 360.44182934 -5.54145503 351.10727596 -14.85546875 339.734375 C-21.54942433 330.28019577 -22.81395856 320.34000847 -24 309 C-24.25136719 307.54400391 -24.25136719 307.54400391 -24.5078125 306.05859375 C-24.83281485 303.32940736 -24.92641874 301.59397248 -24 299 C-21.52611816 296.78773461 -18.9834805 295.29744514 -16.07421875 293.703125 C-11.25438407 291.03292434 -7.19379648 287.54910828 -3 284 C-1.76443359 282.96746094 -1.76443359 282.96746094 -0.50390625 281.9140625 C15.51095015 268.07282936 25.22099842 250.87317832 32 231 C32.33 231 32.66 231 33 231 C33.10957031 231.62648438 33.21914063 232.25296875 33.33203125 232.8984375 C33.56986328 234.12433594 33.56986328 234.12433594 33.8125 235.375 C33.96332031 236.18710937 34.11414063 236.99921875 34.26953125 237.8359375 C34.87544942 240.35820641 34.87544942 240.35820641 38 242 C41.87338754 242.42255137 44.11598609 242.56667558 47.4375 240.4375 C49.56131051 237.12435561 49.34562567 234.8710075 49 231 C48.68666019 229.66182697 48.35792547 228.3269432 48 227 C48.556875 226.68289062 49.11375 226.36578125 49.6875 226.0390625 C60.28372477 219.55961425 66.06410173 210.81938948 69.578125 199.06640625 C71.25307208 190.86226733 70.43373439 183.12955438 66 176 C61.87704453 170.03660051 56.76865559 168.12534078 50 166 C47.5428432 165.71925273 47.5428432 165.71925273 45.25 165.6875 C40.43602412 165.33187295 38.15383588 163.09822772 34.9921875 159.59375 C25.17363293 146.81037699 25.17363293 146.81037699 24 140 C12.33331498 139.00709064 0.8719948 138.77012746 -10.81640625 139.296875 C-12.03626221 139.3498877 -13.25611816 139.40290039 -14.51293945 139.45751953 C-16.98719766 139.56840613 -19.46103996 139.68903882 -21.93432617 139.81982422 C-23.64519409 139.89740967 -23.64519409 139.89740967 -25.390625 139.9765625 C-26.42219727 140.02893066 -27.45376953 140.08129883 -28.51660156 140.13525391 C-31 140 -31 140 -33 138 C-33.375 135.5625 -33.375 135.5625 -33 133 C-26.48173617 127.15062895 -17.3884624 126.46669573 -9 126.5625 C-8.10514893 126.56572266 -7.21029785 126.56894531 -6.28833008 126.57226562 C2.78028538 126.75778002 11.28322164 128.61592387 20 131 C19.73445313 129.75347656 19.46890625 128.50695312 19.1953125 127.22265625 C17.44407765 118.83132261 15.835335 110.53614099 15 102 C13.95283233 91.94579099 11.90092225 81.00984079 4 74 C1.21275217 72.330481 -1.5979799 70.78516572 -4.47753906 69.28466797 C-9.14996824 66.75285195 -12.52998194 63.76303829 -16.125 59.875 C-21.37929226 54.25524485 -26.71570924 50.71147433 -34 48 C-34.69899414 47.73582275 -35.39798828 47.47164551 -36.11816406 47.19946289 C-43.25298475 44.75383871 -50.00414893 44.51664107 -57.5 44.5625 C-59.23830078 44.5325293 -59.23830078 44.5325293 -61.01171875 44.50195312 C-74.38633572 44.50950941 -85.30426076 49.88983569 -95 59 C-96.73461613 61.10437756 -98.32449279 63.14731058 -99.875 65.375 C-100.30208252 65.98512939 -100.72916504 66.59525879 -101.16918945 67.22387695 C-113.87853993 85.76376915 -120.33065343 106.17367192 -125 128 C-123.82179687 127.83886719 -122.64359375 127.67773438 -121.4296875 127.51171875 C-109.71350951 126.05557256 -96.52119459 125.95590949 -86 132 C-84.9375 134.5 -84.9375 134.5 -85 137 C-85.66 137.99 -86.32 138.98 -87 140 C-90.06349791 140.1233456 -92.89991332 140.06409394 -95.9453125 139.85546875 C-96.8303244 139.80683182 -97.7153363 139.75819489 -98.62716675 139.70808411 C-101.46082673 139.54901279 -104.29266471 139.3685067 -107.125 139.1875 C-109.04288727 139.07606263 -110.96085604 138.96601857 -112.87890625 138.85742188 C-117.58740031 138.59040338 -122.292821 138.29446349 -127 138 C-127 144.27 -127 150.54 -127 157 C-125.02 156.34 -123.04 155.68 -121 155 C-114.04717548 153.9926351 -105.32100755 153.48177703 -99.1875 157.25 C-97.44921875 158.640625 -97.44921875 158.640625 -96 160 C-95.175 160.66 -94.35 161.32 -93.5 162 C-92 164 -92 164 -91.625 166.625 C-92 169 -92 169 -94 171 C-98.13263259 170.65561395 -101.38108204 168.93570031 -105 167 C-104.5153125 167.35320312 -104.030625 167.70640625 -103.53125 168.0703125 C-100.65486678 171.69514237 -101.48313173 176.22186048 -101.59765625 180.65625 C-102 184 -102 184 -103.9375 187.375 C-108.0579061 189.56133793 -111.42969116 189.93968967 -116 189 C-119.03215675 186.80168636 -119.81654398 185.55036806 -121 182 C-121.11854556 180.16943607 -121.17517233 178.33435694 -121.1875 176.5 C-121.20167969 175.5409375 -121.21585938 174.581875 -121.23046875 173.59375 C-121 171 -121 171 -119 168 C-122.3 168.66 -125.6 169.32 -129 170 C-129.14695313 171.17433594 -129.29390625 172.34867188 -129.4453125 173.55859375 C-131.23874645 186.80092227 -134.58232578 198.71608362 -140.1875 210.875 C-145.07986895 221.66277589 -148.03294472 234.87398891 -144.18261719 246.45947266 C-134.41033939 269.76437121 -115.06465337 286.12715627 -94 299 C-94.78238444 317.90076098 -96.13766823 333.91914256 -110.625 347.625 C-116.6071836 352.61203774 -123.63393959 355.92417587 -131 358.35546875 C-138.20447529 360.48773518 -138.20447529 360.48773518 -143.546875 365.35546875 C-144.31123986 367.93325024 -144.67506243 370.33394597 -145 373 C-145.3403125 374.01449219 -145.680625 375.02898437 -146.03125 376.07421875 C-147.56204206 381.24142868 -147.25006368 386.53403768 -147.1875 391.875 C-147.18685547 392.91269531 -147.18621094 393.95039063 -147.18554688 395.01953125 C-147.1160306 407.26984443 -144.96754723 416.86945913 -140.79492188 428.41015625 C-137.28946185 438.69199378 -136.11677892 448.76292934 -140.8125 458.85546875 C-145.26886968 466.90332057 -152.81986494 472.31316973 -161.4230957 475.40014648 C-167.30307189 476.7688913 -173.42997465 476.49261491 -179.4375 476.4375 C-180.15309082 476.43379395 -180.86868164 476.43008789 -181.60595703 476.42626953 C-205.77057665 476.2475932 -225.03765643 469.63474742 -242.47607422 452.57226562 C-254.51549123 440.15095105 -258.38649326 424.90544742 -258.30053711 408.09838867 C-257.9286686 391.92460967 -253.64332347 376.40408576 -249 361 C-248.75830078 360.18869629 -248.51660156 359.37739258 -248.26757812 358.54150391 C-241.93755096 337.76306107 -231.78230761 318.01929098 -220.70336914 299.40380859 C-200.27810931 264.83563265 -197.01143536 223.6690434 -199.5 184.375 C-202.38185165 138.63392299 -192.86807854 84.64177848 -167 46 C-166.35546875 45.03707031 -165.7109375 44.07414062 -165.046875 43.08203125 C-160.50998729 36.6071423 -155.43294426 30.73379133 -150 25 C-149.16726562 24.1028125 -148.33453125 23.205625 -147.4765625 22.28125 C-108.34067008 -18.57616261 -49.09822405 -26.58227855 0 0 Z " fill="#9E5969" transform="translate(275,27)"/>
<path d="M0 0 C1.01126953 0.30421875 2.02253906 0.6084375 3.06445312 0.921875 C5.90901027 1.79027209 8.73844911 2.69223291 11.5625 3.625 C12.27631836 3.85815918 12.99013672 4.09131836 13.72558594 4.33154297 C18.14428839 5.96667296 19.7998785 7.87178917 21.9375 12 C25.1683767 17.44984571 28.35139172 20.85648546 34.5625 22.625 C37.32551285 22.5769476 39.82556335 22.09688563 42.5625 21.625 C44.5625 22.5625 44.5625 22.5625 45.5625 24.625 C45.43875 25.78 45.315 26.935 45.1875 28.125 C44.91619627 33.79107415 48.74497269 36.97707533 52.29296875 41 C58.5625 48.25150602 58.5625 48.25150602 58.5625 52.625 C59.2225 52.625 59.8825 52.625 60.5625 52.625 C79.40509259 94.56812169 79.40509259 94.56812169 77.5625 110.625 C75.92229256 113.31219026 75.27239397 114.21180568 72.5625 115.625 C67.88417881 116.39175551 63.20688058 116.29998606 58.47973633 116.25991821 C57.01054575 116.26567921 55.54136238 116.27362018 54.0721941 116.28355443 C50.03398785 116.30445454 45.99637133 116.29409857 41.95816278 116.27862334 C37.60360852 116.26732657 33.2491568 116.2847642 28.8946228 116.29852295 C20.36372899 116.32077783 11.83305489 116.31594418 3.3021524 116.30145974 C-3.62991279 116.29017634 -10.56191631 116.28863271 -17.49398804 116.29407883 C-18.97284934 116.29522807 -18.97284934 116.29522807 -20.48158664 116.29640054 C-22.48432233 116.29799914 -24.487058 116.2996202 -26.48979366 116.3012635 C-45.27769134 116.31552759 -64.06546711 116.29911792 -82.8533448 116.27226166 C-98.98074145 116.24992229 -115.10795816 116.25380224 -131.23535156 116.27685547 C-149.95515691 116.30360181 -168.67485537 116.31415423 -187.39467716 116.29879415 C-189.39012208 116.29720137 -191.38556701 116.29562952 -193.38101196 116.29407883 C-194.36285672 116.29330745 -195.34470147 116.29253607 -196.3562991 116.29174132 C-203.28153462 116.28742082 -210.20670245 116.2947184 -217.13192749 116.30647659 C-225.56937303 116.32048719 -234.00658595 116.31673205 -242.44400477 116.29007287 C-246.75050586 116.2769152 -251.05661884 116.27181527 -255.36311722 116.28831863 C-259.30361882 116.30319125 -263.24337168 116.29507538 -267.18380511 116.26843087 C-268.6110493 116.26283436 -270.03835642 116.26571266 -271.46556032 116.27780981 C-283.47040347 116.37177803 -283.47040347 116.37177803 -286.78642273 113.31969261 C-289.01796191 109.67763887 -289.13449587 106.71985073 -288.4375 102.625 C-287.5988063 99.55614351 -286.59027419 96.58927648 -285.4375 93.625 C-284.96441406 93.98851562 -284.49132812 94.35203125 -284.00390625 94.7265625 C-281.82949816 96.37962128 -279.63802037 98.00686191 -277.4375 99.625 C-276.74011719 100.13933594 -276.04273438 100.65367187 -275.32421875 101.18359375 C-261.24525357 111.09292025 -245.20887124 114.17743459 -228.25878906 114.07104492 C-226.17415154 114.06244493 -224.09218822 114.09159104 -222.0078125 114.12304688 C-211.36494541 114.17829621 -201.3421246 112.27837736 -193.4375 104.625 C-187.43089267 97.13408093 -184.87305455 90.16006607 -184.97265625 80.54296875 C-185.73914025 74.08260359 -187.89269067 68.1276217 -190.02734375 62.0078125 C-191.33086909 58.20288276 -192.01660889 54.62080165 -192.4375 50.625 C-187.81391955 51.06957504 -183.51350858 51.82304016 -179.02709961 53.03271484 C-156.58454888 58.7120333 -133.46556563 59.24207457 -110.4597168 59.01623535 C-107.65999163 58.99443166 -104.86045576 58.99539441 -102.06066036 58.99624443 C-81.71206874 58.99478281 -61.60352998 58.10798603 -41.5 54.75 C-40.45714844 54.57927979 -39.41429687 54.40855957 -38.33984375 54.23266602 C-28.35340499 52.54063991 -18.78441485 50.13000456 -9.1875 46.875 C-5.4375 45.625 -5.4375 45.625 -2.4375 45.625 C-10.74140454 25.21795728 -10.74140454 25.21795728 -21.16796875 5.8515625 C-22.4375 3.625 -22.4375 3.625 -22.375 1 C-18.60571332 -8.54885958 -7.2133366 -2.21666979 0 0 Z " fill="#FEE1D1" transform="translate(321.4375,388.375)"/>
<path d="M0 0 C4.00382589 1.28335335 7.83746724 2.75146928 11.6875 4.4375 C28.12538692 11.29676639 40.46605674 11.00428356 57 5 C60.05377381 3.72615974 63.03282657 2.38829216 65.99609375 0.91796875 C68 0 68 0 70 0 C70.06993164 0.66942627 70.13986328 1.33885254 70.21191406 2.02856445 C70.54365773 5.12492762 70.89671487 8.21852351 71.25 11.3125 C71.41435547 12.8912793 71.41435547 12.8912793 71.58203125 14.50195312 C73.19195469 28.27103518 77.80876352 39.65162445 88.80859375 48.53515625 C96.01602032 53.35295476 103.58452754 56.60459961 111.875 58.9375 C117.77111488 61.11276568 119.79901251 63.97589579 122.375 69.4375 C123.32265613 71.57909993 124.23078964 73.73125601 125.11474609 75.89990234 C126.46841682 79.11123041 128.08094475 82.15729513 129.6875 85.25 C138 101.89406537 138 101.89406537 138 107 C123.32594122 112.58189687 108.4627201 115.467137 93 118 C92.23042969 118.12890625 91.46085938 118.2578125 90.66796875 118.390625 C77.06322431 120.6446655 63.3486062 121.15325191 49.58203125 121.2734375 C48.60168128 121.28276275 48.60168128 121.28276275 47.60152626 121.29227638 C42.67188087 121.33757916 37.74232489 121.36092834 32.8125 121.375 C32.09052177 121.37744846 31.36854355 121.37989693 30.62468719 121.38241959 C12.86410376 121.43418488 -4.7728713 121.37122386 -22.375 118.6875 C-23.42534927 118.5274649 -23.42534927 118.5274649 -24.49691772 118.36419678 C-31.68067171 117.22854206 -38.66479438 115.68921599 -45.61962891 113.56176758 C-48.15649921 112.96306619 -50.4027973 112.90144156 -53 113 C-54.96911562 97.53523829 -56.53200984 79.59621953 -50 65 C-47.29783313 61.88497625 -44.96398513 60.30907732 -41.11328125 58.88671875 C-40.17419922 58.52513672 -39.23511719 58.16355469 -38.26757812 57.79101562 C-36.31850368 57.06317223 -34.36800632 56.3391264 -32.41601562 55.61914062 C-20.59610118 51.05070743 -11.40264378 43.58969522 -5.859375 32.08984375 C-3.08758227 25.3493478 -2.20642864 18.82788686 -1.375 11.625 C-1.2409375 10.50738281 -1.106875 9.38976562 -0.96875 8.23828125 C-0.64023113 5.49280212 -0.31749805 2.74677171 0 0 Z " fill="#FEA29B" transform="translate(181,327)"/>
<path d="M0 0 C2.94782401 1.55176892 4.88447197 1.79573656 8.14453125 1.12890625 C11.32741479 -0.74287491 11.32741479 -0.74287491 14.14453125 -2.87109375 C20.6627675 -5.04383917 30.29722962 -5.23811758 36.64453125 -2.30859375 C42.14530648 1.09493602 47.33058215 5.81409394 49.671875 11.96875 C50.54691907 15.96791836 50.56867401 20.05860548 50.640625 24.140625 C51.38602523 28.56102173 53.71694993 30.03870255 57.14453125 32.65625 C57.80453125 33.12160156 58.46453125 33.58695313 59.14453125 34.06640625 C64.47115229 38.01937177 68.49434001 42.5520571 70.14453125 49.12890625 C71.0739723 58.24747656 70.13354896 65.62073679 64.39453125 72.87890625 C61.34383578 76.21179106 58.20695083 78.17581991 54.14453125 80.12890625 C53.48453125 80.12890625 52.82453125 80.12890625 52.14453125 80.12890625 C51.95890625 82.01609375 51.95890625 82.01609375 51.76953125 83.94140625 C51.56555879 85.67109275 51.35686905 87.40022675 51.14453125 89.12890625 C51.04527344 90.0415625 50.94601562 90.95421875 50.84375 91.89453125 C49.7093802 100.09866028 46.64519479 104.80776392 40.70703125 110.44140625 C33.54990975 115.1546326 27.66612772 115.98784701 19.14453125 115.12890625 C15.0417709 114.10649313 11.67530643 112.48275637 8.14453125 110.12890625 C3.74895633 109.37844224 1.30435812 110.49581959 -2.41796875 112.62890625 C-8.53015555 115.84584667 -14.07471528 116.15225923 -20.85546875 115.12890625 C-29.34326174 112.47866002 -34.30281436 107.5300345 -38.66796875 100.00390625 C-40.42728646 95.54967991 -40.31718711 90.75066512 -40.44921875 86.01953125 C-40.61755658 83.16999234 -40.61755658 83.16999234 -42.11328125 81.41015625 C-44.09489778 79.95282392 -46.12805002 78.65614356 -48.23046875 77.37890625 C-53.78568421 73.72059363 -56.72919193 69.97141442 -59.16796875 63.81640625 C-60.76072105 55.2734621 -60.29670269 48.71114446 -55.85546875 41.12890625 C-52.52071675 36.26969619 -48.68853782 33.46980309 -43.74609375 30.42578125 C-41.71903003 29.25986837 -41.71903003 29.25986837 -40.85546875 27.12890625 C-40.72542881 25.08872413 -40.62590654 23.04654542 -40.54296875 21.00390625 C-39.78696268 11.04434801 -36.67647092 6.36237461 -29.26953125 -0.20703125 C-20.18028541 -6.47243372 -9.13380482 -5.17926574 0 0 Z " fill="#FEB05A" transform="translate(431.85546875,13.87109375)"/>
<path d="M0 0 C8.0294822 27.68242882 8.0294822 27.68242882 10.5 41.375 C10.65952148 42.25172363 10.81904297 43.12844727 10.98339844 44.03173828 C11.78558615 48.75871739 12.02152859 53.19251705 12 58 C-25.87829272 58.1143953 -63.75655945 58.20252339 -101.6349899 58.25532665 C-106.10488613 58.26158033 -110.57478201 58.26805193 -115.04467773 58.2746582 C-116.37951521 58.27662553 -116.37951521 58.27662553 -117.7413191 58.2786326 C-132.15834811 58.30040082 -146.57527764 58.33983012 -160.9922476 58.38576398 C-175.78073783 58.43248925 -190.56917587 58.46028707 -205.35773689 58.47044247 C-214.48623351 58.47730981 -223.61444895 58.49901464 -232.74285904 58.53958233 C-238.99896771 58.56597224 -245.25493059 58.57400954 -251.5110909 58.56750689 C-255.12295356 58.56429808 -258.73432424 58.56928405 -262.34609985 58.59602737 C-266.25941498 58.62479233 -270.17208548 58.61496319 -274.085495 58.60127258 C-275.23043338 58.61583679 -276.37537176 58.630401 -277.55500525 58.64540654 C-285.20086778 58.57277687 -285.20086778 58.57277687 -289.21340656 55.69679546 C-291.61393273 52.07329168 -291.70710985 49.15427039 -291 45 C-290.1613063 41.93114351 -289.15277419 38.96427648 -288 36 C-287.52691406 36.36351562 -287.05382812 36.72703125 -286.56640625 37.1015625 C-284.39199816 38.75462128 -282.20052037 40.38186191 -280 42 C-279.30261719 42.51433594 -278.60523438 43.02867187 -277.88671875 43.55859375 C-263.80775357 53.46792025 -247.77137124 56.55243459 -230.82128906 56.44604492 C-228.73665154 56.43744493 -226.65468822 56.46659104 -224.5703125 56.49804688 C-213.92744541 56.55329621 -203.9046246 54.65337736 -196 47 C-188.98716904 38.25420619 -186.94536956 30.1349353 -188 19 C-189.07638374 14.52598759 -190.46976434 10.35160765 -192 6 C-186.72 6.99 -181.44 7.98 -176 9 C-177.1207299 17.96583917 -177.1207299 17.96583917 -177.75390625 21.03515625 C-177.95209961 22.03192383 -177.95209961 22.03192383 -178.15429688 23.04882812 C-178.42734775 24.39579203 -178.70341077 25.74214869 -178.98242188 27.08789062 C-179.84376561 31.4540123 -180.30536876 35.55272046 -180 40 C-179.34 40.66 -178.68 41.32 -178 42 C-174.40320934 41.67673447 -174.40320934 41.67673447 -171 41 C-169.2578628 35.28922737 -168.05861158 29.54882479 -166.9375 23.6875 C-166.59511875 21.89922616 -166.25019165 20.11143728 -165.90234375 18.32421875 C-165.75273193 17.54135498 -165.60312012 16.75849121 -165.44897461 15.9519043 C-165 14 -165 14 -164 12 C-162.82050781 12.06058594 -161.64101562 12.12117188 -160.42578125 12.18359375 C-144.95587329 12.95825816 -129.48080233 13.49527943 -114 14 C-113.98018066 14.86802246 -113.96036133 15.73604492 -113.93994141 16.63037109 C-113.86190128 19.84726267 -113.77521119 23.06377045 -113.68261719 26.28027344 C-113.64430673 27.67308572 -113.60945741 29.06599765 -113.578125 30.45898438 C-113.53252093 32.45986308 -113.47348377 34.46042146 -113.4140625 36.4609375 C-113.3826416 37.66540527 -113.3512207 38.86987305 -113.31884766 40.11083984 C-113.29084774 43.1260018 -113.29084774 43.1260018 -111 45 C-108 45.33333333 -108 45.33333333 -105 45 C-102.20822431 42.20822431 -102.68786516 40.36816428 -102.5859375 36.4609375 C-102.52792969 34.50800781 -102.52792969 34.50800781 -102.46875 32.515625 C-102.43729237 31.13542138 -102.40604509 29.75521296 -102.375 28.375 C-102.33682066 26.98695459 -102.29776895 25.59893289 -102.2578125 24.2109375 C-102.16327057 20.80742815 -102.07772103 17.40392835 -102 14 C-96.16515758 13.71268979 -90.3301976 13.42794338 -84.49511719 13.14550781 C-82.51266147 13.04919679 -80.53023885 12.95220165 -78.54785156 12.85449219 C-75.68823675 12.71366694 -72.82850946 12.57535289 -69.96875 12.4375 C-69.09134155 12.39375244 -68.21393311 12.35000488 -67.30993652 12.30493164 C-62.19950403 12.06140271 -57.11626487 11.95857275 -52 12 C-51.82984375 12.7528125 -51.6596875 13.505625 -51.484375 14.28125 C-49.44506104 23.21951971 -47.24762419 32.11218659 -45 41 C-42.14221967 41.68493373 -42.14221967 41.68493373 -39 42 C-38.01 41.34 -37.02 40.68 -36 40 C-36.34675077 31.91711992 -37.12204127 24.40673801 -39.37890625 16.62109375 C-40.004228 13.98215729 -40.11232862 11.70077069 -40 9 C-38.8140625 8.76925781 -37.628125 8.53851563 -36.40625 8.30078125 C-27.48245094 6.51787477 -18.77909902 4.54128559 -10.16601562 1.57543945 C-6.61660082 0.3786857 -3.7265453 -0.09683462 0 0 Z " fill="#F6CEBA" transform="translate(324,446)"/>
<path d="M0 0 C0.99 3.63 1.98 7.26 3 11 C-9.49730739 16.46757198 -22.5146211 19.24505343 -36 21 C-35.72285156 22.06476563 -35.44570313 23.12953125 -35.16015625 24.2265625 C-30.11429009 44.18361006 -30.11429009 44.18361006 -31 52 C-32.8046875 53.890625 -32.8046875 53.890625 -35 55 C-38.125 54.875 -38.125 54.875 -41 54 C-43.08454176 50.87318736 -43.5777832 48.95051657 -44.2890625 45.30859375 C-44.61777344 43.64473633 -44.61777344 43.64473633 -44.953125 41.94726562 C-45.17484375 40.78904297 -45.3965625 39.63082031 -45.625 38.4375 C-45.85445312 37.27541016 -46.08390625 36.11332031 -46.3203125 34.91601562 C-48 26.3226144 -48 26.3226144 -48 24 C-48.55534424 24.06058594 -49.11068848 24.12117188 -49.68286133 24.18359375 C-65.82336589 25.89175746 -81.77762912 26.24360728 -98 26 C-97.98428955 26.86278564 -97.9685791 27.72557129 -97.95239258 28.61450195 C-97.90124045 31.81809267 -97.8636384 35.02147515 -97.83520508 38.2253418 C-97.82012603 39.61147919 -97.7996595 40.99756894 -97.77368164 42.38354492 C-97.73726284 44.37658146 -97.72186982 46.36996723 -97.70703125 48.36328125 C-97.6913208 49.56251221 -97.67561035 50.76174316 -97.65942383 51.99731445 C-98 55 -98 55 -99.33081055 56.89135742 C-101.94163255 58.62541369 -103.95478391 58.38065201 -107 58 C-108.66918945 56.89135742 -108.66918945 56.89135742 -110 55 C-110.34057617 51.99731445 -110.34057617 51.99731445 -110.29296875 48.36328125 C-110.28330078 47.06455078 -110.27363281 45.76582031 -110.26367188 44.42773438 C-110.23860585 43.05598361 -110.21321101 41.68423882 -110.1875 40.3125 C-110.1724502 38.92905076 -110.1587623 37.54558599 -110.14648438 36.16210938 C-110.11107223 32.77434793 -110.06168054 29.38736861 -110 26 C-110.76852295 26.01047363 -111.5370459 26.02094727 -112.32885742 26.03173828 C-128.3703377 26.22058813 -144.06428048 25.95060173 -160 24 C-160.13051758 24.79696289 -160.26103516 25.59392578 -160.39550781 26.41503906 C-160.99707071 30.02968408 -161.62322766 33.63964468 -162.25 37.25 C-162.45496094 38.50425781 -162.65992188 39.75851562 -162.87109375 41.05078125 C-163.19013672 42.85869141 -163.19013672 42.85869141 -163.515625 44.703125 C-163.70415039 45.81333008 -163.89267578 46.92353516 -164.08691406 48.06738281 C-165.12677658 51.40717654 -166.27525506 52.84671786 -169 55 C-171.87523324 55.49089348 -173.29445572 55.41359492 -175.8125 53.9375 C-179.42538946 48.04278562 -175.86354245 38.77214603 -174.5 32.5625 C-174.14228516 30.8928418 -174.14228516 30.8928418 -173.77734375 29.18945312 C-173.19123786 26.45819969 -172.59862748 23.72853132 -172 21 C-172.60473145 20.93288818 -173.20946289 20.86577637 -173.83251953 20.79663086 C-174.63286621 20.70776611 -175.43321289 20.61890137 -176.2578125 20.52734375 C-177.04816895 20.43960693 -177.83852539 20.35187012 -178.65283203 20.26147461 C-184.86001071 19.56999465 -184.86001071 19.56999465 -188 18 C-190.03488653 13.82884469 -191 9.62984219 -191 5 C-186.37641955 5.44457504 -182.07600858 6.19804016 -177.58959961 7.40771484 C-155.14704888 13.0870333 -132.02806563 13.61707457 -109.0222168 13.39123535 C-106.22249163 13.36943166 -103.42295576 13.37039441 -100.62316036 13.37124443 C-80.27456874 13.36978281 -60.16602998 12.48298603 -40.0625 9.125 C-39.01964844 8.95427979 -37.97679687 8.78355957 -36.90234375 8.60766602 C-26.26484473 6.80532922 -15.96366885 4.27252415 -5.83203125 0.515625 C-4 0 -4 0 0 0 Z " fill="#F7EEE6" transform="translate(320,434)"/>
<path d="M0 0 C3 1 3 1 4.65625 3.921875 C5.27417453 5.19630204 5.88851655 6.47246996 6.5 7.75 C16.40887945 27.26014551 33.65322851 40.78808409 52 52 C51.21761556 70.90076098 49.86233177 86.91914256 35.375 100.625 C27.32862518 107.353302 14.64138908 114 4 114 C4.18175781 113.28457031 4.36351562 112.56914062 4.55078125 111.83203125 C5.0863245 109.70908286 5.61286755 107.58385369 6.1328125 105.45703125 C6.67414193 103.29902878 7.2471225 101.14842921 7.8671875 99.01171875 C14.64188563 74.13889846 6.87230185 47.47618071 1.61669922 23.02587891 C0.48170805 17.45696339 -0.11622151 12.31948038 -0.0625 6.625 C-0.05347656 5.37976563 -0.04445312 4.13453125 -0.03515625 2.8515625 C-0.02355469 1.91054688 -0.01195312 0.96953125 0 0 Z " fill="#894255" transform="translate(129,274)"/>
<path d="M0 0 C8.61044186 -0.35651767 16.07608023 1.0222452 22.9921875 6.609375 C28.96776012 13.09034431 30.61246679 20.18605622 30.33984375 28.85546875 C29.12567101 40.09005556 23.90294602 49.60329369 15.5859375 57.20703125 C12.4371217 59.72505822 9.84271606 61.71909465 6 63 C5.34 62.67 4.68 62.34 4 62 C-0.62852829 61.73800783 -3.77923473 62.16204197 -8 64 C-7.74605469 62.87207031 -7.49210937 61.74414062 -7.23046875 60.58203125 C-2.77392391 40.39394831 -0.48860369 20.67522451 0 0 Z " fill="#FDA29B" transform="translate(316,192)"/>
<path d="M0 0 C6.73324042 4.48882695 11.11265638 12.03812098 15 19 C15 19.66 15 20.32 15 21 C15.66 21 16.32 21 17 21 C35.84259259 62.94312169 35.84259259 62.94312169 34 79 C31.99656967 81.75570655 30.45203144 83.711928 26.99536133 84.39770508 C24.70624777 84.49184776 22.47494507 84.43713028 20.1875 84.3125 C19.39923828 84.28994141 18.61097656 84.26738281 17.79882812 84.24414062 C15.86506071 84.18554161 13.93227833 84.09586827 12 84 C11.77957031 82.41251953 11.77957031 82.41251953 11.5546875 80.79296875 C8.14401422 57.28227195 3.28605853 33.77081569 -6.3359375 11.9453125 C-7 10 -7 10 -7 6 C-5.46875 4.296875 -5.46875 4.296875 -3.5 2.75 C-2.8503125 2.22921875 -2.200625 1.7084375 -1.53125 1.171875 C-0.77328125 0.59179688 -0.77328125 0.59179688 0 0 Z " fill="#F6CDB9" transform="translate(365,420)"/>
<path d="M0 0 C4.00382589 1.28335335 7.83746724 2.75146928 11.6875 4.4375 C28.12538692 11.29676639 40.46605674 11.00428356 57 5 C60.05377381 3.72615974 63.03282657 2.38829216 65.99609375 0.91796875 C68 0 68 0 70 0 C70.99 10.395 70.99 10.395 72 21 C71.34 20.67 70.68 20.34 70 20 C68.22468208 20.56448602 68.22468208 20.56448602 66.2890625 21.546875 C65.54470947 21.89621094 64.80035645 22.24554688 64.03344727 22.60546875 C63.23865967 22.98316406 62.44387207 23.36085938 61.625 23.75 C44.13887557 31.75790724 31.00259392 32.68349512 13 26 C3.22055385 22.32289129 3.22055385 22.32289129 -1 20 C-1.97961897 17.06114308 -2.03775226 15.94241475 -1.66015625 12.98828125 C-1.56669922 12.23095703 -1.47324219 11.47363281 -1.37695312 10.69335938 C-1.27318359 9.90767578 -1.16941406 9.12199219 -1.0625 8.3125 C-0.96259766 7.51521484 -0.86269531 6.71792969 -0.75976562 5.89648438 C-0.51251153 3.93022565 -0.25704363 1.96500294 0 0 Z " fill="#FE6C73" transform="translate(181,327)"/>
<path d="M0 0 C3.6875 0.375 3.6875 0.375 5.875 2.5 C7.09639018 4.43737753 8.28351151 6.39673402 9.4375 8.375 C11.94139989 11.71353319 14.27747672 13.21968533 17.8828125 15.19921875 C19.6875 16.375 19.6875 16.375 21.6875 19.375 C21.640625 22.3203125 21.640625 22.3203125 20.6875 25.375 C18.359375 27.4296875 18.359375 27.4296875 15.4375 29.25 C10.28797638 32.72091268 7.49406629 35.91173262 4.6875 41.375 C3.6875 42.375 3.6875 42.375 0.375 42.75 C-3.3125 42.375 -3.3125 42.375 -5.5 40.25 C-6.70613492 38.33682047 -7.87342159 36.39858094 -9 34.4375 C-11.27345513 31.42670807 -12.84366322 30.28778004 -16 28.375 C-20.15118817 25.75139428 -20.15118817 25.75139428 -21.625 22.3125 C-21.20885873 18.4007721 -20.16010749 17.08022711 -17.3125 14.375 C-16.19875 13.7975 -15.085 13.22 -13.9375 12.625 C-9.16977244 10.14865874 -7.01415996 5.8445247 -4.3125 1.375 C-3.3125 0.375 -3.3125 0.375 0 0 Z " fill="#FFB172" transform="translate(47.3125,56.625)"/>
<path d="M0 0 C1.70363822 0.22622081 3.41328701 0.40888473 5.125 0.5625 C6.03507812 0.64628906 6.94515625 0.73007813 7.8828125 0.81640625 C8.58148438 0.87699219 9.28015625 0.93757812 10 1 C10.495 2.485 10.495 2.485 11 4 C9.0180857 7.30319049 7.68165083 9.43512115 3.9765625 10.6796875 C-1.61229479 11.48369855 -6.6174126 10.53969994 -12 9 C-11.01 10.485 -11.01 10.485 -10 12 C-9.27114496 17.31680571 -8.72456101 23.18567439 -12.0625 27.6875 C-15.61544593 30.48449999 -17.48311718 31.15848712 -22 31 C-26.04673317 28.93845668 -28.35000993 27.22002069 -30 23 C-30.265625 20.5625 -30.265625 20.5625 -30.25 18 C-30.25515625 17.154375 -30.2603125 16.30875 -30.265625 15.4375 C-29.98531155 12.86521189 -29.2948187 11.2196892 -28 9 C-29.0828125 9.7734375 -29.0828125 9.7734375 -30.1875 10.5625 C-33 12 -33 12 -35.75 11.75 C-38 11 -38 11 -39 10 C-39.28515625 7.6640625 -39.28515625 7.6640625 -39 5 C-28.73646069 -8.06268639 -13.63659138 -6.81829569 0 0 Z " fill="#8B4457" transform="translate(288,186)"/>
<path d="M0 0 C1.94887274 1.20785649 3.57272073 2.45746867 5.2421875 4.0234375 C6.0671875 4.6834375 6.8921875 5.3434375 7.7421875 6.0234375 C9.2421875 8.0234375 9.2421875 8.0234375 9.6171875 10.6484375 C9.2421875 13.0234375 9.2421875 13.0234375 7.2421875 15.0234375 C3.10955491 14.67905145 -0.13889454 12.95913781 -3.7578125 11.0234375 C-3.03078125 11.55324219 -3.03078125 11.55324219 -2.2890625 12.09375 C0.58732072 15.71857987 -0.24094423 20.24529798 -0.35546875 24.6796875 C-0.7578125 28.0234375 -0.7578125 28.0234375 -2.6953125 31.3984375 C-6.8157186 33.58477543 -10.18750366 33.96312717 -14.7578125 33.0234375 C-17.78996925 30.82512386 -18.57435648 29.57380556 -19.7578125 26.0234375 C-19.87635806 24.19287357 -19.93298483 22.35779444 -19.9453125 20.5234375 C-19.95949219 19.564375 -19.97367188 18.6053125 -19.98828125 17.6171875 C-19.7578125 15.0234375 -19.7578125 15.0234375 -17.7578125 12.0234375 C-21.0578125 12.3534375 -24.3578125 12.6834375 -27.7578125 13.0234375 C-28.19333406 6.31640542 -28.19333406 6.31640542 -27.7578125 3.0234375 C-21.30563927 -2.73120349 -7.98804751 -2.82862872 0 0 Z " fill="#8B4456" transform="translate(173.7578125,182.9765625)"/>
<path d="M0 0 C0.66 -0.33 1.32 -0.66 2 -1 C6.50187328 -1.09002102 11.00117892 -0.85522928 15.5 -0.6875 C16.76199219 -0.65205078 18.02398437 -0.61660156 19.32421875 -0.58007812 C21.12826172 -0.51530273 21.12826172 -0.51530273 22.96875 -0.44921875 C24.63067383 -0.39254028 24.63067383 -0.39254028 26.32617188 -0.3347168 C29 0 29 0 31 2 C31.0625 4.4375 31.0625 4.4375 30 7 C23.04868698 10.67239178 16.82138014 11.20458157 9.09375 11.62109375 C6.14165893 11.98265036 4.59453315 12.70004757 2 14 C-0.32421875 14.01171875 -0.32421875 14.01171875 -2.6875 13.6875 C-3.47511719 13.58824219 -4.26273438 13.48898437 -5.07421875 13.38671875 C-7 13 -7 13 -8 12 C-10.33181936 11.86615833 -12.66574938 11.76855037 -15 11.6875 C-21.13044746 11.36384736 -26.9687006 10.82733607 -32 7 C-33.1875 4.375 -33.1875 4.375 -33 2 C-30.07463661 -0.92536339 -26.87042704 -0.46537631 -22.9375 -0.625 C-22.16760742 -0.66222168 -21.39771484 -0.69944336 -20.60449219 -0.73779297 C-6.52145864 -1.38333971 -6.52145864 -1.38333971 0 0 Z " fill="#FF6E74" transform="translate(217,266)"/>
<path d="M0 0 C3.53195425 0.88298856 4.4152655 2.69334211 6.5 5.625 C9.0000206 8.25322679 11.32183297 10.50226271 14.3125 12.5625 C16.5 14.625 16.5 14.625 17.125 17.625 C16.29536913 21.60722818 14.8031033 22.34952884 11.5 24.625 C8.84384616 27.15158536 6.63092891 29.42424234 4.625 32.5 C2.5 34.625 2.5 34.625 -0.9375 34.9375 C-5.36694339 33.30559981 -6.08060864 31.63275042 -8.23828125 27.6328125 C-10.14452639 24.599345 -12.4165034 23.3769867 -15.5 21.625 C-16.5 20.625 -16.5 20.625 -16.875 17.8125 C-16.5 14.625 -16.5 14.625 -14.3125 12.5625 C-12.9203125 11.6034375 -12.9203125 11.6034375 -11.5 10.625 C-8.8741268 8.12721817 -6.60231562 5.76888134 -4.5 2.8125 C-2.5 0.625 -2.5 0.625 0 0 Z " fill="#FFCBA4" transform="translate(399.5,211.375)"/>
<path d="M0 0 C0.89364258 0.00427002 1.78728516 0.00854004 2.70800781 0.01293945 C9.46414383 0.17989601 15.86276917 1.15062647 22.4375 2.6875 C23.28159424 2.8834375 24.12568848 3.079375 24.99536133 3.28125 C30.94454664 4.82247135 35.95567779 7.29884752 41.1875 10.5 C40.8575 11.82 40.5275 13.14 40.1875 14.5 C35.52595279 14.59429173 31.21728348 14.28074241 26.625 13.5 C17.13114125 12.10267841 7.92169181 12.37167198 -1.62890625 12.80078125 C-2.84876221 12.85322998 -4.06861816 12.90567871 -5.32543945 12.9597168 C-7.79972279 13.06914972 -10.27357082 13.1889602 -12.74682617 13.31958008 C-13.88740479 13.37138428 -15.0279834 13.42318848 -16.203125 13.4765625 C-17.7504834 13.55511475 -17.7504834 13.55511475 -19.32910156 13.63525391 C-21.8125 13.5 -21.8125 13.5 -23.8125 11.5 C-24.1875 9.0625 -24.1875 9.0625 -23.8125 6.5 C-17.37773589 0.72221434 -8.30070922 -0.06162308 0 0 Z " fill="#8B4456" transform="translate(265.8125,153.5)"/>
<path d="M0 0 C3.5625 0.375 3.5625 0.375 5.25317383 2.07324219 C6.78484169 4.76587031 6.98459401 6.49503397 7.07421875 9.578125 C7.10966797 10.5578125 7.14511719 11.5375 7.18164062 12.546875 C7.20419922 13.56265625 7.22675781 14.5784375 7.25 15.625 C7.30124023 17.171875 7.30124023 17.171875 7.35351562 18.75 C7.43588093 21.29155812 7.50506834 23.83277626 7.5625 26.375 C8.37074219 26.40078125 9.17898438 26.4265625 10.01171875 26.453125 C18.70759654 26.91466737 18.70759654 26.91466737 22.8125 29.125 C24.5625 31.375 24.5625 31.375 25.0625 33.9375 C24.47431067 36.80492297 23.81429805 37.56709676 21.5625 39.375 C18.6810484 40.04227959 15.76331373 39.94576889 12.8125 39.9375 C11.58950195 39.9360498 11.58950195 39.9360498 10.34179688 39.93457031 C5.89063526 39.80344247 2.59473907 39.60627016 -0.9375 36.625 C-4.73315074 32.44978419 -5.69161099 28.75000369 -5.703125 23.1484375 C-5.70570313 21.9521875 -5.70828125 20.7559375 -5.7109375 19.5234375 C-5.70320313 18.27820313 -5.69546875 17.03296875 -5.6875 15.75 C-5.69523437 14.49703125 -5.70296875 13.2440625 -5.7109375 11.953125 C-5.70835937 10.75945313 -5.70578125 9.56578125 -5.703125 8.3359375 C-5.70086914 7.24071777 -5.69861328 6.14549805 -5.69628906 5.01708984 C-5.28616872 0.82999333 -4.08582869 0.44572677 0 0 Z " fill="#F7EDE3" transform="translate(435.4375,41.625)"/>
<path d="M0 0 C1.0625 2.5 1.0625 2.5 1 5 C0.34 5.99 -0.32 6.98 -1 8 C-3.99267411 8.12339935 -6.75252585 8.06449324 -9.7265625 7.85546875 C-10.58937836 7.80683182 -11.45219421 7.75819489 -12.34115601 7.70808411 C-15.10351431 7.54902314 -17.86400167 7.3685137 -20.625 7.1875 C-22.49470802 7.07606152 -24.36449971 6.96601747 -26.234375 6.85742188 C-30.82404491 6.58780039 -35.41214973 6.29893314 -40 6 C-40 3.03 -40 0.06 -40 -3 C-27.27981603 -6.50901627 -11.76382997 -6.75794487 0 0 Z " fill="#8A4356" transform="translate(189,159)"/>
<path d="M0 0 C2.56958877 5.62420032 2.79052744 10.906351 2 17 C0.71144458 20.06031912 -0.27132789 20.85189642 -3 23 C-6.4375 24.125 -6.4375 24.125 -10 24 C-14.05502208 21.93423403 -16.3303894 20.21595735 -18 16 C-18.68128935 11.19928666 -18.30962152 6.99766936 -16.875 2.375 C-12.0026102 -1.65001766 -6.06329713 -0.43772466 0 0 Z " fill="#A05B6A" transform="translate(276,193)"/>
<path d="M0 0 C2.08218362 -0.10832169 4.16599129 -0.18573541 6.25 -0.25 C7.99023438 -0.31960937 7.99023438 -0.31960937 9.765625 -0.390625 C13 0 13 0 15.38671875 1.58203125 C18.6308233 6.44426059 17.73875356 12.41317623 17 18 C15.0625 21.375 15.0625 21.375 12 23 C8.86459875 23.59695362 6.13035569 23.64362453 3 23 C-0.03215675 20.80168636 -0.81654398 19.55036806 -2 16 C-2.1190686 14.21120198 -2.17522113 12.4177144 -2.1875 10.625 C-2.20167969 9.68914062 -2.21585938 8.75328125 -2.23046875 7.7890625 C-1.98668108 4.83881846 -1.23112508 2.67635888 0 0 Z " fill="#9F5A69" transform="translate(156,193)"/>
<path d="M0 0 C2.375 0.8125 2.375 0.8125 4.375 2.8125 C4.875 5.625 4.875 5.625 4.375 8.8125 C-0.33898339 13.63611091 -4.59433246 15.85236826 -11.375 16.25 C-16.97056139 16.15771938 -21.18647965 14.14897315 -25.625 10.8125 C-27.01931504 8.02386993 -26.88160094 5.89171132 -26.625 2.8125 C-23.36736778 0.64074519 -22.40060787 0.35206002 -18.625 0.8125 C-17.7278125 1.5859375 -17.7278125 1.5859375 -16.8125 2.375 C-13.83880395 4.32914312 -11.9338969 3.90040744 -8.51171875 3.34375 C-4.94484019 2.33941152 -3.86083455 -0.2757739 0 0 Z " fill="#FF6E74" transform="translate(227.625,231.1875)"/>
<path d="M0 0 C0.81984375 -0.01998047 1.6396875 -0.03996094 2.484375 -0.06054688 C8.45741341 -0.05566694 8.45741341 -0.05566694 11.05859375 2.30859375 C12 4.4375 12 4.4375 12.0625 6.9375 C10.45972037 10.70874619 8.6897803 11.68970933 5 13.4375 C0.09332315 14.22479499 -4.31446113 14.29449304 -8.5625 11.5 C-11.98222222 8.60638889 -11.98222222 8.60638889 -12.25 6.0625 C-12 3.4375 -12 3.4375 -10.7421875 1.80053711 C-7.5807869 -0.67285128 -3.86591411 -0.03343165 0 0 Z " fill="#FF6E74" transform="translate(216,284.5625)"/>
<path d="M0 0 C3.69186542 2.59216083 4.82883761 4.04149064 5.625 8.5 C4.82883761 12.95850936 3.69186542 14.40783917 0 17 C-4.39755124 17.78527701 -6.24037932 17.49058836 -10 15.0625 C-12.45490835 11.30342159 -12.4196772 9.34438991 -11.63671875 5.02734375 C-11 3 -11 3 -9.375 0.9375 C-5.96803659 -0.40735398 -3.63267682 -0.50984938 0 0 Z " fill="#F5ECE4" transform="translate(320,253)"/>
<path d="M0 0 C1.5625 1.875 1.5625 1.875 2 4.875 C1.5083493 8.2463191 1.15446427 8.82871242 -1.4375 10.875 C-3.77734375 11.71875 -3.77734375 11.71875 -6.375 12.375 C-10.06310854 13.30954334 -12.50675605 14.42704682 -15.4375 16.875 C-15.20995411 14.24624622 -14.95668261 11.62453041 -14.6875 9 C-14.625625 8.25363281 -14.56375 7.50726563 -14.5 6.73828125 C-14.265625 4.5703125 -14.265625 4.5703125 -13.4375 0.875 C-9.58257749 -2.21055772 -4.36967564 -2.01677337 0 0 Z " fill="#FF6E74" transform="translate(329.4375,211.125)"/>
<path d="M0 0 C1.03125 0.33 2.0625 0.66 3.125 1 C4.62486273 3.99972546 4.6298832 5.65514879 4.125 9 C1.33036172 12.67124063 -1.467008 15.53066933 -5.875 17 C-7.525 13.37 -9.175 9.74 -10.875 6 C-4.875 0 -4.875 0 0 0 Z " fill="#F6EDE5" transform="translate(362.875,410)"/>
<path d="M0 0 C3.96 1.98 3.96 1.98 8 4 C7.34 5.32 6.68 6.64 6 8 C5.01 8 4.02 8 3 8 C0 2.25 0 2.25 0 0 Z " fill="#FAA19B" transform="translate(348,407)"/>
</svg>
