<?xml version="1.0" encoding="UTF-8"?>
<svg version="1.1" xmlns="http://www.w3.org/2000/svg" width="512" height="512">
<path d="M0 0 C1.36573654 0.00406357 1.36573654 0.00406357 2.75906372 0.00820923 C17.60867139 0.07492022 31.79749687 1.08683274 46.3125 4.4375 C47.1566748 4.62473633 48.00084961 4.81197266 48.87060547 5.00488281 C84.81977924 13.13398713 116.00529605 30.73531082 143.9140625 54.46875 C146.13799543 56.44267095 146.13799543 56.44267095 148.3125 57.4375 C148.539375 56.715625 148.76625 55.99375 149 55.25 C151.17419224 50.59101662 154.10762659 48.10944863 158.5625 45.625 C164.98206226 43.59213862 171.17594722 43.56780688 177.4140625 46.3046875 C182.68858936 49.45203892 185.76152385 53.85219391 188 59.49609375 C191.75560225 69.45541993 191.75560225 69.45541993 199.82080078 75.86523438 C202.95254578 77.15816367 206.11982701 78.30224976 209.3125 79.4375 C215.59766644 82.61829092 221.00185602 86.50556805 223.3125 93.4375 C224.26835973 107.20555649 224.26835973 107.20555649 220.3125 112.4375 C214.02215922 119.16670176 205.5222566 122.55437383 197.3125 126.4375 C198.81431741 130.99819619 200.34199149 135.54581084 201.9609375 140.06640625 C209.13194462 160.36951308 213.99717248 181.74197046 214.4375 203.34765625 C214.64251829 212.2524293 215.06173819 218.95467717 219.83984375 226.796875 C225.17027896 236.35489676 224.62148626 249.54300988 222.625 260.05859375 C220.77341036 265.99139554 217.95679068 271.17579614 214.58203125 276.37890625 C212.50414413 279.74828014 212.25600795 281.83937491 212.875 285.625 C213.40690462 289.75934958 213.05462441 293.21314684 212.26147461 297.29956055 C211.00513549 304.02610598 211.00513549 304.02610598 212.74609375 310.55859375 C214.81413347 313.31467693 217.02660439 315.86088944 219.3125 318.4375 C220.48325214 320.17842364 221.61164782 321.94888429 222.6875 323.75 C223.14898437 324.50925781 223.61046875 325.26851563 224.0859375 326.05078125 C228.42931829 334.50239164 228.77296917 344.59562331 226.484375 353.75 C225.52818326 356.37595941 224.47773075 358.89865782 223.3125 361.4375 C220.95626379 366.92711699 220.53354226 371.53949521 222.3125 377.3125 C224.0710511 381.63044472 226.97197804 384.52503544 230.12109375 387.89453125 C241.48997978 401.08730273 246.42959411 416.21393993 245.3125 433.4375 C242.57164016 448.63092777 232.49710466 460.10438659 220.14819336 468.75317383 C194.62938513 485.74235294 161.00278067 494.21391699 130.82177734 497.6887207 C126.79280828 498.89098263 124.91903706 501.67817083 122.6171875 505.05078125 C116.383481 511.50636544 109.49982038 512.88062022 100.82519531 513.07241821 C96.92973453 513.12047787 93.03623917 513.10506822 89.140625 513.08447266 C86.98790753 513.09125453 84.83519587 513.10016086 82.68249512 513.11102295 C76.85600979 513.13375472 71.02996873 513.125005 65.20347595 513.10912752 C59.09559972 513.09643691 52.9877606 513.10821742 46.87988281 513.11605835 C36.62427975 513.12514567 26.36885693 513.11319093 16.11328125 513.08935547 C4.26954833 513.06214615 -7.57375416 513.07096094 -19.41747665 513.0984875 C-29.60037791 513.12120356 -39.78314986 513.12436638 -49.96606827 513.11129415 C-56.04170025 513.10351345 -62.11713016 513.10242023 -68.19274902 513.11897659 C-73.90571666 513.13345826 -79.6181313 513.12333148 -85.33103943 513.09450531 C-87.42316267 513.08791433 -89.51533274 513.08975797 -91.60743713 513.10081863 C-112.85487205 513.20276353 -112.85487205 513.20276353 -119.6875 507.4375 C-120.75292988 506.10777982 -121.78030699 504.74601281 -122.75390625 503.34765625 C-127.36235016 497.62502404 -134.377271 497.29081736 -141.22946167 496.24371338 C-145.30113466 495.61701487 -149.35196001 494.87400815 -153.40625 494.14453125 C-154.61159645 493.93156403 -154.61159645 493.93156403 -155.84129333 493.71429443 C-184.05842396 488.65829956 -218.77991102 477.51024673 -236.5625 453.5 C-244.19311003 441.94610462 -246.44309108 429.55730846 -244.07421875 415.90234375 C-240.99991985 403.88955465 -235.02943638 394.18882887 -227.3125 384.6875 C-223.23784065 379.60731619 -220.41811186 375.13853009 -220.6875 368.4375 C-221.47897435 364.55268007 -222.97928594 361.056275 -224.5625 357.4375 C-228.15208678 348.32547201 -228.24341018 337.42342651 -224.8125 328.25 C-222.30428743 322.93635891 -218.88566485 318.42103816 -215.07861328 313.97583008 C-212.15802962 310.48837503 -210.90070419 307.9917784 -210.6875 303.4375 C-211.02823874 300.36539702 -211.02823874 300.36539702 -211.6875 297.25 C-212.48509875 292.77430254 -212.66335391 289.27983882 -211.875 284.8125 C-211.12159695 278.89657379 -213.5126147 275.94003667 -216.828125 271.21875 C-223.75487751 260.85772523 -223.92113469 248.48073119 -222.6875 236.4375 C-221.53253265 230.84533666 -219.90718658 226.16844618 -216.609375 221.48828125 C-213.43352492 216.01045782 -213.91198072 209.59833456 -213.6875 203.4375 C-213.55301334 200.73072971 -213.3976237 198.02549003 -213.234375 195.3203125 C-213.19391052 194.64702911 -213.15344604 193.97374573 -213.11175537 193.28005981 C-211.66944787 170.86984116 -205.78337859 146.62925717 -195.6875 126.4375 C-196.925 126.06625 -198.1625 125.695 -199.4375 125.3125 C-208.57625023 122.21804976 -216.89661076 119.1932631 -221.6875 110.4375 C-223.60311899 104.69064302 -223.90396949 97.6578632 -221.74609375 91.9453125 C-217.99115442 85.70669856 -213.16459974 82.49343003 -206.50683594 79.85205078 C-199.99105515 77.21162296 -195.15288622 75.16294981 -191.9375 68.5625 C-191.14693435 66.5361958 -190.39516181 64.49422496 -189.6875 62.4375 C-186.28144782 54.53812166 -182.82987913 49.41466687 -175.3125 45.0625 C-169.29325037 43.62934533 -163.3523191 43.86851489 -157.609375 46.24609375 C-153.87442755 48.56145752 -151.37110314 52.02134574 -148.6875 55.4375 C-148.0275 56.0975 -147.3675 56.7575 -146.6875 57.4375 C-146.06746094 56.84324219 -145.44742188 56.24898437 -144.80859375 55.63671875 C-133.52959671 45.08010289 -121.12951344 36.06832239 -107.6875 28.4375 C-106.59453613 27.81125732 -106.59453613 27.81125732 -105.47949219 27.17236328 C-85.28488397 15.73204769 -63.55588882 7.59166578 -40.6875 3.4375 C-39.66555038 3.25167862 -39.66555038 3.25167862 -38.62295532 3.06210327 C-25.69964326 0.77040202 -13.11309514 -0.09235105 0 0 Z " fill="#020201" transform="translate(255.6875,-0.4375)"/>
<path d="M0 0 C1.27230469 0.18304687 2.54460937 0.36609375 3.85546875 0.5546875 C42.27329415 6.2283802 83.35177182 26.25393258 110 55 C110 55.99 110 56.98 110 58 C109.46109131 58.23074219 108.92218262 58.46148437 108.36694336 58.69921875 C94.18763249 64.26843542 94.18763249 64.26843542 84 75 C82.12335884 80.62992347 82.4349671 86.185947 84.1875 91.8125 C88.53520972 99.45847227 95.50353896 103.38159758 103.8125 105.828125 C108.85193248 107.47993898 111.7937613 109.18714964 114.33203125 113.88671875 C115.7603321 116.83584196 117.02209829 119.83244203 118.24609375 122.87109375 C121.20044708 130.11145671 124.38387523 133.86493605 131.48046875 137.0859375 C137.09253425 139.12194266 141.77926408 138.17678067 147.13671875 135.9921875 C150.6292304 134.13244335 153.23592488 131.52815023 155 128 C155.66 128 156.32 128 157 128 C163.66366061 146.76202804 168.66151212 165.9341323 168 186 C167.04738281 185.65066406 166.09476562 185.30132812 165.11328125 184.94140625 C163.84642221 184.48158334 162.5794913 184.02195838 161.3125 183.5625 C160.37374023 183.21735352 160.37374023 183.21735352 159.41601562 182.86523438 C153.14681079 180.6004431 148.64041543 179.97238469 142 180.4375 C135.57091201 180.50446967 135.57091201 180.50446967 133.1875 178.3984375 C132 176.3125 132 176.3125 130.99609375 174.10546875 C129.00989786 169.90719588 125.46808202 167.73404101 121.375 165.6875 C111.46883598 163.6695777 103.61558891 165.38793722 94.34765625 168.80859375 C89.70381032 170.46130438 85.41933538 171.19536135 80.5 171.375 C79.12328125 171.44847656 79.12328125 171.44847656 77.71875 171.5234375 C73.77642803 170.76442724 72.47444762 169.12368387 70 166 C68.63095226 163.35059936 67.620402 160.62061975 66.625 157.8125 C66.03308576 156.21464595 65.44062053 154.61699592 64.84765625 153.01953125 C64.54746582 152.19791504 64.24727539 151.37629883 63.93798828 150.52978516 C62.9884697 147.96890241 62.00011142 145.42669364 60.99609375 142.88671875 C60.51052002 141.65828247 60.51052002 141.65828247 60.01513672 140.4050293 C59.38890665 138.82404714 58.76165782 137.24346808 58.13330078 135.66333008 C56 130.22200071 56 130.22200071 56 128 C54.59013562 127.6957344 53.17131189 127.43279092 51.75 127.1875 C50.96109375 127.03667969 50.1721875 126.88585937 49.359375 126.73046875 C46.82143447 126.76680561 46.82143447 126.76680561 45.10058594 128.97070312 C42.50528054 132.7134448 40.79743212 136.55478573 39.03125 140.73828125 C38.66906372 141.57787888 38.30687744 142.4174765 37.93371582 143.28251648 C36.78182661 145.95610395 35.64044789 148.63401467 34.5 151.3125 C33.35768649 153.97942773 32.21314523 156.64537324 31.06628418 159.31034851 C30.35529411 160.96415563 29.6471813 162.61920389 28.94250488 164.27571106 C28.29205622 165.79489636 27.6323859 167.31017326 26.96264648 168.82095337 C26.32139272 170.27249543 25.70352341 171.73459655 25.10961914 173.20614624 C23.18998214 177.6182172 21.33265705 180.22702959 16.93716431 182.34152222 C13.47889058 183.51705307 10.06056111 183.68885903 6.44921875 183.75390625 C5.56691086 183.78303604 4.68460297 183.81216583 3.77555847 183.84217834 C-13.93158847 184.32350264 -31.67546897 184.01907275 -49.38647461 183.90405273 C-53.57980561 183.87735484 -57.77308609 183.86027184 -61.96648598 183.84918404 C-63.55298091 183.84298126 -65.13946575 183.83298469 -66.72591209 183.81910515 C-68.92175347 183.79999545 -71.11731943 183.79301109 -73.31323242 183.78881836 C-75.18346321 183.77763222 -75.18346321 183.77763222 -77.09147644 183.76622009 C-80.12601084 183.69389026 -80.12601084 183.69389026 -82 186 C-82.47213673 190.06095958 -82.47213673 190.06095958 -82 194 C-78.84146701 197.01075874 -76.3623974 197.44521549 -72.07397461 197.67919922 C-70.91759491 197.74347107 -69.76121521 197.80774292 -68.5697937 197.8739624 C-62.98311714 198.07120946 -57.40636799 198.14280341 -51.81640625 198.1328125 C-50.59960678 198.13376923 -49.38280731 198.13472595 -48.12913513 198.13571167 C-45.56859281 198.13638766 -43.00804872 198.13457426 -40.44750977 198.13037109 C-36.60363743 198.12505687 -32.75988419 198.13031436 -28.91601562 198.13671875 C-17.53411569 198.14167359 -6.15299691 198.08247093 5.22265625 197.6796875 C6.07435898 197.65770294 6.92606171 197.63571838 7.80357361 197.61306763 C15.98411907 197.25951011 24.59023343 195.51862449 31.0703125 190.22265625 C35.62362945 184.97804625 38.19975104 178.29263493 41 172 C41.76028141 170.3176472 42.52070078 168.63535675 43.28125 166.953125 C45.21639659 162.64775981 47.11644607 158.32816648 49 154 C51.07628084 156.07628084 51.58786717 157.21520545 52.55078125 159.921875 C52.83759766 160.70046875 53.12441406 161.4790625 53.41992188 162.28125 C54.00862625 163.90952643 54.59208316 165.53971097 55.16992188 167.171875 C57.97985444 174.74810115 61.79692188 180.32161478 69.17578125 184.078125 C81.25082815 188.01963409 93.52496066 183.96363194 105 180 C109.94721142 178.35092953 114.1645523 178.16207822 118.875 180.3125 C125.33345264 188.48054305 123.40039749 202.98556393 123.375 212.9375 C123.3737915 213.80849335 123.37258301 214.67948669 123.37133789 215.57687378 C123.32284517 228.43114201 122.91638677 240.65681057 119 253 C118.5973291 254.30130859 118.5973291 254.30130859 118.18652344 255.62890625 C105.33055666 296.11879496 78.62512495 329.87962612 40.97265625 350.00390625 C34.82709138 353.16298172 28.49680554 355.65183951 22 358 C20.78699219 358.45246094 19.57398438 358.90492188 18.32421875 359.37109375 C-17.76759764 372.21474964 -59.12014325 369.51131057 -93.73486328 353.57739258 C-132.18639699 335.26052113 -161.34520357 303.1553437 -175.9453125 263.078125 C-181.62647118 246.6658888 -183.43899396 231.02235336 -183.4375 213.75 C-183.43799347 212.95672302 -183.43848694 212.16344604 -183.43899536 211.34613037 C-183.36789291 187.80297952 -183.36789291 187.80297952 -178.9375 180.6875 C-172.96083829 177.25409859 -164.91720992 180.39365586 -158.5703125 182.07421875 C-157.11238281 182.47060547 -157.11238281 182.47060547 -155.625 182.875 C-154.66078125 183.13152344 -153.6965625 183.38804687 -152.703125 183.65234375 C-148.86857549 184.67523296 -145.03736466 185.70632891 -141.21875 186.78735352 C-134.7764368 188.5992541 -128.33645819 190.0087258 -121.75 191.1875 C-120.80898437 191.36474609 -119.86796875 191.54199219 -118.8984375 191.72460938 C-110.16449823 193.48544739 -110.16449823 193.48544739 -101.5625 192.0625 C-99.02949275 188.71893043 -99.69455067 185.04720363 -100 181 C-104.11409008 179.50949929 -107.93358455 178.63379001 -112.2734375 178.1171875 C-120.07598352 177.06578059 -127.68437399 175.42776072 -135.35058594 173.65087891 C-137.62765495 173.12438614 -139.90732296 172.61050053 -142.1875 172.09765625 C-149.7492237 170.37360946 -157.08872109 168.48297051 -164.37548828 165.77880859 C-170.62134927 163.92538566 -177.36857985 163.92469952 -183.375 166.5625 C-188.76174096 169.71598794 -192.37803285 174.41300458 -195 180 C-195.93199219 179.95359375 -196.86398438 179.9071875 -197.82421875 179.859375 C-208.89533291 179.54593597 -217.7134479 181.81755574 -228 186 C-228.82251658 170.73774796 -225.53049987 156.18824107 -221.5 141.5625 C-221.05515259 139.93598511 -221.05515259 139.93598511 -220.60131836 138.27661133 C-220.3100708 137.25849365 -220.01882324 136.24037598 -219.71875 135.19140625 C-219.33106445 133.83317749 -219.33106445 133.83317749 -218.93554688 132.44750977 C-217.95938601 129.89374863 -216.74018196 128.09377083 -215 126 C-214.443125 126.9075 -213.88625 127.815 -213.3125 128.75 C-210.03024314 133.36290153 -206.50506569 136.4637026 -201 138 C-193.96476035 138.83468945 -188.80193358 137.07948455 -183 133 C-179.74320014 129.63294389 -178.17553385 125.58688198 -176.7109375 121.20703125 C-174.17497317 114.00529871 -172.14509507 108.90159285 -165.13793945 105.2265625 C-162.44221984 103.99521861 -159.71488797 102.88058603 -156.95336914 101.80615234 C-150.80213484 99.26754771 -146.88107428 96.52415235 -143.87890625 90.5 C-141.88503352 84.82853978 -142.42630081 79.84187635 -144.1875 74.1875 C-148.31797583 66.92355975 -153.90824737 64.33234511 -161.3125 61.1875 C-162.70952148 60.57745117 -162.70952148 60.57745117 -164.13476562 59.95507812 C-166.41883669 58.95945741 -168.7070168 57.97487639 -171 57 C-165.35206563 50.12517352 -158.96547674 44.50165108 -152 39 C-151.39849121 38.52401367 -150.79698242 38.04802734 -150.17724609 37.55761719 C-132.16360202 23.55491626 -110.84668498 12.58875731 -89 6 C-87.83307617 5.64736084 -87.83307617 5.64736084 -86.64257812 5.28759766 C-59.09172639 -2.78437736 -28.29103431 -5.25262447 0 0 Z " fill="#D6938B" transform="translate(286,17)"/>
<path d="M0 0 C2.07628084 2.07628084 2.58786717 3.21520545 3.55078125 5.921875 C3.83759766 6.70046875 4.12441406 7.4790625 4.41992188 8.28125 C5.00862625 9.90952643 5.59208316 11.53971097 6.16992188 13.171875 C8.97985444 20.74810115 12.79692188 26.32161478 20.17578125 30.078125 C32.25082815 34.01963409 44.52496066 29.96363194 56 26 C60.94721142 24.35092953 65.1645523 24.16207822 69.875 26.3125 C76.33345264 34.48054305 74.40039749 48.98556393 74.375 58.9375 C74.3737915 59.80849335 74.37258301 60.67948669 74.37133789 61.57687378 C74.32284517 74.43114201 73.91638677 86.65681057 70 99 C69.5973291 100.30130859 69.5973291 100.30130859 69.18652344 101.62890625 C56.33055666 142.11879496 29.62512495 175.87962612 -8.02734375 196.00390625 C-14.17290862 199.16298172 -20.50319446 201.65183951 -27 204 C-28.21300781 204.45246094 -29.42601562 204.90492188 -30.67578125 205.37109375 C-66.76759764 218.21474964 -108.12014325 215.51131057 -142.73486328 199.57739258 C-181.18639699 181.26052113 -210.34520357 149.1553437 -224.9453125 109.078125 C-230.62647118 92.6658888 -232.43899396 77.02235336 -232.4375 59.75 C-232.43799347 58.95672302 -232.43848694 58.16344604 -232.43899536 57.34613037 C-232.36789291 33.80297952 -232.36789291 33.80297952 -227.9375 26.6875 C-221.96083829 23.25409859 -213.91720992 26.39365586 -207.5703125 28.07421875 C-206.59835938 28.33847656 -205.62640625 28.60273438 -204.625 28.875 C-203.17867187 29.25978516 -203.17867187 29.25978516 -201.703125 29.65234375 C-197.86857549 30.67523296 -194.03736466 31.70632891 -190.21875 32.78735352 C-183.7764368 34.5992541 -177.33645819 36.0087258 -170.75 37.1875 C-169.80898437 37.36474609 -168.86796875 37.54199219 -167.8984375 37.72460938 C-162.87886907 38.6350213 -158.10036433 39.46123871 -153 39 C-152.195625 38.175 -151.39125 37.35 -150.5625 36.5 C-148 34 -148 34 -144.125 33.625 C-142.74826004 33.72910132 -141.37294055 33.85410878 -140 34 C-138.741875 34.04125 -137.48375 34.0825 -136.1875 34.125 C-133 35 -133 35 -131.25 37.9375 C-130.8375 38.948125 -130.425 39.95875 -130 41 C-122.43414862 46.04390092 -109.68728059 44.14866736 -100.81640625 44.1328125 C-99.59960678 44.13376923 -98.38280731 44.13472595 -97.12913513 44.13571167 C-94.56859281 44.13638766 -92.00804872 44.13457426 -89.44750977 44.13037109 C-85.60363743 44.12505687 -81.75988419 44.13031436 -77.91601562 44.13671875 C-66.53411569 44.14167359 -55.15299691 44.08247093 -43.77734375 43.6796875 C-42.92564102 43.65770294 -42.07393829 43.63571838 -41.19642639 43.61306763 C-33.01588093 43.25951011 -24.40976657 41.51862449 -17.9296875 36.22265625 C-13.37637055 30.97804625 -10.80024896 24.29263493 -8 18 C-7.23971859 16.3176472 -6.47929922 14.63535675 -5.71875 12.953125 C-3.78360341 8.64775981 -1.88355393 4.32816648 0 0 Z " fill="#FEEDE4" transform="translate(335,171)"/>
<path d="M0 0 C25.6354675 6.95269813 62.37661297 7.93046802 87.35546875 -3.1875 C90.5582958 -4.30339284 92.44150545 -3.93218305 95.6875 -3 C98.546875 -1.25 98.546875 -1.25 101.4375 1 C101.95554199 1.40299316 102.47358398 1.80598633 103.00732422 2.22119141 C114.7242403 11.44758995 124.97736589 21.66783082 133.375 34 C133.82166016 34.64727051 134.26832031 35.29454102 134.72851562 35.96142578 C135.80079119 37.58742444 136.75497286 39.29001765 137.6875 41 C136.6875 44 136.6875 44 135.09960938 44.91967773 C134.41705078 45.17177002 133.73449219 45.4238623 133.03125 45.68359375 C132.26361328 45.96952393 131.49597656 46.2554541 130.70507812 46.55004883 C129.87427734 46.84290771 129.04347656 47.1357666 128.1875 47.4375 C127.34123047 47.74389404 126.49496094 48.05028809 125.62304688 48.3659668 C119.18732034 50.63081062 112.71236272 52.37768305 106.03320312 53.75756836 C102.69093858 54.45577557 100.57430319 55.07546454 97.6875 57 C97.13571897 62.20642475 97.13571897 62.20642475 98.75 67 C104.21590731 69.82111345 111.08889595 67.40168393 116.6875 65.875 C117.51185547 65.65489258 118.33621094 65.43478516 119.18554688 65.20800781 C126.95670251 63.06000527 134.27388386 60.14879395 141.6875 57 C142.6775 56.67 143.6675 56.34 144.6875 56 C145.65150982 58.49793739 146.60877547 60.99813659 147.5625 63.5 C147.83191406 64.19609375 148.10132813 64.8921875 148.37890625 65.609375 C151.98228834 75.10121076 155.25216279 86.05828852 152 96.12890625 C149.75183649 99.86647808 146.6087884 101.40632032 142.6875 103 C139.78526473 103.41527288 136.9240789 103.40969358 133.99597168 103.38768005 C132.70218763 103.39575836 132.70218763 103.39575836 131.38226652 103.40399987 C128.49883886 103.41828077 125.61587018 103.4111754 122.73242188 103.40405273 C120.66247692 103.40975618 118.59253511 103.41672033 116.52259827 103.42485046 C110.90491594 103.44279846 105.28738967 103.44161053 99.66968727 103.43590808 C94.98012589 103.43281903 90.2905946 103.43890543 85.6010375 103.44494683 C74.53917534 103.45899545 63.47739041 103.45742755 52.41552734 103.44604492 C41.0012928 103.43455931 29.5872931 103.44864617 18.1730895 103.4754414 C8.37336366 103.49758573 -1.42628841 103.50423874 -11.2260375 103.49836498 C-17.07913938 103.49499168 -22.93209066 103.49743556 -28.78517151 103.51461601 C-34.28787168 103.53006311 -39.79022333 103.52615425 -45.29290962 103.50731087 C-47.31254064 103.50361901 -49.33219736 103.50675076 -51.35180473 103.51719666 C-54.10859725 103.53036713 -56.86422927 103.51889415 -59.62097168 103.50120544 C-60.420392 103.51081045 -61.21981233 103.52041546 -62.04345751 103.53031152 C-67.24394401 103.46164069 -70.17009683 102.40871274 -74.3125 99 C-78.6087073 93.49831682 -77.85541057 87.6657353 -77.3125 81 C-74.64813094 64.2144749 -66.69257893 47.07011839 -57.3125 33 C-53.34808261 34.43501763 -50.03935833 36.34418115 -46.5 38.625 C-20.22183451 55.10024427 9.19809243 64.27606343 39.6875 69 C41.50701172 69.29390625 41.50701172 69.29390625 43.36328125 69.59375 C49.2113268 70.28726114 55.11800452 70.18600598 60.99853516 70.18530273 C63.07865045 70.18751719 65.15825748 70.20580662 67.23828125 70.22460938 C69.20474609 70.22750977 69.20474609 70.22750977 71.2109375 70.23046875 C73.004104 70.23663208 73.004104 70.23663208 74.83349609 70.24291992 C77.81964242 70.29758448 77.81964242 70.29758448 79.6875 68 C80.04263379 66.09178939 80.04263379 66.09178939 80 64 C80.02513672 62.948125 80.02513672 62.948125 80.05078125 61.875 C79.93089844 61.25625 79.81101562 60.6375 79.6875 60 C76.33445631 57.76463754 74.91852781 57.68036619 70.97265625 57.47265625 C69.82176514 57.4046582 68.67087402 57.33666016 67.48510742 57.26660156 C66.25252197 57.19924805 65.01993652 57.13189453 63.75 57.0625 C24.13762407 54.51287687 -14.68729133 44.35945434 -47.3125 21 C-45.33788709 18.64009676 -43.34480931 16.30964906 -41.3125 14 C-40.58740234 13.17242187 -40.58740234 13.17242187 -39.84765625 12.328125 C-27.03721664 -1.36242115 -17.93666274 -4.99904901 0 0 Z " fill="#C9A7F0" transform="translate(218.3125,394)"/>
<path d="M0 0 C3.93131339 1.3104378 4.50397078 2.96068369 6.6875 6.4375 C23.65357312 32.56525261 46.71919427 51.46002817 74 66 C72.80521666 69.58435001 71.74132097 70.16528225 68.75 72.375 C40.99734265 94.10996275 21.81743443 127.43275886 17.3984375 162.4921875 C17.26695313 163.64976562 17.13546875 164.80734375 17 166 C-14.46507357 163.01816134 -52.85274004 153.95629301 -75.2734375 130.10546875 C-82.18651296 121.6752704 -83.05360444 113.72545647 -82 103 C-80.30248856 93.23555365 -74.03080328 84.28374499 -67.8125 76.8125 C-60.99821551 68.59838188 -58.55329877 60.12209329 -58.56640625 49.53125 C-59.17522869 44.57291226 -60.88234322 40.25921405 -62.86547852 35.69604492 C-65.45340527 29.60630816 -65.94866912 24.38305505 -63.5 18.1875 C-61.02196784 12.34257631 -57.15555056 7.74055525 -53 3 C-50.83899818 4.07799395 -48.68119281 5.16167 -46.52734375 6.25390625 C-45.67269531 6.68574219 -44.81804687 7.11757813 -43.9375 7.5625 C-43.08027344 7.99691406 -42.22304687 8.43132812 -41.33984375 8.87890625 C-33.93740805 12.42564923 -22.9382201 12.25310376 -15.0625 9.875 C-9.51588818 7.64568871 -4.22480645 4.22480645 0 0 Z " fill="#CD8579" transform="translate(109,316)"/>
<path d="M0 0 C2.96404628 1.39210264 5.52782057 3.03357647 8.1875 4.9375 C17.39390712 11.04028851 25.99015769 12.048008 37 11 C43.36309496 9.50144503 48.0036107 7.21570347 53 3 C58.8314394 4.94381313 62.14671162 11.87257585 65.1875 17.00390625 C67.22582767 21.22755637 67.48737541 25.40680745 67 30 C65.6875 33.5 65.6875 33.5 64 37 C59.78617911 46.59611899 59.33497066 56.42000099 62.25 66.5625 C64.62067695 72.24189155 68.5652725 76.69022086 72.48852539 81.35668945 C81.25640319 91.8902923 84.9859971 102.40953241 84.2265625 116.08251953 C83.7098848 120.45534997 81.66003549 123.60616162 79 127 C78.56558594 127.60972656 78.13117188 128.21945312 77.68359375 128.84765625 C59.69236898 152.16961429 17.33312664 161.19071151 -10 165 C-11.66638007 165.03090703 -13.33381041 165.03987526 -15 165 C-15.08636719 164.25878906 -15.17273438 163.51757812 -15.26171875 162.75390625 C-19.88231938 128.12059692 -38.57999891 94.79813648 -65.765625 72.7578125 C-67.31232614 71.58562704 -68.87278009 70.43110355 -70.453125 69.3046875 C-70.96359375 68.87414062 -71.4740625 68.44359375 -72 68 C-72 67.34 -72 66.68 -72 66 C-70.88625 65.41734375 -69.7725 64.8346875 -68.625 64.234375 C-53.6308778 56.23938465 -40.28300861 46.77995023 -28 35 C-27.18273437 34.23429687 -26.36546875 33.46859375 -25.5234375 32.6796875 C-15.42991097 22.96115267 -7.56962636 11.73503528 0 0 Z " fill="#D6938B" transform="translate(401,316)"/>
<path d="M0 0 C0 0.66 0 1.32 0 2 C-2.19959451 3.58200435 -4.40231731 5.05092728 -6.6875 6.5 C-18.04168872 13.90186634 -28.28955442 22.01068795 -38.125 31.3359375 C-41 34 -41 34 -43.68359375 36.140625 C-46.45531464 38.36548021 -48.58295955 40.80967969 -50.875 43.51171875 C-52.42903446 45.33142454 -54.017452 47.12192252 -55.625 48.89453125 C-86.23843542 82.94872971 -108.86084811 130.99518783 -112 177 C-120.44251106 175.44778945 -128.76218088 173.62724407 -137.0625 171.4375 C-137.85889893 171.22778564 -138.65529785 171.01807129 -139.47583008 170.80200195 C-142.76516695 169.92115934 -145.97882399 169.00749066 -149.19140625 167.87109375 C-155.34178063 165.96353675 -162.44023914 165.90327062 -168.375 168.5625 C-173.76174096 171.71598794 -177.37803285 176.41300458 -180 182 C-180.93199219 181.95359375 -181.86398438 181.9071875 -182.82421875 181.859375 C-193.89533291 181.54593597 -202.7134479 183.81755574 -213 188 C-213.82251658 172.73774796 -210.53049987 158.18824107 -206.5 143.5625 C-206.05515259 141.93598511 -206.05515259 141.93598511 -205.60131836 140.27661133 C-205.3100708 139.25849365 -205.01882324 138.24037598 -204.71875 137.19140625 C-204.33106445 135.83317749 -204.33106445 135.83317749 -203.93554688 134.44750977 C-202.95938601 131.89374863 -201.74018196 130.09377083 -200 128 C-199.443125 128.9075 -198.88625 129.815 -198.3125 130.75 C-195.03024314 135.36290153 -191.50506569 138.4637026 -186 140 C-178.96476035 140.83468945 -173.80193358 139.07948455 -168 135 C-164.74320014 131.63294389 -163.17553385 127.58688198 -161.7109375 123.20703125 C-159.17497317 116.00529871 -157.14509507 110.90159285 -150.13793945 107.2265625 C-147.44221984 105.99521861 -144.71488797 104.88058603 -141.95336914 103.80615234 C-135.80213484 101.26754771 -131.88107428 98.52415235 -128.87890625 92.5 C-126.88503352 86.82853978 -127.42630081 81.84187635 -129.1875 76.1875 C-133.31797583 68.92355975 -138.90824737 66.33234511 -146.3125 63.1875 C-147.70952148 62.57745117 -147.70952148 62.57745117 -149.13476562 61.95507812 C-151.41883669 60.95945741 -153.7070168 59.97487639 -156 59 C-150.35206563 52.12517352 -143.96547674 46.50165108 -137 41 C-136.39849121 40.52401367 -135.79698242 40.04802734 -135.17724609 39.55761719 C-117.16360202 25.55491626 -95.84668498 14.58875731 -74 8 C-72.83307617 7.64736084 -72.83307617 7.64736084 -71.64257812 7.28759766 C-48.05348307 0.3763563 -24.38994962 -0.48930454 0 0 Z " fill="#CC8579" transform="translate(271,15)"/>
<path d="M0 0 C25.6354675 6.95269813 62.37661297 7.93046802 87.35546875 -3.1875 C90.5582958 -4.30339284 92.44150545 -3.93218305 95.6875 -3 C98.546875 -1.25 98.546875 -1.25 101.4375 1 C101.95554199 1.40299316 102.47358398 1.80598633 103.00732422 2.22119141 C114.7242403 11.44758995 124.97736589 21.66783082 133.375 34 C133.82166016 34.64727051 134.26832031 35.29454102 134.72851562 35.96142578 C135.80079119 37.58742444 136.75497286 39.29001765 137.6875 41 C136.6875 44 136.6875 44 135.09960938 44.91967773 C134.41705078 45.17177002 133.73449219 45.4238623 133.03125 45.68359375 C132.26369385 45.96936279 131.4961377 46.25513184 130.70532227 46.54956055 C129.87444092 46.84258057 129.04355957 47.13560059 128.1875 47.4375 C127.34050537 47.74534424 126.49351074 48.05318848 125.62084961 48.37036133 C119.22282759 50.6288018 112.79238011 52.34622203 106.12109375 53.58178711 C101.81500171 54.44353322 99.3376871 55.43820062 96.6875 59 C96.3575 60.32 96.0275 61.64 95.6875 63 C91.0675 63.33 86.4475 63.66 81.6875 64 C80.6975 62.35 79.7075 60.7 78.6875 59 C76.08733073 57.69991536 73.97773234 57.73729116 71.0703125 57.5703125 C69.33914185 57.46348145 69.33914185 57.46348145 67.57299805 57.35449219 C66.33203369 57.27875977 65.09106934 57.20302734 63.8125 57.125 C24.16755754 54.44163613 -14.6410152 44.39258777 -47.3125 21 C-45.33788709 18.64009676 -43.34480931 16.30964906 -41.3125 14 C-40.58740234 13.17242187 -40.58740234 13.17242187 -39.84765625 12.328125 C-27.03721664 -1.36242115 -17.93666274 -4.99904901 0 0 Z " fill="#FDDCCD" transform="translate(218.3125,394)"/>
<path d="M0 0 C0.97195312 0.26425781 1.94390625 0.52851563 2.9453125 0.80078125 C3.90953125 1.05730469 4.87375 1.31382812 5.8671875 1.578125 C9.78314102 2.62272922 13.69433657 3.68287423 17.59985352 4.76586914 C18.56850342 5.03391357 19.53715332 5.30195801 20.53515625 5.578125 C21.40261475 5.82038818 22.27007324 6.06265137 23.16381836 6.31225586 C26.2926511 7.10993839 29.36352113 7.5694711 32.5703125 7.92578125 C31.5803125 8.25578125 30.5903125 8.58578125 29.5703125 8.92578125 C29.66521517 13.79667982 29.77157384 18.66715865 29.88769531 23.53759766 C29.92553061 25.18792213 29.96045437 26.83831644 29.9921875 28.48876953 C30.17340631 37.80454885 30.60809883 46.8346136 32.15478516 56.03857422 C32.54041041 58.7180127 32.64696678 61.22418511 32.5703125 63.92578125 C31.82007813 64.14492188 31.06984375 64.3640625 30.296875 64.58984375 C19.79706898 67.84293226 11.50816471 71.23168371 5.62890625 80.875 C2.94984352 86.06506617 2.90511995 91.21430042 3.5703125 96.92578125 C6.67460794 105.87673178 13.33387511 111.11035457 21.578125 115.1640625 C26.69988585 117.12238282 31.72850978 117.07861457 37.1328125 117.05078125 C37.88755859 117.05464844 38.64230469 117.05851562 39.41992188 117.0625 C42.97356043 117.05623808 46.15278058 116.88373661 49.5703125 115.92578125 C49.94615479 116.75432617 49.94615479 116.75432617 50.32958984 117.59960938 C55.96620276 129.94136318 61.94785814 141.69159363 69.5703125 152.92578125 C69.9828125 153.53502441 70.3953125 154.14426758 70.8203125 154.77197266 C76.60041793 163.23215042 82.88684795 171.16158626 89.5703125 178.92578125 C86.44200253 180.48993623 84.39819093 179.12635262 81.1328125 178.05078125 C42.27624608 164.84621523 9.39121139 136.6538949 -9.38525391 100.07421875 C-20.15682766 77.91670378 -24.86930675 56.17736083 -24.8671875 31.67578125 C-24.86768097 30.88250427 -24.86817444 30.08922729 -24.86868286 29.27191162 C-24.79758041 5.72876077 -24.79758041 5.72876077 -20.3671875 -1.38671875 C-14.39052579 -4.82012016 -6.34689742 -1.68056289 0 0 Z " fill="#FDDCCD" transform="translate(127.4296875,199.07421875)"/>
<path d="M0 0 C3.96441739 1.43501763 7.27314167 3.34418115 10.8125 5.625 C22.57125032 13.02418471 35.17826544 18.71103449 48 24 C47.11356078 28.21058628 46.1910555 32.35026546 44.9765625 36.48046875 C42.09617306 46.33712057 39.58595142 55.97603629 44.03320312 65.69970703 C44.39965942 66.50618683 44.76611572 67.31266663 45.14367676 68.14358521 C45.42626343 68.75620209 45.7088501 69.36881897 46 70 C38.6718614 70.09288522 31.34385077 70.16385817 24.01524162 70.20724869 C20.61183682 70.22807946 17.20883625 70.25631258 13.80566406 70.30175781 C9.88872194 70.3537335 5.97194065 70.37298269 2.0546875 70.390625 C0.83884979 70.41127014 -0.37698792 70.43191528 -1.62966919 70.45318604 C-8.03432588 70.45488232 -12.19353724 70.43857957 -17 66 C-21.2962073 60.49831682 -20.54291057 54.6657353 -20 48 C-17.33563094 31.2144749 -9.38007893 14.07011839 0 0 Z " fill="#B987E7" transform="translate(161,427)"/>
<path d="M0 0 C0.804375 0.66 1.60875 1.32 2.4375 2 C4.92819774 4.28593443 4.92819774 4.28593443 8.5 4.5 C12.06809944 4.29264354 12.06809944 4.29264354 14.5 2 C17 0 17 0 20.5625 -0.5 C24 0 24 0 26.4375 1.625 C28.51114192 4.77693571 28.66859841 6.28556438 28 10 C24.25139466 16.33385041 18.66605234 18.3615975 12 21 C12.721875 21.680625 13.44375 22.36125 14.1875 23.0625 C19.27436113 28.14936113 23.06720278 33.18720516 23.375 40.5625 C23.27423619 47.47489757 20.72956308 52.75982581 16.30859375 58.0078125 C8.70198608 65.34445706 -0.27340942 68.45338162 -10.6875 68.5 C-21.70130872 68.2693127 -30.51512498 65.24290207 -38.5703125 57.48828125 C-43.67056324 51.67033056 -45.66278449 46.54237525 -45.40234375 38.875 C-44.41292451 31.80497516 -41.22492217 26.63150336 -35.75 22.125 C-28.72138422 17.14981955 -21.42510338 13.8233539 -12.75 13.9375 C-11.85796875 13.94652344 -10.9659375 13.95554687 -10.046875 13.96484375 C-9.37140625 13.97644531 -8.6959375 13.98804688 -8 14 C-8.515625 13.29875 -9.03125 12.5975 -9.5625 11.875 C-11.34196438 8.31607124 -11.2227635 6.74980806 -10 3 C-7.02033132 -0.31074298 -4.32094482 -0.61727783 0 0 Z " fill="#FEA1AC" transform="translate(175,249)"/>
<path d="M0 0 C1.6825613 1.31321858 3.34997172 2.64613064 5 4 C8 4.66666667 8 4.66666667 11 4 C11.78375 3.34 12.5675 2.68 13.375 2 C17.16424036 -0.88704027 19.30706456 -0.52984755 24 0 C26 1 26 1 27 3 C27.56866675 7.47475477 27.54772167 10.17841749 25 14 C26.8253125 13.87625 26.8253125 13.87625 28.6875 13.75 C38.12678372 13.79459504 46.95662506 16.93902694 54.125 23.06640625 C60.23134106 29.36357047 62.46350727 35.6690056 62.3359375 44.34375 C61.41735556 51.60695601 56.76174402 56.99158126 51.25390625 61.49609375 C41.59976013 67.93776837 30.31397728 69.23272502 19 68 C10.49484954 65.84471756 2.43962129 61.44523137 -2.33984375 53.87890625 C-5.39099775 47.96118764 -6.90190852 42.67207328 -6 36 C-3.74518408 29.43965194 -0.6696517 24.95557095 5 21 C4.18015625 20.62488281 3.3603125 20.24976563 2.515625 19.86328125 C1.43796875 19.35152344 0.3603125 18.83976562 -0.75 18.3125 C-1.81734375 17.81363281 -2.8846875 17.31476563 -3.984375 16.80078125 C-7.21286231 14.87288922 -8.93763385 13.12301159 -11 10 C-11.59807728 6.33677666 -11.48384007 4.73543691 -9.4375 1.625 C-6.05010319 -0.63326454 -3.9982841 -0.56116268 0 0 Z " fill="#FEA1AC" transform="translate(320,249)"/>
<path d="M0 0 C3.1875 0.625 3.1875 0.625 5.625 3.75 C7.15535036 6.49577331 8.51335902 9.30080001 9.87890625 12.1328125 C10.17804932 12.74882324 10.47719238 13.36483398 10.78540039 13.99951172 C11.65576846 15.80902931 12.50028096 17.63091358 13.34375 19.453125 C17.07418486 25.8707375 22.7427684 27.95099061 29.3125 30.6875 C30.92206879 31.35921988 32.52896938 32.03737782 34.1328125 32.72265625 C34.83937988 33.01664307 35.54594727 33.31062988 36.27392578 33.61352539 C38.35833865 34.71530168 39.6880152 35.80987971 41.1875 37.625 C41.5625 40.125 41.5625 40.125 41.1875 42.625 C39.18423482 45.02411769 37.18866245 46.27248584 34.3515625 47.52734375 C33.61679688 47.86056641 32.88203125 48.19378906 32.125 48.53710938 C30.59130961 49.21716635 29.05745706 49.89685775 27.5234375 50.57617188 C20.84721879 53.60498089 16.39819202 56.3374156 13.1875 63.1875 C12.6821875 64.23679688 12.176875 65.28609375 11.65625 66.3671875 C10.6952408 68.49878769 9.77647136 70.65006532 8.90625 72.8203125 C7.7936303 75.5519365 6.74440283 78.11899424 5.1875 80.625 C1.875 81.8125 1.875 81.8125 -0.8125 81.625 C-5.04450437 76.8851551 -7.20844404 71.64917038 -9.63671875 65.86328125 C-13.47133223 57.23158158 -19.56716898 53.96067518 -28 50.5 C-29.60040261 49.8373233 -31.19818708 49.16827948 -32.79296875 48.4921875 C-33.84327271 48.06075439 -33.84327271 48.06075439 -34.91479492 47.62060547 C-36.99242234 46.53060616 -38.30312916 45.4147926 -39.8125 43.625 C-40.5 41.25 -40.5 41.25 -39.8125 38.625 C-36.1561492 35.84617339 -32.47933469 33.94379049 -28.33984375 31.96484375 C-27.72834473 31.67077637 -27.1168457 31.37670898 -26.48681641 31.07373047 C-24.69358955 30.22014884 -22.88798341 29.39272394 -21.08203125 28.56640625 C-14.12639659 24.43623847 -11.60506286 18.57827084 -8.625 11.375 C-7.94817252 9.76387019 -7.2673613 8.15440647 -6.58203125 6.546875 C-6.28917236 5.84143555 -5.99631348 5.13599609 -5.69458008 4.40917969 C-4.2464969 1.4801479 -3.19732817 0.71051737 0 0 Z " fill="#FCE9B8" transform="translate(87.8125,59.375)"/>
<path d="M0 0 C3.0625 0.375 3.0625 0.375 4.51953125 1.875 C7.07428468 6.01434732 8.88160349 10.51584838 10.75 15 C14.84388004 24.19498454 21.30860818 27.93046381 30.375 31.625 C31.97696376 32.29280351 33.57731076 32.96450259 35.17578125 33.640625 C35.87485596 33.92711914 36.57393066 34.21361328 37.29418945 34.50878906 C39.0625 35.375 39.0625 35.375 41.0625 37.375 C41.6875 39.6875 41.6875 39.6875 41.0625 42.375 C37.36600657 45.16622973 33.43895389 47.18328355 29.33203125 49.29296875 C28.67146729 49.63610107 28.01090332 49.9792334 27.33032227 50.33276367 C26.00771953 51.01590839 24.678878 51.68713642 23.34350586 52.3449707 C15.61981337 56.29808879 13.18253714 61.85945804 10 69.5 C9.32828012 71.10956879 8.65012218 72.71646938 7.96484375 74.3203125 C7.67085693 75.02687988 7.37687012 75.73344727 7.07397461 76.46142578 C5.97305425 78.54421936 4.8795025 79.88021454 3.0625 81.375 C0.6875 81.5625 0.6875 81.5625 -1.9375 80.375 C-4.67690625 76.69842846 -6.61853312 73.05587162 -8.5625 68.90625 C-8.85205566 68.29418701 -9.14161133 67.68212402 -9.43994141 67.05151367 C-10.27932876 65.25836245 -11.08952465 63.45163458 -11.8984375 61.64453125 C-16.63028742 54.05725465 -24.72206241 51.55129442 -32.79296875 48.58984375 C-35.05640192 47.67020672 -36.98407541 46.84496064 -38.9375 45.375 C-39.9765625 41.6171875 -39.9765625 41.6171875 -39.9375 38.375 C-33.93765096 34.41509963 -27.73238608 31.30209782 -21.20703125 28.31640625 C-14.25139659 24.18623847 -11.73006286 18.32827084 -8.75 11.125 C-8.07317252 9.51387019 -7.3923613 7.90440647 -6.70703125 6.296875 C-6.41417236 5.59143555 -6.12131348 4.88599609 -5.81958008 4.15917969 C-4.31414913 1.11415079 -3.39342534 0.43320324 0 0 Z " fill="#FCE9B8" transform="translate(422.9375,59.625)"/>
<path d="M0 0 C6.2312775 1.72029133 12.34262515 2.78224021 18.76171875 3.5078125 C21.48051644 3.96518034 23.33050108 4.61218068 25.6875 6 C24.93726563 6.77601563 24.18703125 7.55203125 23.4140625 8.3515625 C13.97005112 18.2610254 5.22609109 28.58398404 -0.375 41.20703125 C-1.3125 43 -1.3125 43 -3.3125 44 C-5.21337891 43.43017578 -5.21337891 43.43017578 -7.5390625 42.4453125 C-8.39870605 42.08211914 -9.25834961 41.71892578 -10.14404297 41.34472656 C-11.5268042 40.74096191 -11.5268042 40.74096191 -12.9375 40.125 C-13.87867676 39.71733398 -14.81985352 39.30966797 -15.78955078 38.88964844 C-26.97481696 33.95168407 -37.44384143 28.21850729 -47.3125 21 C-45.33788709 18.64009676 -43.34480931 16.30964906 -41.3125 14 C-40.58740234 13.17242187 -40.58740234 13.17242187 -39.84765625 12.328125 C-27.03721664 -1.36242115 -17.93666274 -4.99904901 0 0 Z " fill="#FCCBBC" transform="translate(218.3125,394)"/>
<path d="M0 0 C12.93728628 0 21.69085133 1.78158378 31 11 C33.33933223 13.84610223 35.23726094 16.76831173 37 20 C37.3403125 20.61359375 37.680625 21.2271875 38.03125 21.859375 C41.28706825 28.91364787 41.17874168 37.67241317 39.16796875 45.0546875 C37.80376609 48.58015504 36.68862069 51.31137931 34 54 C33.31035156 53.45730469 32.62070312 52.91460937 31.91015625 52.35546875 C20.36547222 43.56630601 14.4901931 43.03267954 -1 42 C-0.67 28.14 -0.34 14.28 0 0 Z " fill="#F9D9CA" transform="translate(424,211)"/>
<path d="M0 0 C0.33 13.86 0.66 27.72 1 42 C-6.92 42.495 -6.92 42.495 -15 43 C-21.63790495 45.08832965 -26.61064329 47.64264777 -32 52 C-32.33 52.66 -32.66 53.32 -33 54 C-33.66 54 -34.32 54 -35 54 C-37.5277153 49.36781476 -39.58937733 45.33809473 -40 40 C-40.07476562 39.13632813 -40.14953125 38.27265625 -40.2265625 37.3828125 C-40.71127349 27.5610371 -37.98971973 19.32456771 -31.8125 11.625 C-22.5893853 1.97991273 -13.08867422 0 0 0 Z " fill="#F9C8B9" transform="translate(88,211)"/>
<path d="M0 0 C1.8253125 -0.02513672 1.8253125 -0.02513672 3.6875 -0.05078125 C7.26602921 0.34167537 8.59493765 0.67306963 11 3.3125 C12.08984375 5.9921875 12.08984375 5.9921875 12.9375 9.1875 C14.28542279 14.01845528 15.87448876 18.56197041 17.8125 23.1875 C21.01517686 31.51445985 21.01517686 31.51445985 19 36.3125 C14.48255652 41.3933198 9.80880835 44.84920065 2.94921875 45.68359375 C-4.43958529 45.83402449 -9.42609935 45.36583135 -15 40.3125 C-20.53653168 34.98652993 -22.99613202 30.19245403 -23.375 22.4375 C-23.20636257 16.18854646 -21.4349259 11.84222834 -17.09375 7.33203125 C-11.42363239 2.2014211 -7.81103079 0.02482319 0 0 Z " fill="#D0D5FB" transform="translate(82,267.6875)"/>
<path d="M0 0 C7.55864798 1.95460946 12.51795965 7.89923768 16.4375 14.375 C17.91836586 21.28570736 17.57008425 27.51775886 14.40625 33.890625 C11.19600196 38.70599707 6.41873254 42.87657801 1 45 C-8.98636202 46.08455554 -15.84156509 44.01695351 -23.6171875 37.79296875 C-25.72353453 35.06185777 -25.93359584 33.48817158 -26 30 C-25.00190679 26.22553663 -23.61095286 22.63209291 -22.1875 19 C-21.45136717 17.06267311 -20.71567754 15.12517775 -19.98046875 13.1875 C-19.63032715 12.28515625 -19.28018555 11.3828125 -18.91943359 10.453125 C-18.17804449 8.47503744 -17.53564001 6.46001341 -16.92578125 4.4375 C-14.36792829 -2.29710019 -5.89879142 -0.54579565 0 0 Z " fill="#E8ECFB" transform="translate(436,268)"/>
<path d="M0 0 C2.03796439 2.64400628 3.82508804 5.34021891 5.5625 8.1875 C12.01049107 17.8357225 21.00194364 23.50639521 31 29 C31.99 29.66 32.98 30.32 34 31 C33.41992188 31.79792969 32.83984375 32.59585938 32.2421875 33.41796875 C29.07963801 38.15066704 27.19187699 43.50920387 25.17578125 48.80664062 C24.25160838 51.03975157 23.39388536 53.02446438 22 55 C18.7421875 56.04296875 18.7421875 56.04296875 16 56 C11.76799563 51.2601551 9.60405596 46.02417038 7.17578125 40.23828125 C3.34116777 31.60658158 -2.75466898 28.33567518 -11.1875 24.875 C-12.78790261 24.2123233 -14.38568708 23.54327948 -15.98046875 22.8671875 C-16.68067139 22.57956543 -17.38087402 22.29194336 -18.10229492 21.99560547 C-20.17992234 20.90560616 -21.49062916 19.7897926 -23 18 C-23.6875 15.625 -23.6875 15.625 -23 13 C-17.7077387 8.97788141 -11.62262307 6.2305224 -5.66162109 3.32275391 C-2.62526694 1.97045781 -2.62526694 1.97045781 0 0 Z " fill="#F3D17E" transform="translate(71,85)"/>
<path d="M0 0 C1.16226046 1.74339069 2.32314572 3.48770277 3.48046875 5.234375 C11.50641743 17.06208885 20.72532109 24.54555273 34 30 C28.140625 41.71875 28.140625 41.71875 27.07226562 43.84765625 C26.34390181 45.30969071 25.62413097 46.77603121 24.91210938 48.24609375 C24.56470703 48.95894531 24.21730469 49.67179687 23.859375 50.40625 C23.54967773 51.04884766 23.23998047 51.69144531 22.92089844 52.35351562 C22 54 22 54 20 56 C17.6875 56.125 17.6875 56.125 15 55 C12.26059375 51.32342846 10.31896688 47.68087162 8.375 43.53125 C8.08544434 42.91918701 7.79588867 42.30712402 7.49755859 41.67651367 C6.65817124 39.88336245 5.84797535 38.07663458 5.0390625 36.26953125 C0.30721258 28.68225465 -7.78456241 26.17629442 -15.85546875 23.21484375 C-18.11890192 22.29520672 -20.04657541 21.46996064 -22 20 C-23.0390625 16.2421875 -23.0390625 16.2421875 -23 13 C-17.41348049 9.31289712 -11.66933595 6.25067156 -5.66162109 3.32397461 C-2.62550628 1.97050027 -2.62550628 1.97050027 0 0 Z " fill="#F4D17E" transform="translate(406,85)"/>
<path d="M0 0 C4.35763098 0.90441398 6.74472944 3.08333513 10.06640625 5.9609375 C15.38832838 10.0518759 20.81348323 10.4911952 27.3125 9.6875 C31.68725611 8.26011044 35.05550622 6.01283631 38.4375 2.9375 C41.3125 0.6875 41.3125 0.6875 44.4375 0.125 C47.3125 0.6875 47.3125 0.6875 49.6875 2.25 C51.94576454 5.63739681 51.87366268 7.6892159 51.3125 11.6875 C48.35863359 17.19243286 42.66161926 19.85417655 37.3125 22.6875 C36.66152344 23.03296875 36.01054687 23.3784375 35.33984375 23.734375 C27.22398399 27.38737345 17.08759899 26.69933703 8.8046875 23.875 C2.87788415 21.05094323 -3.02397569 17.18278647 -6.6875 11.6875 C-7.11410463 7.77695759 -7.27396281 5.56719422 -5.0625 2.25 C-2.6875 0.6875 -2.6875 0.6875 0 0 Z " fill="#050505" transform="translate(233.6875,267.3125)"/>
<path d="M0 0 C0.804375 0.66 1.60875 1.32 2.4375 2 C4.92819774 4.28593443 4.92819774 4.28593443 8.5 4.5 C12.06809944 4.29264354 12.06809944 4.29264354 14.5 2 C17 0 17 0 20.5625 -0.5 C24 0 24 0 26.4375 1.625 C28.51114192 4.77693571 28.66859841 6.28556438 28 10 C24.55329179 15.55920679 20.29100012 18.26924572 14 20 C6.89423474 20.99056187 0.84283692 20.33132041 -5 16 C-7.43621195 13.88622787 -9.42616299 11.82923228 -11 9 C-11.14103153 5.33318022 -10.75909256 3.84343618 -8.3125 1.125 C-5.24698338 -0.36633241 -3.37622756 -0.48231822 0 0 Z " fill="#050404" transform="translate(175,249)"/>
<path d="M0 0 C1.6825613 1.31321858 3.34997172 2.64613064 5 4 C8 4.66666667 8 4.66666667 11 4 C11.78375 3.34 12.5675 2.68 13.375 2 C17.16424036 -0.88704027 19.30706456 -0.52984755 24 0 C26 1 26 1 27 3 C27.89563075 7.88525865 27.89563075 7.88525865 27 11 C22.72316123 16.42788921 17.58142395 19.42532661 10.7578125 20.28125 C3.83520761 20.71256495 -1.25851585 18.81368655 -7 15 C-9.97931733 12.23349105 -10.84856647 10.92753036 -11.5 6.9375 C-11 4 -11 4 -9.4375 1.625 C-6.05010319 -0.63326454 -3.9982841 -0.56116268 0 0 Z " fill="#040404" transform="translate(320,249)"/>
</svg>
