<?xml version="1.0" encoding="UTF-8"?>
<svg version="1.1" xmlns="http://www.w3.org/2000/svg" width="512" height="512">
<path d="M0 0 C4.20082988 3.45985677 8.10999234 7.19505082 12 11 C12.82242187 11.77214844 13.64484375 12.54429688 14.4921875 13.33984375 C19.8054202 18.42945554 24.04838066 23.80210053 28 30 C28.58652344 30.89203125 29.17304688 31.7840625 29.77734375 32.703125 C33.60820973 38.83921668 36.23196332 45.05942701 38.53076172 51.8815918 C49.89914066 85.39744692 66.81317392 116.42147375 96.125 137.4375 C109.32706343 147.27565738 116.49500172 161.57860446 119.27709961 177.64916992 C122.09623094 197.35929911 119.06076754 215.44445741 113.3125 234.25 C108.95091322 248.65981356 108.11234315 259.92864528 115.4375 273.703125 C119.88517853 281.01613489 125.31332294 287.61837824 130.64208984 294.29638672 C148.78439473 317.05744453 159.62453566 341.34265108 157.75390625 370.88671875 C154.57347441 396.02057395 141.87222499 417.33002842 122.16137695 432.96191406 C104.40964106 446.5294629 83.08926392 454.42612055 61 457 C60.87625 457.639375 60.7525 458.27875 60.625 458.9375 C60.315625 459.9584375 60.315625 459.9584375 60 461 C57.57396482 462.21301759 56.03851775 462.12749913 53.32695103 462.13142776 C51.83982651 462.13718948 51.83982651 462.13718948 50.32265908 462.1430676 C48.67692316 462.14176787 48.67692316 462.14176787 46.99794006 462.14044189 C45.83861904 462.14341302 44.67929802 462.14638414 43.48484606 462.1494453 C40.25710113 462.15664052 37.02938856 462.15930577 33.80163682 462.16004276 C30.32441173 462.16189046 26.84719826 462.16943628 23.36997986 462.17617798 C15.76270305 462.18977271 8.15543151 462.1957876 0.54814458 462.20018864 C-4.19878104 462.20294875 -8.94570462 462.20718564 -13.69262886 462.21169281 C-26.82702856 462.22388624 -39.96142663 462.23418588 -53.09583187 462.2375679 C-54.35729687 462.23789725 -54.35729687 462.23789725 -55.64424602 462.23823325 C-56.90877999 462.23856067 -56.90877999 462.23856067 -58.19886011 462.2388947 C-59.90723161 462.23933817 -61.61560311 462.23978474 -63.32397461 462.24023438 C-64.17139127 462.2404558 -65.01880793 462.24067723 -65.89190388 462.24090537 C-79.63114324 462.2448556 -93.37032962 462.26231612 -107.1095485 462.2855939 C-121.2042731 462.30928194 -135.29897108 462.32176856 -149.39371592 462.32293582 C-157.31193937 462.32385394 -165.23009378 462.32964072 -173.14829826 462.34775543 C-179.88913856 462.36312201 -186.6298885 462.3682973 -193.37074297 462.36001733 C-196.81212445 462.35609872 -200.25332377 462.35709892 -203.69468307 462.37107468 C-207.42026698 462.38367336 -211.14537675 462.37798326 -214.87095642 462.36749268 C-216.51334625 462.37957728 -216.51334625 462.37957728 -218.18891567 462.39190602 C-219.18293976 462.38531618 -220.17696385 462.37872633 -221.20110989 462.3719368 C-222.49186181 462.37283243 -222.49186181 462.37283243 -223.80868953 462.37374616 C-226.48226666 461.91774542 -227.39010553 461.14875481 -229 459 C-229 458.34 -229 457.68 -229 457 C-230.01835937 456.85304688 -231.03671875 456.70609375 -232.0859375 456.5546875 C-262.71747579 451.83510193 -291.39485342 437.78802759 -310.125 412.4375 C-319.64094749 399.03215583 -325.01570423 383.42543558 -326 367 C-326.061875 365.99839844 -326.061875 365.99839844 -326.125 364.9765625 C-326.89149209 339.20326607 -316.0700108 316.06393454 -300.14453125 296.484375 C-282.94305994 275.70535894 -282.94305994 275.70535894 -277.40625 249.9296875 C-278.35071885 243.67879498 -280.35652466 237.79445025 -282.28271484 231.78613281 C-290.07310438 207.32470614 -291.77847587 180.11265687 -280.3125 156.5 C-274.93450189 146.19904593 -267.84191655 139.37988713 -258.37133789 132.87817383 C-231.49843516 114.16717947 -215.95570542 81.09499661 -206.3125 50.8125 C-200.1279494 31.7365044 -186.96278291 15.24588655 -169 6.0625 C-160.25642065 1.98791532 -152.44516118 -0.00110725 -142.8125 -0.125 C-137.57382351 -0.41667304 -135.15381055 -1.08291668 -131.5625 -4.9375 C-130.86511719 -5.74703125 -130.16773438 -6.5565625 -129.44921875 -7.390625 C-93.40747662 -45.78916366 -35.80870269 -27.60960174 0 0 Z " fill="#553A6D" transform="translate(340,41)"/>
<path d="M0 0 C19.21883173 16.38842196 29.53745739 41.92175649 40.25 64.1875 C40.7030249 65.12795166 41.1560498 66.06840332 41.62280273 67.03735352 C44.07691671 72.20109228 46.26641593 77.36466597 48.1875 82.75 C47.39166504 82.72381592 46.59583008 82.69763184 45.77587891 82.6706543 C42.12162529 82.56583003 38.46768921 82.50140191 34.8125 82.4375 C33.56082031 82.39560547 32.30914062 82.35371094 31.01953125 82.31054688 C22.82486781 82.20328688 17.11184734 83.26948053 10.1875 87.75 C10.02062552 90.16645782 10.02062552 90.16645782 10.1875 92.75 C10.8475 93.41 11.5075 94.07 12.1875 94.75 C14.13018716 94.76770048 14.13018716 94.76770048 16.375 94.375 C27.73333008 93.016583 38.9893899 93.38789865 50.1875 95.75 C51.36570312 95.94980469 52.54390625 96.14960938 53.7578125 96.35546875 C58.44779241 98.26244236 59.70898066 100.87015941 62.0625 105.1875 C62.91725988 106.65060838 63.77799734 108.1102402 64.64453125 109.56640625 C65.06943848 110.28199707 65.4943457 110.99758789 65.93212891 111.73486328 C68.87092356 116.45225166 72.53134547 120.58353415 76.1875 124.75 C76.91710937 125.61238281 77.64671875 126.47476563 78.3984375 127.36328125 C84.17443148 134.04114095 90.53201957 139.77205302 97.984375 144.5390625 C100.1875 146.75 100.1875 146.75 100.6328125 149.80078125 C100.05557637 154.91995433 99.13931971 159.90147657 98.0625 164.9375 C97.8365918 165.99541748 97.61068359 167.05333496 97.37792969 168.14331055 C90.30788648 200.3816437 78.1602693 229.80937457 49.6015625 248.63671875 C39.79504482 254.77491399 29.75639912 259.49508998 19 263.75 C17.99533691 264.14832031 16.99067383 264.54664063 15.95556641 264.95703125 C15.0072998 265.32183594 14.0590332 265.68664062 13.08203125 266.0625 C12.23487549 266.38863281 11.38771973 266.71476562 10.51489258 267.05078125 C8.1875 267.75 8.1875 267.75 4.1875 267.75 C6.67293816 282.30434319 6.67293816 282.30434319 14.1875 294.75 C14.93 295.78125 15.6725 296.8125 16.4375 297.875 C19.68764955 300.09101106 20.5368406 299.85653337 24.3125 299.375 C25.16070312 299.20226562 26.00890625 299.02953125 26.8828125 298.8515625 C29.1875 298.75 29.1875 298.75 30.98046875 300.01171875 C32.75022701 302.56039975 32.38867943 304.73230858 32.1875 307.75 C33.91431437 308.25806447 35.64407979 308.75610467 37.375 309.25 C38.33792969 309.5284375 39.30085937 309.806875 40.29296875 310.09375 C43.09137024 310.7282054 45.33544072 311.01842911 48.1875 310.75 C49.1775 310.09 50.1675 309.43 51.1875 308.75 C54.01829592 308.39615051 55.55580089 308.3579109 58 309.875 C59.67856106 312.52535957 59.39200238 314.68246424 59.1875 317.75 C60.05761719 318.01425781 60.92773438 318.27851563 61.82421875 318.55078125 C70.87958425 321.77958172 78.88968769 327.58883811 86.1875 333.75 C87.38826172 334.74966797 87.38826172 334.74966797 88.61328125 335.76953125 C105.21346226 350.09783679 121.85270564 373.1803212 124.1875 395.75 C123.01069355 397.45296729 123.01069355 397.45296729 121.1875 398.75 C118.9973402 399.12604749 118.9973402 399.12604749 116.3914032 399.12752342 C115.39799581 399.13534666 114.40458841 399.14316991 113.38107777 399.15123022 C112.28683333 399.14453805 111.1925889 399.13784589 110.06518555 399.13095093 C108.9050101 399.1356309 107.74483465 399.14031087 106.54950237 399.14513266 C103.32391029 399.15505033 100.09865505 399.1514512 96.87307119 399.14217401 C93.39653289 399.13540299 89.92004111 399.14585503 86.44351196 399.15411377 C79.63091805 399.16747419 72.81842312 399.16456313 66.00582528 399.15587585 C60.47053987 399.14910876 54.93528226 399.14817834 49.3999939 399.1514473 C48.61306394 399.151907 47.82613399 399.15236669 47.01535767 399.15284032 C45.41687146 399.15379947 43.81838526 399.15477211 42.21989906 399.1557581 C27.22053482 399.16431875 12.22122553 399.15446728 -2.7781297 399.138357 C-15.65647597 399.1249532 -28.53474113 399.1272811 -41.41308594 399.14111328 C-56.35769964 399.15715719 -71.30226514 399.16349472 -86.24688625 399.15427649 C-87.83958879 399.15332081 -89.43229134 399.1523777 -91.0249939 399.1514473 C-92.20054422 399.15075306 -92.20054422 399.15075306 -93.39984304 399.15004479 C-98.93036161 399.14745133 -104.46084968 399.15183356 -109.99136353 399.15888596 C-116.72853339 399.16728796 -123.46559836 399.16504831 -130.20275617 399.14904372 C-133.64210997 399.14114338 -137.0812887 399.13809915 -140.52064133 399.14799118 C-144.24399982 399.15613604 -147.96685923 399.14597026 -151.69018555 399.13095093 C-153.3315522 399.14098918 -153.3315522 399.14098918 -155.00607777 399.15123022 C-155.99948516 399.14340697 -156.99289255 399.13558373 -158.0164032 399.12752342 C-158.87636241 399.12703637 -159.73632162 399.12654931 -160.6223402 399.12604749 C-162.8125 398.75 -162.8125 398.75 -164.63569355 397.45296729 C-165.8125 395.75 -165.8125 395.75 -165.4375 392.125 C-157.36498731 361.98761928 -137.5129139 337.368446 -110.8125 321.75 C-103.63412162 317.75 -103.63412162 317.75 -100.8125 317.75 C-100.874375 316.821875 -100.93625 315.89375 -101 314.9375 C-100.8125 311.75 -100.8125 311.75 -99.75 309.8125 C-96.62901045 308.1009896 -94.16716116 308.95708009 -90.8125 309.75 C-90.1525 310.41 -89.4925 311.07 -88.8125 311.75 C-87.56533203 311.316875 -87.56533203 311.316875 -86.29296875 310.875 C-85.20628906 310.50375 -84.11960937 310.1325 -83 309.75 C-81.92105469 309.37875 -80.84210938 309.0075 -79.73046875 308.625 C-76.8125 307.75 -76.8125 307.75 -73.8125 307.75 C-73.874375 306.821875 -73.93625 305.89375 -74 304.9375 C-73.8125 301.75 -73.8125 301.75 -72.59765625 300.00390625 C-70.8125 298.75 -70.8125 298.75 -68.578125 298.921875 C-67.74796875 299.11265625 -66.9178125 299.3034375 -66.0625 299.5 C-62.25449932 299.99529239 -62.25449932 299.99529239 -58.77734375 298.62109375 C-49.91955369 290.23052778 -47.70259573 279.27497399 -45.8125 267.75 C-47.74416016 267.36521484 -47.74416016 267.36521484 -49.71484375 266.97265625 C-54.80822746 265.835376 -59.54354097 264.14193203 -64.375 262.1875 C-65.24125 261.83743896 -66.1075 261.48737793 -67 261.12670898 C-95.11629354 249.46577557 -116.31333288 230.72539836 -128.8125 202.75 C-136.0384438 184.66261356 -144.74119937 159.51916851 -142.8125 139.75 C-141.5625 137.5390625 -141.5625 137.5390625 -139.8125 135.375 C-125.55590822 116.10856171 -117.96573476 91.02391487 -110.25 68.625 C-102.27500914 45.50977323 -102.27500914 45.50977323 -97.5625 34.265625 C-97.25070297 33.51940887 -96.93890594 32.77319275 -96.61766052 32.00436401 C-91.37175641 19.75831415 -84.61394311 7.23246317 -73.015625 0.0078125 C-69.1409031 -1.51372464 -66.39130179 -1.37997588 -62.25 -1.125 C-54.18599089 -0.83593399 -48.17964391 -2.97685389 -40.8125 -6.25 C-27.01187483 -11.47114907 -11.70989151 -8.58725378 0 0 Z " fill="#FEA5A1" transform="translate(276.8125,104.25)"/>
<path d="M0 0 C3.359375 1.5234375 3.359375 1.5234375 6.75 3.375 C25.09764548 12.99847202 48.18814762 13.63135127 68 8 C74.78720177 5.78409433 81.2732017 3.32354309 87 -1 C90.16909182 -1.38805206 92.10703881 -1.53577671 94.875 0.125 C96.4682099 2.78034983 96.20214032 4.96789518 96 8 C97.72681437 8.50806447 99.45657979 9.00610467 101.1875 9.5 C102.15042969 9.7784375 103.11335937 10.056875 104.10546875 10.34375 C106.90387024 10.9782054 109.14794072 11.26842911 112 11 C112.99 10.34 113.98 9.68 115 9 C117.83079592 8.64615051 119.36830089 8.6079109 121.8125 10.125 C123.49106106 12.77535957 123.20450238 14.93246424 123 18 C123.87011719 18.26425781 124.74023438 18.52851563 125.63671875 18.80078125 C134.69208425 22.02958172 142.70218769 27.83883811 150 34 C150.80050781 34.66644531 151.60101563 35.33289063 152.42578125 36.01953125 C169.02596226 50.34783679 185.66520564 73.4303212 188 96 C186.82319355 97.70296729 186.82319355 97.70296729 185 99 C182.8098402 99.37604749 182.8098402 99.37604749 180.2039032 99.37752342 C178.71379211 99.38925829 178.71379211 99.38925829 177.19357777 99.40123022 C176.09933333 99.39453805 175.0050889 99.38784589 173.87768555 99.38095093 C172.13742238 99.38797089 172.13742238 99.38797089 170.36200237 99.39513266 C167.13641029 99.40505033 163.91115505 99.4014512 160.68557119 99.39217401 C157.20903289 99.38540299 153.73254111 99.39585503 150.25601196 99.40411377 C143.44341805 99.41747419 136.63092312 99.41456313 129.81832528 99.40587585 C124.28303987 99.39910876 118.74778226 99.39817834 113.2124939 99.4014473 C112.42556394 99.401907 111.63863399 99.40236669 110.82785767 99.40284032 C109.22937146 99.40379947 107.63088526 99.40477211 106.03239906 99.4057581 C91.03303482 99.41431875 76.03372553 99.40446728 61.0343703 99.388357 C48.15602403 99.3749532 35.27775887 99.3772811 22.39941406 99.39111328 C7.45480036 99.40715719 -7.48976514 99.41349472 -22.43438625 99.40427649 C-24.02708879 99.40332081 -25.61979134 99.4023777 -27.2124939 99.4014473 C-28.38804422 99.40075306 -28.38804422 99.40075306 -29.58734304 99.40004479 C-35.11786161 99.39745133 -40.64834968 99.40183356 -46.17886353 99.40888596 C-52.91603339 99.41728796 -59.65309836 99.41504831 -66.39025617 99.39904372 C-69.82960997 99.39114338 -73.2687887 99.38809915 -76.70814133 99.39799118 C-80.43149982 99.40613604 -84.15435923 99.39597026 -87.87768555 99.38095093 C-88.97192998 99.38764309 -90.06617441 99.39433526 -91.19357777 99.40123022 C-92.18698516 99.39340697 -93.18039255 99.38558373 -94.2039032 99.37752342 C-95.06386241 99.37703637 -95.92382162 99.37654931 -96.8098402 99.37604749 C-99 99 -99 99 -100.82319355 97.70296729 C-102 96 -102 96 -101.625 92.375 C-93.55248731 62.23761928 -73.7004139 37.618446 -47 22 C-39.82162162 18 -39.82162162 18 -37 18 C-37.0928125 16.6078125 -37.0928125 16.6078125 -37.1875 15.1875 C-37 12 -37 12 -35.9375 10.0625 C-32.81651045 8.3509896 -30.35466116 9.20708009 -27 10 C-26.01 10.99 -26.01 10.99 -25 12 C-24.16855469 11.71125 -23.33710938 11.4225 -22.48046875 11.125 C-21.39378906 10.75375 -20.30710937 10.3825 -19.1875 10 C-18.10855469 9.62875 -17.02960938 9.2575 -15.91796875 8.875 C-13 8 -13 8 -10 8 C-10.061875 7.071875 -10.12375 6.14375 -10.1875 5.1875 C-10 2 -10 2 -8.9375 0.0625 C-5.82737284 -1.6430536 -3.40395032 -0.69618306 0 0 Z " fill="#FEDFDE" transform="translate(213,404)"/>
<path d="M0 0 C3.359375 1.5234375 3.359375 1.5234375 6.75 3.375 C25.09764548 12.99847202 48.18814762 13.63135127 68 8 C74.78720177 5.78409433 81.2732017 3.32354309 87 -1 C90.16909182 -1.38805206 92.10703881 -1.53577671 94.875 0.125 C96.4682099 2.78034983 96.20214032 4.96789518 96 8 C96.74765625 8.19335938 97.4953125 8.38671875 98.265625 8.5859375 C99.25046875 8.84632813 100.2353125 9.10671875 101.25 9.375 C102.22453125 9.63023437 103.1990625 9.88546875 104.203125 10.1484375 C106.65837303 10.89598509 108.75617405 11.77123817 111 13 C111.69039836 26.86550036 110.13350027 38.28008654 101.26171875 49.5625 C89.78900548 61.92687492 71.97844342 67.40149716 55.50585938 68.16113281 C52.2118184 68.19890448 48.91825915 68.23112169 45.62402344 68.24023438 C43.532784 68.24984927 41.44256843 68.28089292 39.3515625 68.3125 C20.95625278 68.45634376 1.08707904 64.62867462 -13.13671875 52.12109375 C-24.01781183 40.43749055 -25.39759634 27.3295476 -25 12 C-23.06441401 11.32779649 -21.12645628 10.66241923 -19.1875 10 C-18.10855469 9.62875 -17.02960938 9.2575 -15.91796875 8.875 C-13 8 -13 8 -10 8 C-10.061875 7.071875 -10.12375 6.14375 -10.1875 5.1875 C-10 2 -10 2 -8.9375 0.0625 C-5.82737284 -1.6430536 -3.40395032 -0.69618306 0 0 Z " fill="#FEFEFE" transform="translate(213,404)"/>
<path d="M0 0 C19.56026575 16.29536298 30.07415866 41.456066 40.40966797 64.06860352 C44.30464177 72.57859557 48.46960937 80.81405279 53 89 C53.52980469 90.05445313 54.05960938 91.10890625 54.60546875 92.1953125 C57.457854 98.12542605 57.457854 98.12542605 62.3125 102.3125 C65 104 65 104 65.75 106.9375 C65.8325 107.948125 65.915 108.95875 66 110 C68.05626971 116.4125937 72.70382067 120.9599838 77 126 C77.63164062 126.77988281 78.26328125 127.55976563 78.9140625 128.36328125 C88.99257738 140.43605546 102.46153159 148.57412237 116.8203125 154.63671875 C121.56739409 156.6720154 121.56739409 156.6720154 123 159 C122.86297411 161.7405179 122.28539969 163.49635349 120.9375 165.875 C117.75161476 167.72486885 114.44762067 166.76137667 111 166 C108.27617457 165.00149966 105.74827257 163.733062 103.1875 162.375 C102.49027832 162.01237061 101.79305664 161.64974121 101.07470703 161.27612305 C99.0387527 160.20322159 97.01736052 159.10739775 95 158 C93.52080078 157.19369141 93.52080078 157.19369141 92.01171875 156.37109375 C73.47787123 145.41553055 59.95308938 127.1521915 49 109 C49 108.34 49 107.68 49 107 C34.66670083 104.24050502 20.49980046 102.6250336 5.953125 105.07421875 C4 105 4 105 2.27734375 103.66796875 C1 102 1 102 0.3125 99.625 C1.16318242 96.37693983 2.04119411 96.01263205 4.8125 94.25 C9.41010969 91.60365271 12.89596882 90.87744586 18.19921875 90.90234375 C20.01196289 90.90717773 20.01196289 90.90717773 21.86132812 90.91210938 C23.7552832 90.92467773 23.7552832 90.92467773 25.6875 90.9375 C27.59885742 90.94426758 27.59885742 90.94426758 29.54882812 90.95117188 C32.69926564 90.96297127 35.84960949 90.97943403 39 91 C38.69932617 90.37359619 38.39865234 89.74719238 38.08886719 89.10180664 C37.17351191 87.19481649 36.25832719 85.28774447 35.34326172 83.38061523 C34.26798788 81.14125778 33.19146072 78.90250175 32.11376953 76.66430664 C29.34103359 70.90137315 26.58672645 65.13151597 23.8828125 59.3359375 C8.4118392 25.50029148 8.4118392 25.50029148 -20.36328125 3.9453125 C-33.11768404 -0.62737709 -44.77498806 2.44666598 -57 7 C-57.81597656 7.38800781 -58.63195312 7.77601562 -59.47265625 8.17578125 C-62.94724178 9.30891502 -66.21889641 8.99679813 -69.8125 8.8125 C-75.40640856 8.69196339 -79.76304544 8.7767464 -84.28125 12.34375 C-85.13203125 13.16359375 -85.13203125 13.16359375 -86 14 C-86.6496875 14.6084375 -87.299375 15.216875 -87.96875 15.84375 C-105.7303199 34.15182975 -112.29380409 62.79938789 -120.46136475 86.34899902 C-124.79114966 98.811479 -129.40437418 111.04019253 -135 123 C-135.33306152 123.72364746 -135.66612305 124.44729492 -136.00927734 125.19287109 C-143.1861765 140.67581622 -152.81236071 158.23790041 -168 167 C-171.03303381 167.55146069 -172.21406064 167.48782443 -174.8125 165.875 C-176.59393085 163.06221445 -176.43108726 161.28105301 -176 158 C-174.17305385 155.97205978 -172.53890871 154.43181025 -170.4375 152.75 C-164.91912402 147.98997851 -160.77358109 143.28930182 -157 137 C-156.64260742 136.42024414 -156.28521484 135.84048828 -155.91699219 135.24316406 C-143.35730503 114.68620312 -135.83784315 91.7859896 -128.03601074 69.13241577 C-107.64967188 10.03410463 -107.64967188 10.03410463 -85.11328125 -2.0546875 C-81.17518679 -3.81627504 -77.78404176 -4.08519862 -73.46582031 -4.18945312 C-64.66344286 -4.43695762 -56.95749856 -6.10998 -48.609375 -8.84375 C-31.46435212 -14.33609499 -14.45921611 -10.32232897 0 0 Z " fill="#47305E" transform="translate(285,95)"/>
<path d="M0 0 C1.58357459 0.31127516 3.16684993 0.62407289 4.75 0.9375 C5.63171875 1.11152344 6.5134375 1.28554688 7.421875 1.46484375 C8.91518004 1.77481768 10.40433432 2.1123707 11.8737793 2.52075195 C21.72533087 4.74128195 34.50201295 4.00421216 43.94140625 0.65625 C46 0 46 0 50 0 C50.21914063 1.12277344 50.43828125 2.24554688 50.6640625 3.40234375 C52.44759174 12.01600114 54.17015168 19.15564376 60 26 C60.5671875 26.68964844 61.134375 27.37929688 61.71875 28.08984375 C63.11505584 29.7528967 64.55306183 31.38080729 66 33 C45.54454742 43.80423696 21.57666789 46.56918586 -0.8046875 39.859375 C-6.20951992 37.9940898 -11.16804492 36.08633257 -16 33 C-14.700625 31.5459375 -14.700625 31.5459375 -13.375 30.0625 C-12.24296757 28.71420666 -11.11827733 27.35972357 -10 26 C-9.4740625 25.38253906 -8.948125 24.76507813 -8.40625 24.12890625 C-2.94972667 16.98809893 -1.6851369 8.63384848 0 0 Z " fill="#FE8888" transform="translate(231,373)"/>
<path d="M0 0 C3.359375 1.5234375 3.359375 1.5234375 6.75 3.375 C25.09764548 12.99847202 48.18814762 13.63135127 68 8 C74.78720177 5.78409433 81.2732017 3.32354309 87 -1 C90.16909182 -1.38805206 92.10703881 -1.53577671 94.875 0.125 C96.52806085 2.88010142 96.33796686 4.83901588 96 8 C86.28539877 18.89877384 66.20084156 23.16905472 52.09082031 24.21582031 C30.1803501 25.19039803 9.1907879 22.13975359 -9 9 C-10 8 -10 8 -10.25 5.125 C-10 2 -10 2 -8.9375 0.0625 C-5.82737284 -1.6430536 -3.40395032 -0.69618306 0 0 Z " fill="#FBD6D3" transform="translate(213,404)"/>
<path d="M0 0 C4.17675156 3.11621986 7.76035466 6.68040443 11.37109375 10.42578125 C17.21326835 16.35876685 22.44953043 17.95482169 30.609375 18.3671875 C32.74609375 18.67578125 32.74609375 18.67578125 34.74609375 20.67578125 C35.12109375 24.11328125 35.12109375 24.11328125 34.74609375 27.67578125 C31.99042655 30.36938388 29.93535481 31.1070691 26.12109375 31.11328125 C15.00393751 30.68946004 8.46501953 25.14409256 0.74609375 17.67578125 C-0.78700428 16.31192132 -2.32790884 14.95675083 -3.87890625 13.61328125 C-4.53117187 13.04480469 -5.1834375 12.47632813 -5.85546875 11.890625 C-6.31695312 11.48972656 -6.7784375 11.08882813 -7.25390625 10.67578125 C-12.74350772 12.3045641 -15.8589681 16.10210781 -19.6171875 20.15625 C-26.29118467 27.14227821 -33.83307942 30.44503296 -43.44140625 31.11328125 C-47.25390625 30.67578125 -47.25390625 30.67578125 -50.31640625 28.48828125 C-52.25390625 25.67578125 -52.25390625 25.67578125 -52.19140625 22.98828125 C-51.25390625 20.67578125 -51.25390625 20.67578125 -49.25390625 18.67578125 C-46.05001327 18.11819766 -42.84596031 17.78367651 -39.61328125 17.43359375 C-33.15077963 15.97577362 -29.29234189 11.8868973 -24.87890625 7.17578125 C-17.74331763 -0.14115917 -10.05258948 -5.9061141 0 0 Z " fill="#FCD8D5" transform="translate(264.25390625,431.32421875)"/>
<path d="M0 0 C3.91743327 2.3031806 7.40837751 4.76433303 10.265625 8.33203125 C11.015625 11.58203125 11.015625 11.58203125 10.265625 14.33203125 C8.578125 16.26953125 8.578125 16.26953125 6.265625 17.33203125 C2.26568968 16.9187046 -0.2831772 15.5589909 -3.546875 13.26953125 C-4.33707031 12.72167969 -5.12726563 12.17382812 -5.94140625 11.609375 C-6.53308594 11.18785156 -7.12476563 10.76632813 -7.734375 10.33203125 C-7.6725 11.36328125 -7.610625 12.39453125 -7.546875 13.45703125 C-7.75111608 17.67801352 -8.42204516 19.82366874 -10.734375 23.33203125 C-14.3331237 26.50739775 -17.86328734 26.93207005 -22.515625 26.73046875 C-25.37201967 26.21752464 -27.48171022 25.11669151 -29.5859375 23.10546875 C-31.52005062 20.11877706 -31.93133539 16.92186757 -32.41015625 13.44140625 C-32.51867124 11.35057638 -32.51867124 11.35057638 -33.734375 10.33203125 C-34.171875 7.01953125 -34.171875 7.01953125 -33.734375 3.33203125 C-24.71160129 -4.61660273 -10.59328486 -4.96340996 0 0 Z " fill="#49315F" transform="translate(329.734375,212.66796875)"/>
<path d="M0 0 C2 2 2 2 2.1953125 4.74609375 C1.82078461 10.98572834 1.09425621 18.64601156 -3.5625 23.25 C-8.17207428 25.59669236 -11.92485713 25.9150508 -17 25 C-20.21725013 23.1902968 -21.54322539 21.82654453 -23.3125 18.625 C-24.08971478 15.65745265 -24.14209627 13.05506987 -24 10 C-27.0286516 11.03839484 -29.03787926 12.03219737 -31.5 14.125 C-34 16 -34 16 -36.625 16.4375 C-39 16 -39 16 -40.8125 14.875 C-42.55317777 12.12656142 -42.32615063 10.2018446 -42 7 C-31.80590822 -6.76081892 -14.36558813 -6.41070219 0 0 Z " fill="#49315F" transform="translate(214,214)"/>
<path d="M0 0 C9.67328608 1.9092012 9.67328608 1.9092012 11.8737793 2.52075195 C21.72533087 4.74128195 34.50201295 4.00421216 43.94140625 0.65625 C46 0 46 0 50 0 C50.99 4.95 51.98 9.9 53 15 C33.34205577 21.72066469 16.6239046 21.82570595 -3 15 C-2.01 10.05 -1.02 5.1 0 0 Z " fill="#EC465A" transform="translate(231,373)"/>
<path d="M0 0 C2.375 2.125 2.375 2.125 2.9375 4.6875 C2.2779724 7.54545295 1.71621355 8.39453781 -0.625 10.125 C-3.05078125 10.19921875 -3.05078125 10.19921875 -5.9375 9.8125 C-12.86489433 9.05023533 -19.66145479 8.95979134 -26.625 9.125 C-27.86830078 9.13273438 -27.86830078 9.13273438 -29.13671875 9.140625 C-35.6548371 9.45048462 -41.43443018 11.63825325 -47.47387695 13.95361328 C-51.84337828 15.61039735 -55.90982521 16.8403102 -60.625 17.125 C-62.625 15.125 -62.625 15.125 -63.0546875 12.71875 C-62.625 10.125 -62.625 10.125 -60.5703125 8.28125 C-59.63960937 7.7346875 -58.70890625 7.188125 -57.75 6.625 C-56.74066406 6.03203125 -55.73132813 5.4390625 -54.69140625 4.828125 C-53.17353516 3.98507813 -53.17353516 3.98507813 -51.625 3.125 C-50.37009766 2.40570313 -50.37009766 2.40570313 -49.08984375 1.671875 C-34.34225245 -6.28942632 -15.01016834 -8.54745697 0 0 Z " fill="#4B3260" transform="translate(223.625,189.875)"/>
<path d="M0 0 C2 3 2 3 1.75 6.0625 C1 9 1 9 -1 11 C-4.693507 11.20146402 -7.47940432 11.17353189 -11 10 C-13.37339402 9.90324293 -15.74963938 9.87020129 -18.125 9.875 C-18.79499023 9.8740332 -19.46498047 9.87306641 -20.15527344 9.87207031 C-23.92546142 9.89207613 -27.53140986 10.14864384 -31.25 10.75 C-35 11 -35 11 -37.125 9.4375 C-38.32623113 6.09121328 -38.21074087 4.34734241 -37 1 C-27.45666512 -5.15014915 -10.07426307 -5.35677445 0 0 Z " fill="#FC6E6E" transform="translate(274,289)"/>
<path d="M0 0 C1.6640625 1.16796875 1.6640625 1.16796875 3.6640625 4.16796875 C4.1743743 7.48499547 3.95105853 8.74851301 2.0390625 11.54296875 C-0.3359375 13.16796875 -0.3359375 13.16796875 -3.4609375 13.04296875 C-6.3359375 12.16796875 -6.3359375 12.16796875 -8.3359375 10.16796875 C-11.77759071 10.52095882 -13.40466288 11.21378567 -16.3359375 13.16796875 C-19.12352282 12.95889985 -20.84297458 12.50794318 -23.1484375 10.91796875 C-24.84739583 8.41424068 -24.90203555 7.13998351 -24.3359375 4.16796875 C-17.54966464 -4.16945219 -9.11108796 -4.73703975 0 0 Z " fill="#FF7C7C" transform="translate(266.3359375,246.83203125)"/>
<path d="M0 0 C6.14420544 -0.22252656 11.07247707 0.21055911 17 2 C19.33215844 2.07403678 21.66860788 2.09515886 24 2 C24.66964286 9.76785714 24.66964286 9.76785714 21.625 13.4375 C17.59411912 17.37240753 14.93936499 17.34426756 9.48046875 17.28125 C5.93311892 16.87903081 4.31281823 15.67419608 2 13 C-0.47903526 8.75022527 -0.16222402 4.78560862 0 0 Z " fill="#573B6D" transform="translate(190,222)"/>
<path d="M0 0 C0.28792938 5.56663461 0.22557511 9.2172507 -3 14 C-6.60462322 17.1805499 -10.12319564 17.56954504 -14.77734375 17.4296875 C-18.58350909 16.69387346 -20.35670706 14.77545759 -23 12 C-24.4783226 9.04335481 -24.06032783 6.25770263 -24 3 C-15.91038514 1.04170706 -8.34525522 -0.51917486 0 0 Z " fill="#573B6D" transform="translate(322,222)"/>
</svg>
