<?xml version="1.0" encoding="UTF-8"?>
<svg version="1.1" xmlns="http://www.w3.org/2000/svg" width="512" height="512">
<path d="M0 0 C8.84002784 -0.30050108 17.37687013 0.62537679 26.125 1.8125 C27.50793514 1.99403959 28.89091076 2.17527113 30.27392578 2.35620117 C37.51355787 3.31613557 44.70408454 4.42296269 51.875 5.8125 C62.91707332 7.84450945 69.74233943 6.17177371 79 0 C83.1059577 -0.46017159 87.24626502 -0.33192934 91.375 -0.3125 C92.62434326 -0.30686035 93.87368652 -0.3012207 95.16088867 -0.29541016 C128.00905734 0.11937575 160.13934416 6.16342873 191.33227539 16.24731445 C197.36618165 17.94975181 200.86109455 18.07986652 206.82421875 15.875 C207.76633965 15.53637939 207.76633965 15.53637939 208.72749329 15.19091797 C210.71920291 14.47366148 212.70358436 13.73851507 214.6875 13 C216.68263743 12.26321549 218.67895925 11.53068103 220.67964172 10.80908203 C222.48761994 10.15626856 224.29023344 9.48865398 226.0925293 8.8203125 C229 8 229 8 232 9 C236.6054143 16.12823316 238.98051764 25.97896959 239.125 34.375 C239.558125 36.169375 239.558125 36.169375 240 38 C241.93240814 39.14584919 241.93240814 39.14584919 244.25 40.1875 C248.88188186 42.91516376 249.95515495 45.82057277 251.26782227 50.79370117 C252.32508817 55.50612278 253.181198 60.24127686 254 65 C254.32127953 66.63287846 254.64288024 68.26569377 254.96484375 69.8984375 C261.68383953 107.2319727 257.72806039 149.13777413 244.37109375 184.51171875 C243.86242179 187.92249808 245.12257059 189.18166774 247 192 C249.56880866 200.2706036 249.55651948 208.05139322 246 216 C241.25990983 223.22963333 235.53954741 228.10546465 227 230 C225.33411953 230.05118627 223.66540015 230.06496242 222 230 C222.05220703 231.54107422 222.05220703 231.54107422 222.10546875 233.11328125 C222.51065511 250.01651015 218.27274616 263.73782258 206.734375 276.55078125 C199.57988496 282.95916018 191.90230868 287.29404995 183.0625 290.9375 C182.07628662 291.35499512 181.09007324 291.77249023 180.07397461 292.20263672 C177.0535767 293.47884753 174.02700989 294.73956808 171 296 C169.09317982 296.80463972 167.18690856 297.61058177 165.28125 298.41796875 C160.85884487 300.28996537 156.43120144 302.14892635 152 304 C151.94151517 308.33327584 151.90624084 312.66644885 151.875 317 C151.84986328 318.83111328 151.84986328 318.83111328 151.82421875 320.69921875 C151.58457703 333.00371508 151.58457703 333.00371508 157.1796875 343.6171875 C162.34906628 347.54414048 169.55678072 350.24451365 176 351 C178.47244363 349.92793176 178.47244363 349.92793176 180.86328125 348.69140625 C187.7088966 346.47628026 194.23544682 348.67333539 200.765625 350.8515625 C201.68027527 351.14807709 202.59492554 351.44459167 203.53729248 351.75009155 C205.46536999 352.3783053 207.39156024 353.01233789 209.31591797 353.65185547 C212.22258526 354.61590738 215.1358687 355.55730957 218.05078125 356.49609375 C249.08326742 366.61198048 249.08326742 366.61198048 256.59648132 380.09010315 C260.79449991 388.79379999 261.6921497 398.82782617 262.82421875 408.31640625 C263.05090996 410.14473244 263.05090996 410.14473244 263.28218079 412.00999451 C263.59725875 414.56165833 263.90883801 417.11375643 264.21704102 419.66625977 C264.69006986 423.58378299 265.17319038 427.49995964 265.65820312 431.41601562 C265.96411886 433.90357492 266.26947759 436.39120279 266.57421875 438.87890625 C266.71792404 440.05070938 266.86162933 441.22251251 267.00968933 442.42982483 C267.14015152 443.51202805 267.27061371 444.59423126 267.4050293 445.70922852 C267.52033493 446.66120621 267.63564056 447.6131839 267.75444031 448.5940094 C268 451 268 451 268 454 C268.78375 454.185625 269.5675 454.37125 270.375 454.5625 C273 456 273 456 274.3125 459.25 C275.46315789 465.52631579 275.46315789 465.52631579 275 469 C272.68330821 472.14078862 271.43682149 472.92291385 267.546875 473.609375 C266.29390625 473.65578125 265.0409375 473.7021875 263.75 473.75 C262.48671875 473.80671875 261.2234375 473.8634375 259.921875 473.921875 C258.95765625 473.94765625 257.9934375 473.9734375 257 474 C257.02094727 474.75095947 257.04189453 475.50191895 257.06347656 476.27563477 C257.1470353 479.70445164 257.19878694 483.13305369 257.25 486.5625 C257.30027344 488.33463867 257.30027344 488.33463867 257.3515625 490.14257812 C257.42858678 497.01699527 257.2253033 501.46631499 253 507 C248.7958925 510.89648987 245.72554343 512.12280975 240.05890274 512.13422108 C239.03312819 512.13867892 238.00735363 512.14313676 236.950495 512.14772969 C235.82006957 512.14754533 234.68964413 512.14736097 233.52496338 512.14717102 C231.72768032 512.15268605 231.72768032 512.15268605 229.89408851 512.1583125 C226.56230435 512.1674415 223.23056947 512.17204949 219.89877748 512.17470181 C216.30765295 512.17860443 212.71654268 512.18818276 209.12542725 512.19691467 C200.45026606 512.21667963 191.77510371 512.22674505 183.09992564 512.23564246 C179.01542562 512.24002506 174.93092691 512.24539192 170.84642792 512.25063133 C157.27021173 512.26764317 143.69399636 512.28213783 130.11777115 512.28938007 C126.59446461 512.29128999 123.07115808 512.29321032 119.54785156 512.29516602 C118.6721435 512.29564976 117.79643543 512.2961335 116.89419076 512.2966319 C102.70504452 512.30493403 88.51598253 512.33027422 74.32687309 512.36274669 C59.76201278 512.3958076 45.19719531 512.41382793 30.63229728 512.41702431 C22.45348368 512.41919024 14.27479298 512.42795104 6.09601593 512.45348549 C-0.86867983 512.47517924 -7.83322285 512.48324946 -14.79794857 512.47351871 C-18.3512736 512.46897018 -21.9042834 512.47089185 -25.45756531 512.49028015 C-29.31085105 512.51112379 -33.16370126 512.50093875 -37.01702881 512.48774719 C-38.69928263 512.50420106 -38.69928263 512.50420106 -40.41552138 512.52098733 C-46.8432858 512.46775855 -50.77612062 511.83691775 -56 508 C-60.25263928 503.41162604 -61.12768622 500.17567423 -61.09765625 494.01953125 C-61.09443359 492.85615234 -61.09121094 491.69277344 -61.08789062 490.49414062 C-61.07951172 489.27919922 -61.07113281 488.06425781 -61.0625 486.8125 C-61.05798828 485.58595703 -61.05347656 484.35941406 -61.04882812 483.09570312 C-61.03703065 480.06375332 -61.02056921 477.03190094 -61 474 C-61.96421875 473.97421875 -62.9284375 473.9484375 -63.921875 473.921875 C-65.18515625 473.86515625 -66.4484375 473.8084375 -67.75 473.75 C-69.00296875 473.70359375 -70.2559375 473.6571875 -71.546875 473.609375 C-75 473 -75 473 -77.453125 471.33203125 C-79.47893456 468.27796987 -79.35859814 466.55485878 -79 462.9375 C-78.9175 461.89464844 -78.835 460.85179687 -78.75 459.77734375 C-78 457 -78 457 -76.0625 455.12890625 C-74 454 -74 454 -72 454 C-71.90295776 453.0716333 -71.90295776 453.0716333 -71.80395508 452.12451172 C-70.99845651 444.49267211 -70.14326406 436.8668717 -69.25970459 429.24371338 C-69.08175746 427.70634222 -68.90476238 426.16886064 -68.72857666 424.63128662 C-68.15176599 419.60672786 -67.55344544 414.5853681 -66.9312439 409.56622314 C-66.72920177 407.91441051 -66.53312653 406.26185565 -66.34341431 404.60858154 C-64.90339684 392.12421076 -63.08681858 378.68279255 -53 370 C-44.02030446 363.13924712 -32.88710025 360.24567467 -22.3125 356.75 C-20.44170618 356.12083471 -18.57126026 355.49063398 -16.70117188 354.859375 C9.11449816 346.18186298 9.11449816 346.18186298 17.1875 349.8125 C22.71316109 351.85584342 26.84678064 349.80638991 32.03125 347.53515625 C36.83053567 345.05342037 41.20700442 342.37898675 43 337 C43.83171823 332.78127096 44.11811432 328.80400785 44.09765625 324.5078125 C44.09443359 323.30898438 44.09121094 322.11015625 44.08789062 320.875 C44.07951172 319.6375 44.07113281 318.4 44.0625 317.125 C44.05798828 315.86429687 44.05347656 314.60359375 44.04882812 313.3046875 C44.0370796 310.20307614 44.02065167 307.10156275 44 304 C42.84588623 303.52167725 41.69177246 303.04335449 40.50268555 302.55053711 C36.16889042 300.75116912 31.84089151 298.93819882 27.5144043 297.12133789 C25.65101865 296.34099788 23.78613749 295.56421809 21.91967773 294.79125977 C2.97179791 286.93903097 -13.80792558 279.09553792 -22.22265625 259.09375 C-24.96888292 251.77047889 -26.15362278 245.53106878 -26.0625 237.6875 C-26.05798828 236.94693359 -26.05347656 236.20636719 -26.04882812 235.44335938 C-26.03712175 233.62887101 -26.01918898 231.81442466 -26 230 C-27.155 229.9175 -28.31 229.835 -29.5 229.75 C-37.63059231 228.66210385 -43.08220501 224.89291961 -48.29296875 218.61328125 C-53.21653363 211.07583296 -53.57493125 203.23246359 -51.82421875 194.6015625 C-51 192 -51 192 -48.75 189 C-46.70438861 185.49323761 -46.92559365 184.82786909 -47.6484375 180.9765625 C-47.84759766 179.9030957 -48.04675781 178.82962891 -48.25195312 177.72363281 C-49.41328817 171.94273133 -50.6009342 166.16803437 -51.81835938 160.39868164 C-67.5741969 85.69329902 -67.5741969 85.69329902 -52 61 C-45.08992525 52.07448678 -35.08348732 46.17323281 -24 44 C-21.66784156 43.92596322 -19.33139212 43.90484114 -17 44 C-16.86682373 43.48260254 -16.73364746 42.96520508 -16.59643555 42.43212891 C-14.1018841 33.44948533 -10.40069884 24.96056822 -6.8125 16.375 C-6.15124584 14.78273759 -5.4904349 13.19029104 -4.83007812 11.59765625 C-3.22515434 7.72962881 -1.61425258 3.86414299 0 0 Z " fill="#FED6A2" transform="translate(158,0)"/>
<path d="M0 0 C0.598125 -0.01675781 1.19625 -0.03351563 1.8125 -0.05078125 C7.19248944 0.84268128 10.68013443 2.50625448 13.9921875 6.7890625 C14.96617851 8.16271194 15.92669051 9.54599707 16.875 10.9375 C30.51448961 29.96167104 50.13969167 43.43744237 73.37744141 47.93310547 C88.04012607 50.05429444 103.00364912 49.17455811 117 44.3125 C118.04929687 43.95027344 119.09859375 43.58804688 120.1796875 43.21484375 C138.9723878 36.01504299 153.67392852 23.12935031 164.5625 6.375 C167.48934156 2.69768625 169.50436952 1.60785115 174 0.3125 C180.50900888 -0.12734535 185.61576224 1.11269462 191.765625 3.1640625 C193.1376004 3.60883438 193.1376004 3.60883438 194.53729248 4.06259155 C196.46536999 4.6908053 198.39156024 5.32483789 200.31591797 5.96435547 C203.22258526 6.92840738 206.1358687 7.86980957 209.05078125 8.80859375 C240.08326742 18.92448048 240.08326742 18.92448048 247.59648132 32.40260315 C251.79449991 41.10629999 252.6921497 51.14032617 253.82421875 60.62890625 C254.05090996 62.45723244 254.05090996 62.45723244 254.28218079 64.32249451 C254.59725875 66.87415833 254.90883801 69.42625643 255.21704102 71.97875977 C255.69006986 75.89628299 256.17319038 79.81245964 256.65820312 83.72851562 C256.96411886 86.21607492 257.26947759 88.70370279 257.57421875 91.19140625 C257.71792404 92.36320938 257.86162933 93.53501251 258.00968933 94.74232483 C258.14015152 95.82452805 258.27061371 96.90673126 258.4050293 98.02172852 C258.52033493 98.97370621 258.63564056 99.9256839 258.75444031 100.9065094 C259 103.3125 259 103.3125 259 106.3125 C260.175625 106.5909375 260.175625 106.5909375 261.375 106.875 C264 108.3125 264 108.3125 265.3125 111.5625 C266.46315789 117.83881579 266.46315789 117.83881579 266 121.3125 C263.68330821 124.45328862 262.43682149 125.23541385 258.546875 125.921875 C257.29390625 125.96828125 256.0409375 126.0146875 254.75 126.0625 C253.48671875 126.11921875 252.2234375 126.1759375 250.921875 126.234375 C249.95765625 126.26015625 248.9934375 126.2859375 248 126.3125 C248.02094727 127.06345947 248.04189453 127.81441895 248.06347656 128.58813477 C248.1470353 132.01695164 248.19878694 135.44555369 248.25 138.875 C248.28351563 140.05642578 248.31703125 141.23785156 248.3515625 142.45507812 C248.42858678 149.32949527 248.2253033 153.77881499 244 159.3125 C239.7958925 163.20898987 236.72554343 164.43530975 231.05890274 164.44672108 C230.03312819 164.45117892 229.00735363 164.45563676 227.950495 164.46022969 C226.82006957 164.46004533 225.68964413 164.45986097 224.52496338 164.45967102 C222.72768032 164.46518605 222.72768032 164.46518605 220.89408851 164.4708125 C217.56230435 164.4799415 214.23056947 164.48454949 210.89877748 164.48720181 C207.30765295 164.49110443 203.71654268 164.50068276 200.12542725 164.50941467 C191.45026606 164.52917963 182.77510371 164.53924505 174.09992564 164.54814246 C170.01542562 164.55252506 165.93092691 164.55789192 161.84642792 164.56313133 C148.27021173 164.58014317 134.69399636 164.59463783 121.11777115 164.60188007 C117.59446461 164.60378999 114.07115808 164.60571032 110.54785156 164.60766602 C109.6721435 164.60814976 108.79643543 164.6086335 107.89419076 164.6091319 C93.70504452 164.61743403 79.51598253 164.64277422 65.32687309 164.67524669 C50.76201278 164.7083076 36.19719531 164.72632793 21.63229728 164.72952431 C13.45348368 164.73169024 5.27479298 164.74045104 -2.90398407 164.76598549 C-9.86867983 164.78767924 -16.83322285 164.79574946 -23.79794857 164.78601871 C-27.3512736 164.78147018 -30.9042834 164.78339185 -34.45756531 164.80278015 C-38.31085105 164.82362379 -42.16370126 164.81343875 -46.01702881 164.80024719 C-47.13853136 164.81121644 -48.26003391 164.82218568 -49.41552138 164.83348733 C-55.8432858 164.78025855 -59.77612062 164.14941775 -65 160.3125 C-69.25263928 155.72412604 -70.12768622 152.48817423 -70.09765625 146.33203125 C-70.09443359 145.16865234 -70.09121094 144.00527344 -70.08789062 142.80664062 C-70.07951172 141.59169922 -70.07113281 140.37675781 -70.0625 139.125 C-70.05798828 137.89845703 -70.05347656 136.67191406 -70.04882812 135.40820312 C-70.03703065 132.37625332 -70.02056921 129.34440094 -70 126.3125 C-70.96421875 126.28671875 -71.9284375 126.2609375 -72.921875 126.234375 C-74.81679687 126.14929688 -74.81679687 126.14929688 -76.75 126.0625 C-78.00296875 126.01609375 -79.2559375 125.9696875 -80.546875 125.921875 C-84 125.3125 -84 125.3125 -86.453125 123.64453125 C-88.47893456 120.59046987 -88.35859814 118.86735878 -88 115.25 C-87.9175 114.20714844 -87.835 113.16429687 -87.75 112.08984375 C-87 109.3125 -87 109.3125 -85.0625 107.44140625 C-83 106.3125 -83 106.3125 -81 106.3125 C-80.90295776 105.3841333 -80.90295776 105.3841333 -80.80395508 104.43701172 C-79.99845651 96.80517211 -79.14326406 89.1793717 -78.25970459 81.55621338 C-78.08175746 80.01884222 -77.90476238 78.48136064 -77.72857666 76.94378662 C-77.15176599 71.91922786 -76.55344544 66.8978681 -75.9312439 61.87872314 C-75.72920177 60.22691051 -75.53312653 58.57435565 -75.34341431 56.92108154 C-73.90339684 44.43671076 -72.08681858 30.99529255 -62 22.3125 C-53.02030446 15.45174712 -41.88710025 12.55817467 -31.3125 9.0625 C-29.44170618 8.43333471 -27.57126026 7.80313398 -25.70117188 7.171875 C-4.4503875 0.02877406 -4.4503875 0.02877406 0 0 Z " fill="#FE6473" transform="translate(167,347.6875)"/>
<path d="M0 0 C8.84002784 -0.30050108 17.37687013 0.62537679 26.125 1.8125 C27.50793514 1.99403959 28.89091076 2.17527113 30.27392578 2.35620117 C37.51355787 3.31613557 44.70408454 4.42296269 51.875 5.8125 C62.91707332 7.84450945 69.74233943 6.17177371 79 0 C83.1059577 -0.46017159 87.24626502 -0.33192934 91.375 -0.3125 C92.62434326 -0.30686035 93.87368652 -0.3012207 95.16088867 -0.29541016 C128.00905734 0.11937575 160.13934416 6.16342873 191.33227539 16.24731445 C197.36618165 17.94975181 200.86109455 18.07986652 206.82421875 15.875 C207.76633965 15.53637939 207.76633965 15.53637939 208.72749329 15.19091797 C210.71920291 14.47366148 212.70358436 13.73851507 214.6875 13 C216.68263743 12.26321549 218.67895925 11.53068103 220.67964172 10.80908203 C222.48761994 10.15626856 224.29023344 9.48865398 226.0925293 8.8203125 C229 8 229 8 232 9 C236.6054143 16.12823316 238.98051764 25.97896959 239.125 34.375 C239.558125 36.169375 239.558125 36.169375 240 38 C241.93240814 39.14584919 241.93240814 39.14584919 244.25 40.1875 C248.88188186 42.91516376 249.95515495 45.82057277 251.26782227 50.79370117 C252.32508817 55.50612278 253.181198 60.24127686 254 65 C254.32127953 66.63287846 254.64288024 68.26569377 254.96484375 69.8984375 C261.79769816 107.8646186 257.41755059 150.00939371 244 186 C240.28294974 186 239.3654051 184.66209901 236.671875 182.30859375 C232.28402477 178.87417827 227.37748656 177.81568616 222 177 C221.98018066 176.41621582 221.96036133 175.83243164 221.93994141 175.23095703 C221.84337139 172.52859732 221.73424027 169.82687606 221.625 167.125 C221.57859375 165.74828125 221.57859375 165.74828125 221.53125 164.34375 C220.9543314 150.69000989 217.80907967 137.849091 208.3125 127.5 C198.87249564 118.94155246 187.42223342 115.69713923 175.0234375 115.70947266 C174.04498871 115.70275543 173.06653992 115.69603821 172.05844116 115.68911743 C168.83057525 115.67016176 165.6029181 115.6662125 162.375 115.6640625 C160.1083976 115.65762609 157.84179602 115.65089711 155.57519531 115.64389038 C150.8173633 115.63191875 146.05960382 115.62820876 141.30175781 115.62939453 C135.2696695 115.62959615 129.23806072 115.60245769 123.20608521 115.56785011 C118.51621467 115.54534908 113.82645457 115.54156423 109.13653564 115.54261398 C106.91707734 115.54028642 104.6976146 115.53162802 102.47821045 115.51594925 C73.30789263 115.3294038 46.68535773 120.98395103 21 135 C19.86820312 135.60714844 18.73640625 136.21429688 17.5703125 136.83984375 C15.03692145 138.20967988 12.51351659 139.59413479 10 141 C9.34104715 132.03091948 11.22099564 124.49829459 14 116 C1.15937938 118.30706186 -9.54858735 123.56305376 -17.29077148 134.36108398 C-23.39082216 143.77908824 -24.76055762 152.69204337 -24.8125 163.75 C-24.83763672 165.03132812 -24.86277344 166.31265625 -24.88867188 167.6328125 C-24.94693131 170.7555183 -24.98366013 173.87684193 -25 177 C-25.99580078 177.16218018 -25.99580078 177.16218018 -27.01171875 177.32763672 C-31.98249985 178.21385079 -35.90256807 179.00673379 -40 182.125 C-43.85167464 185 -43.85167464 185 -46 185 C-69.55422323 93.39854356 -69.55422323 93.39854356 -53.78125 63.82421875 C-47.48652051 53.8437595 -38.26916739 48.23588039 -27.1875 44.625 C-23.71909444 43.94492048 -20.52593816 43.85608416 -17 44 C-16.86682373 43.48260254 -16.73364746 42.96520508 -16.59643555 42.43212891 C-14.1018841 33.44948533 -10.40069884 24.96056822 -6.8125 16.375 C-6.15124584 14.78273759 -5.4904349 13.19029104 -4.83007812 11.59765625 C-3.22515434 7.72962881 -1.61425258 3.86414299 0 0 Z " fill="#8D5F3D" transform="translate(158,0)"/>
<path d="M0 0 C1.7917393 0.00561412 3.58348328 0.00987559 5.37522888 0.01286316 C10.02925954 0.0241693 14.68299707 0.05350886 19.33691406 0.0869751 C24.11063678 0.11798792 28.88440812 0.13143431 33.65820312 0.14648438 C42.97929354 0.17839634 52.30016902 0.22941404 61.62109375 0.29296875 C61.62109375 0.62296875 61.62109375 0.95296875 61.62109375 1.29296875 C60.32300781 1.37933594 59.02492188 1.46570313 57.6875 1.5546875 C43.05297328 2.64357816 28.93189009 5.09011131 14.62109375 8.29296875 C13.33388428 8.57172852 12.0466748 8.85048828 10.72045898 9.13769531 C0.00010966 11.51028584 -10.32327099 14.69668488 -20.69140625 18.29296875 C-21.91957062 18.71565536 -21.91957062 18.71565536 -23.17254639 19.1468811 C-43.567271 26.18672338 -63.35200338 34.40356213 -82.52001953 44.34838867 C-88.19697967 47.29296875 -88.19697967 47.29296875 -90.37890625 47.29296875 C-90.34074451 58.44658053 -90.28123076 69.59985938 -90.19500351 80.75320911 C-90.15561699 85.93305987 -90.12338533 91.11274285 -90.10791016 96.29272461 C-90.09268532 101.29853383 -90.05813694 106.30388156 -90.01059723 111.30948448 C-89.99584332 113.21224629 -89.9878687 115.11507401 -89.9870224 117.01789284 C-89.96966459 136.48877846 -85.3289041 148.56460837 -71.37890625 162.54296875 C-66.86179139 166.97426262 -62.20691202 171.20514505 -57.37890625 175.29296875 C-56.31803696 176.21633068 -55.25823826 177.14092335 -54.19921875 178.06640625 C-47.54272731 183.85928288 -40.80864964 189.34610983 -33.609375 194.453125 C-31.37890625 196.29296875 -31.37890625 196.29296875 -30.37890625 199.29296875 C-28.42984375 199.47859375 -28.42984375 199.47859375 -26.44140625 199.66796875 C-23.25656055 199.97128739 -20.24735418 200.55327813 -17.14453125 201.3046875 C5.30461686 206.37946135 26.68594764 198.39037386 46.78369141 189.03979492 C48.62109375 188.29296875 48.62109375 188.29296875 50.62109375 188.29296875 C50.64091309 189.09927734 50.66073242 189.90558594 50.68115234 190.73632812 C50.7769506 194.42217926 50.88640735 198.10750582 50.99609375 201.79296875 C51.0425 203.695625 51.0425 203.695625 51.08984375 205.63671875 C51.18544225 218.12776243 51.18544225 218.12776243 56.80078125 228.9140625 C60.88013496 232.00421671 65.85781215 233.54474306 70.62109375 235.29296875 C72.28962998 235.95494236 73.95697073 236.61997782 75.62109375 237.29296875 C74.18936186 239.2019446 72.75686363 241.11026931 71.3203125 243.015625 C70.26590024 244.42877982 69.22422189 245.85165062 68.203125 247.2890625 C54.14685844 266.85759045 33.03464649 278.13560751 9.62109375 282.29296875 C-14.96716178 284.32221185 -37.72152805 279.34108351 -57.25390625 263.85546875 C-58.98232707 262.35750404 -60.69166986 260.83717411 -62.37890625 259.29296875 C-63.56419922 258.21208984 -63.56419922 258.21208984 -64.7734375 257.109375 C-70.78240736 251.36656053 -76.63645881 244.77786363 -80.37890625 237.29296875 C-79.36570312 236.91785156 -78.3525 236.54273438 -77.30859375 236.15625 C-75.95679602 235.63993837 -74.60524655 235.12297641 -73.25390625 234.60546875 C-72.58875 234.36119141 -71.92359375 234.11691406 -71.23828125 233.86523438 C-65.91809654 231.80496677 -61.34878829 229.20088985 -58.06640625 224.35546875 C-56.47305791 219.57542372 -56.25742826 214.80334676 -56.28125 209.80078125 C-56.28447266 208.60195313 -56.28769531 207.403125 -56.29101562 206.16796875 C-56.29939453 204.93046875 -56.30777344 203.69296875 -56.31640625 202.41796875 C-56.32091797 201.15726563 -56.32542969 199.8965625 -56.33007812 198.59765625 C-56.34182665 195.49604489 -56.35825458 192.3945315 -56.37890625 189.29296875 C-57.53302002 188.814646 -58.68713379 188.33632324 -59.8762207 187.84350586 C-64.21001583 186.04413787 -68.53801474 184.23116757 -72.86450195 182.41430664 C-74.7278876 181.63396663 -76.59276876 180.85718684 -78.45922852 180.08422852 C-97.40710834 172.23199972 -114.18683183 164.38850667 -122.6015625 144.38671875 C-125.34778917 137.06344764 -126.53252903 130.82403753 -126.44140625 122.98046875 C-126.43689453 122.23990234 -126.43238281 121.49933594 -126.42773438 120.73632812 C-126.416028 118.92183976 -126.39809523 117.10739341 -126.37890625 115.29296875 C-127.53390625 115.21046875 -128.68890625 115.12796875 -129.87890625 115.04296875 C-138.00949856 113.9550726 -143.46111126 110.18588836 -148.671875 103.90625 C-152.9180335 97.40583801 -153.84935111 90.591801 -152.87890625 82.98046875 C-151.05164003 74.67667905 -147.81594844 71.03581668 -140.75390625 66.41796875 C-135.32761051 63.10272505 -131.76948511 62.17239179 -125.37890625 62.29296875 C-125.40509033 61.50760742 -125.43127441 60.72224609 -125.45825195 59.91308594 C-125.56339072 56.28992424 -125.62760139 52.66708491 -125.69140625 49.04296875 C-125.73330078 47.80804688 -125.77519531 46.573125 -125.81835938 45.30078125 C-125.98662627 32.51249734 -122.05612025 22.67928841 -113.37890625 13.29296875 C-108.91198047 8.76526846 -104.17367886 5.85201908 -98.37890625 3.29296875 C-97.53328125 2.88046875 -96.68765625 2.46796875 -95.81640625 2.04296875 C-92.6169454 1.05851926 -89.70403401 1.16257158 -86.37890625 1.29296875 C-86.88028006 4.6354608 -87.51847538 7.78556567 -88.44140625 11.04296875 C-89.6814156 15.78256004 -89.55839489 20.42683232 -89.37890625 25.29296875 C-88.38375 24.66390625 -87.38859375 24.03484375 -86.36328125 23.38671875 C-70.66440184 13.68278819 -54.41400725 7.13594697 -36.37890625 3.29296875 C-35.12477432 3.02542282 -33.8706424 2.75787689 -32.57850647 2.48222351 C-21.6509152 0.29060855 -11.1182909 -0.10435485 0 0 Z " fill="#FCC78D" transform="translate(258.37890625,114.70703125)"/>
<path d="M0 0 C3 1 3 1 4.0625 2.64453125 C7.3267032 10.19300114 9.98252376 18.09554726 10.125 26.375 C10.558125 28.169375 10.558125 28.169375 11 30 C12.93240814 31.14584919 12.93240814 31.14584919 15.25 32.1875 C19.88188186 34.91516376 20.95515495 37.82057277 22.26782227 42.79370117 C23.32508817 47.50612278 24.181198 52.24127686 25 57 C25.32127953 58.63287846 25.64288024 60.26569377 25.96484375 61.8984375 C32.79769816 99.8646186 28.41755059 142.00939371 15 178 C11.28294974 178 10.3654051 176.66209901 7.671875 174.30859375 C3.28402477 170.87417827 -1.62251344 169.81568616 -7 169 C-7.01981934 168.41621582 -7.03963867 167.83243164 -7.06005859 167.23095703 C-7.15662861 164.52859732 -7.26575973 161.82687606 -7.375 159.125 C-7.42140625 157.74828125 -7.42140625 157.74828125 -7.46875 156.34375 C-8.0456686 142.69000989 -11.19092033 129.849091 -20.6875 119.5 C-30.12750436 110.94155246 -41.57776658 107.69713923 -53.9765625 107.70947266 C-54.95501129 107.70275543 -55.93346008 107.69603821 -56.94155884 107.68911743 C-60.16942475 107.67016176 -63.3970819 107.6662125 -66.625 107.6640625 C-68.8916024 107.65762609 -71.15820398 107.65089711 -73.42480469 107.64389038 C-78.1826367 107.63191875 -82.94039618 107.62820876 -87.69824219 107.62939453 C-93.7303305 107.62959615 -99.76193928 107.60245769 -105.79391479 107.56785011 C-110.48378533 107.54534908 -115.17354543 107.54156423 -119.86346436 107.54261398 C-122.08292266 107.54028642 -124.3023854 107.53162802 -126.52178955 107.51594925 C-154.86813237 107.33467316 -181.10355005 112.52440185 -206.17822266 126.03271484 C-209.41942438 127.7536531 -212.71279879 129.36905638 -216 131 C-214.50646022 125.77755627 -211.204299 122.70592048 -207.4375 119 C-206.44145752 118.01640503 -206.44145752 118.01640503 -205.42529297 117.01293945 C-193.31517283 105.29971035 -179.7710256 96.01976485 -165 88 C-164.36835938 87.65130859 -163.73671875 87.30261719 -163.0859375 86.94335938 C-150.93335218 80.29503079 -138.02543397 75.63501846 -125 71 C-124.27925293 70.74089844 -123.55850586 70.48179688 -122.81591797 70.21484375 C-115.94463036 67.76018627 -109.04279396 65.72563299 -101.98999023 63.87792969 C-84.06588984 59.16741195 -64.45156977 53.66488318 -53 38 C-52.67 37.34 -52.34 36.68 -52 36 C-49.91343437 35.48505584 -47.80335739 35.06442323 -45.6875 34.6875 C-30.1581776 31.52499361 -14.39955947 24.41202834 -5.0234375 11.21875 C-1.26829448 6.02683979 -1.26829448 6.02683979 0 0 Z " fill="#9D6E48" transform="translate(387,8)"/>
<path d="M0 0 C7.74659273 7.66418217 14.87912794 15.77272196 21.71875 24.25 C24.06718968 27.08099578 26.50909902 29.79383598 29 32.5 C33.15020345 37.0105312 37.05836593 41.66473036 40.90234375 46.4375 C42.79422922 48.74863011 44.74722278 50.9727658 46.75 53.1875 C56.59278695 64.42334961 57.30664581 75.05996726 57.125 89.5625 C57.11494735 90.96679047 57.10582555 92.37108793 57.09765625 93.77539062 C57.07423093 97.18377485 57.04142746 100.591795 57 104 C45.89804385 104.49074176 35.05143427 102.98634277 24.0625 101.625 C21.30449797 101.28807046 18.54625853 100.95328599 15.78768921 100.62103271 C13.95746717 100.40029814 12.12756643 100.17688245 10.29800415 99.95074463 C5.56323818 99.37663246 0.83779308 98.88912133 -3.91845703 98.53027344 C-4.87627579 98.45449066 -5.83409454 98.37870789 -6.82093811 98.30062866 C-8.64746519 98.16097636 -10.47522185 98.03632035 -12.30393982 97.92910767 C-16.17627062 97.62822279 -18.38171578 97.45440449 -21.56616211 95.11401367 C-23.53588392 92.20990654 -23.34276904 90.39518272 -23 86.9375 C-22.9175 85.89464844 -22.835 84.85179687 -22.75 83.77734375 C-22 81 -22 81 -20.0625 79.12890625 C-18 78 -18 78 -16 78 C-15.90295776 77.0716333 -15.90295776 77.0716333 -15.80395508 76.12451172 C-14.30120305 61.88641996 -12.66293266 47.66167178 -10.87631226 33.45635986 C-10.66879892 31.79072377 -10.46594018 30.1245005 -10.26797485 28.45770264 C-7.58319773 5.9500717 -7.58319773 5.9500717 -1.86938477 1.24584961 C-0.94403931 0.62915405 -0.94403931 0.62915405 0 0 Z " fill="#F05467" transform="translate(102,376)"/>
<path d="M0 0 C1.83686829 0.17823792 1.83686829 0.17823792 4 1 C9.07498113 8.9728927 10.171802 18.44398101 11.23828125 27.62890625 C11.40905218 28.99480524 11.58129714 30.36052065 11.75492859 31.72605896 C12.2025129 35.27894136 12.62934154 38.83401085 13.05181885 42.38995361 C13.48771197 46.02273652 13.94551527 49.652758 14.40039062 53.28320312 C15.05886245 58.57371575 15.71085956 63.86495046 16.3449707 69.15844727 C16.47200882 70.21701431 16.59904694 71.27558136 16.72993469 72.3662262 C17 75 17 75 17 78 C18.175625 78.2784375 18.175625 78.2784375 19.375 78.5625 C22 80 22 80 23.3125 83.25 C24.85963616 91.68892451 24.85963616 91.68892451 22.63134766 95.08740234 C18.57661409 98.03458946 14.42942732 98.00741137 9.5234375 98.4140625 C8.48418121 98.51463959 7.44492493 98.61521667 6.37417603 98.71884155 C3.04244559 99.03765447 -0.29091925 99.331894 -3.625 99.625 C-5.81526018 99.82906151 -8.0053672 100.0347741 -10.1953125 100.2421875 C-13.42078597 100.54714995 -16.64634075 100.84994953 -19.87286377 101.14361572 C-26.96249022 101.79015182 -34.03686332 102.52091208 -41.10049438 103.40982056 C-46.08990036 104.00640929 -50.9859424 104.08891041 -56 104 C-56.0499542 100.03478915 -56.08597787 96.06970369 -56.10986328 92.10424805 C-56.12470245 90.10263623 -56.15013361 88.10111188 -56.17578125 86.09960938 C-56.27035339 67.32703922 -49.73699285 57.52387791 -37.63964844 43.85742188 C-35.46853269 41.39794472 -33.32399685 38.91601648 -31.17919922 36.43359375 C-27.34309149 31.99385808 -23.49326506 27.56601527 -19.640625 23.140625 C-12.99809657 15.50375251 -6.44112513 7.807865 0 0 Z " fill="#F05467" transform="translate(409,376)"/>
<path d="M0 0 C3.28850982 0.57855076 6.17300508 1.37175387 9.23046875 2.70703125 C35.86954499 14.04649181 60.46474782 16.94647755 87.9296875 6.109375 C90.87461806 4.90898084 93.78547204 3.64679617 96.69140625 2.35546875 C100 1 100 1 103 1 C96.28625156 16.59436808 72.57092132 29.99105151 57.40820312 36.03271484 C51.34976152 38.26949494 45.2303268 40.29768794 39 42 C38.24662354 42.20681396 37.49324707 42.41362793 36.71704102 42.62670898 C29.4863948 44.34251974 22.23249378 44.27062031 14.84838867 44.20581055 C12.67419851 44.18738729 10.50043256 44.18530266 8.32617188 44.18554688 C-3.19544841 44.14502864 -3.19544841 44.14502864 -8 43 C-6.83623751 40.4785146 -5.56703966 38.39647953 -3.9375 36.125 C-0.88446574 31.2007512 -0.87339362 26.20180861 -0.68359375 20.5078125 C-0.64169922 19.30898438 -0.59980469 18.11015625 -0.55664062 16.875 C-0.51732422 15.6375 -0.47800781 14.4 -0.4375 13.125 C-0.37272461 11.23394531 -0.37272461 11.23394531 -0.30664062 9.3046875 C-0.20090898 6.20322577 -0.09881429 3.10168855 0 0 Z " fill="#F5B97A" transform="translate(203,304)"/>
<path d="M0 0 C0.11679952 4.18726294 0.18745327 8.37410301 0.25 12.5625 C0.30027344 14.33463867 0.30027344 14.33463867 0.3515625 16.14257812 C0.42858678 23.01699527 0.2253033 27.46631499 -4 33 C-8.20268354 36.89517011 -11.26315247 38.12780062 -16.93041992 38.11352539 C-17.93123093 38.11344986 -18.93204193 38.11337433 -19.96318054 38.11329651 C-21.04138565 38.10813522 -22.11959076 38.10297394 -23.23046875 38.09765625 C-24.33602615 38.0962413 -25.44158356 38.09482635 -26.5806427 38.09336853 C-30.11628917 38.08776514 -33.65187262 38.07521204 -37.1875 38.0625 C-39.58268138 38.05748544 -41.97786375 38.05292246 -44.37304688 38.04882812 C-50.24874181 38.03864494 -56.12430025 38.01907007 -62 38 C-62 27.77 -62 17.54 -62 7 C-51.87270741 4.74949053 -51.87270741 4.74949053 -47.97436523 4.31396484 C-47.09993271 4.21401215 -46.22550018 4.11405945 -45.3245697 4.01107788 C-44.41179764 3.91203156 -43.49902557 3.81298523 -42.55859375 3.7109375 C-41.59147964 3.60278717 -40.62436554 3.49463684 -39.62794495 3.38320923 C-37.59703771 3.15736047 -35.5658574 2.93395507 -33.53442383 2.71289062 C-30.44205063 2.3754965 -27.35091038 2.02813757 -24.25976562 1.6796875 C-22.27610752 1.46034112 -20.29238553 1.24157157 -18.30859375 1.0234375 C-17.39379745 0.92034271 -16.47900116 0.81724792 -15.53648376 0.71102905 C-10.32189135 0.15054573 -5.24467639 -0.09997128 0 0 Z " fill="#FCC78D" transform="translate(415,474)"/>
<path d="M0 0 C11.86862677 0.57193059 23.61690527 1.75729169 35.41381836 3.15673828 C38.35271126 3.50476181 41.29247686 3.84458446 44.23242188 4.18359375 C46.10943087 4.4031688 47.98638618 4.6232033 49.86328125 4.84375 C51.17562492 4.99535583 51.17562492 4.99535583 52.51448059 5.15002441 C53.32350327 5.24682495 54.13252594 5.34362549 54.96606445 5.44335938 C55.67503372 5.52694702 56.38400299 5.61053467 57.11445618 5.69665527 C59 6 59 6 62 7 C62 17.23 62 27.46 62 38 C55.0067432 38.09198292 48.01559723 38.17157937 41.0222168 38.21972656 C38.64486568 38.23980363 36.2675637 38.26707113 33.89038086 38.30175781 C30.46716155 38.35044614 27.04459694 38.37300853 23.62109375 38.390625 C22.56353378 38.41127014 21.50597382 38.43191528 20.41636658 38.45318604 C14.02712626 38.4551154 10.19745687 37.79875952 5 34 C0.74736072 29.41162604 -0.12768622 26.17567423 -0.09765625 20.01953125 C-0.09443359 18.85615234 -0.09121094 17.69277344 -0.08789062 16.49414062 C-0.07951172 15.27919922 -0.07113281 14.06425781 -0.0625 12.8125 C-0.05798828 11.58595703 -0.05347656 10.35941406 -0.04882812 9.09570312 C-0.03703065 6.06375332 -0.02056921 3.03190094 0 0 Z " fill="#FCC78D" transform="translate(97,474)"/>
<path d="M0 0 C1.78610723 0.77834948 3.55614809 1.59415255 5.3125 2.4375 C18.78723106 8.72086516 36.07568994 9.17093175 50.328125 5.00390625 C53.246174 3.9075048 56.00843607 2.61034993 58.8125 1.25 C62.28975961 -0.40345198 63.9972049 -0.99991127 67.9375 -1.125 C71.72411595 0.26600178 73.0448701 1.48076618 75 5 C75.61148579 8.66891475 75.43674654 10.3138396 73.43359375 13.4609375 C70.50010841 16.52155623 67.41599155 18.03893978 63.5625 19.625 C62.84658691 19.92349854 62.13067383 20.22199707 61.39306641 20.52954102 C41.86463252 28.43783958 20.72576776 28.40253225 1 21 C-4.63714707 18.55369089 -9.66773963 16.34833013 -13 11 C-13.58490372 7.07278932 -13.34594305 5.51891457 -11.125 2.1875 C-7.50822372 -1.53565205 -4.80293928 -1.28250529 0 0 Z " fill="#E4B07B" transform="translate(225,248)"/>
<path d="M0 0 C7.94994353 0.08921649 15.77313834 0.84019165 23.66699219 1.7440033 C25.05651092 1.89898328 26.44607903 2.05352116 27.83569336 2.2076416 C30.7237442 2.52923555 33.61130074 2.85485913 36.49853516 3.18370056 C40.19764783 3.60485774 43.8976355 4.01764877 47.59799194 4.42771816 C50.45669792 4.74510201 53.31501651 5.06586357 56.17321777 5.38775826 C57.53827779 5.54127053 58.90343051 5.69396091 60.26867676 5.84580803 C62.16874591 6.05784872 64.06827474 6.27471444 65.96777344 6.49180603 C67.04712158 6.61393967 68.12646973 6.7360733 69.23852539 6.86190796 C71.91699219 7.24790955 71.91699219 7.24790955 74.91699219 8.24790955 C74.91699219 13.85790955 74.91699219 19.46790955 74.91699219 25.24790955 C63.78173113 25.60023254 53.00463455 24.23873789 41.97949219 22.87290955 C39.22149015 22.53598 36.46325072 22.20119554 33.7046814 21.86894226 C31.87445936 21.64820768 30.04455862 21.424792 28.21499634 21.19865417 C23.48023037 20.624542 18.75478527 20.13703087 13.99853516 19.77818298 C13.0407164 19.70240021 12.08289764 19.62661743 11.09605408 19.54853821 C9.26952699 19.4088859 7.44177033 19.2842299 5.61305237 19.17701721 C1.74101196 18.8761549 -0.46635107 18.69981603 -3.65356445 16.36412048 C-5.63450503 13.43144876 -5.35933835 11.59826126 -4.95800781 8.12290955 C-4.85230469 7.06845642 -4.74660156 6.0140033 -4.63769531 4.92759705 C-3.978226 1.74171009 -3.35962995 0.39984696 0 0 Z " fill="#BE455A" transform="translate(84.0830078125,454.75209045410156)"/>
<path d="M0 0 C2.61502203 2.61502203 2.50993097 4.23321385 2.875 7.875 C2.99617188 8.92429687 3.11734375 9.97359375 3.2421875 11.0546875 C3 14 3 14 1.63964844 16.09570312 C-2.42415453 19.02741448 -6.57099656 19.00744651 -11.4765625 19.4140625 C-12.51581879 19.51463959 -13.55507507 19.61521667 -14.62582397 19.71884155 C-17.95755441 20.03765447 -21.29091925 20.331894 -24.625 20.625 C-26.81526018 20.82906151 -29.0053672 21.0347741 -31.1953125 21.2421875 C-34.42078597 21.54714995 -37.64634075 21.84994953 -40.87286377 22.14361572 C-47.96249022 22.79015182 -55.03686332 23.52091208 -62.10049438 24.40982056 C-67.10432128 25.00813362 -71.97007138 25.06690204 -77 25 C-77 19.39 -77 13.78 -77 8 C-61.78589816 5.79980681 -46.56232677 3.75216547 -31.28796387 2.01745605 C-29.73814247 1.84110401 -28.18857262 1.66252503 -26.63928223 1.48156738 C-6.97514934 -0.80520763 -6.97514934 -0.80520763 0 0 Z " fill="#BE455A" transform="translate(430,455)"/>
<path d="M0 0 C2.72804778 0.742513 4.47218343 2.11709727 6.09375 4.41796875 C8.37980671 10.13311052 7.67237738 16.49768242 5.625 22.15234375 C3.9375 24.52734375 3.9375 24.52734375 0.9375 26.52734375 C-2.9598724 27.03569667 -4.56806726 26.85696558 -7.875 24.65234375 C-11.50499988 21.12605815 -11.33626784 18.04177704 -11.4375 13.21484375 C-11.48648437 11.89871094 -11.53546875 10.58257812 -11.5859375 9.2265625 C-10.63568455 2.51096892 -6.51049819 -0.50555005 0 0 Z " fill="#674436" transform="translate(320.0625,185.47265625)"/>
<path d="M0 0 C3.35593989 1.13771447 4.90078662 2.93148658 7.0625 5.69921875 C7.69140625 9.29296875 7.69140625 9.29296875 7.625 13.19921875 C7.62693359 15.1328125 7.62693359 15.1328125 7.62890625 17.10546875 C6.98440922 21.19469126 6.04111188 22.8679587 3.0625 25.69921875 C0.38526299 26.90211252 -2.03373583 27.10251933 -4.9375 26.69921875 C-8.19870968 24.20127091 -9.63893247 22.59492134 -10.9375 18.69921875 C-12.08370456 7.35179359 -12.08370456 7.35179359 -8.9375 2.94921875 C-5.61645692 0.45843644 -4.01653586 0.02429356 0 0 Z " fill="#664336" transform="translate(195.9375,185.30078125)"/>
<path d="M0 0 C0.66 0.33 1.32 0.66 2 1 C-1.63 4.63 -5.26 8.26 -9 12 C-9 7.8407692 -6.75316432 5.85455565 -4 3 C-1.6875 1.125 -1.6875 1.125 0 0 Z " fill="#FC7777" transform="translate(109,367)"/>
</svg>
