<?xml version="1.0" encoding="UTF-8"?>
<svg version="1.1" xmlns="http://www.w3.org/2000/svg" width="512" height="512">
<path d="M0 0 C1.91703316 -0.00543397 3.83406214 -0.01256371 5.75108337 -0.02124023 C10.9053051 -0.03931022 16.05920284 -0.03247825 21.21342945 -0.01972389 C26.623394 -0.00952851 32.03333259 -0.01900596 37.44329834 -0.02526855 C46.51124006 -0.03251856 55.57905086 -0.02301923 64.64697266 -0.00390625 C75.13102794 0.01793629 85.61477293 0.0107471 96.09882092 -0.01121187 C105.11911593 -0.02934759 114.13931747 -0.03193552 123.15962481 -0.0214572 C128.53966795 -0.01522233 133.91956494 -0.01438812 139.29959869 -0.02760315 C144.34610168 -0.03913711 149.39220218 -0.03118101 154.43866158 -0.00802612 C156.29142907 -0.00272928 158.14423035 -0.00426943 159.99698448 -0.01307678 C162.52190785 -0.02397555 165.04553335 -0.0103393 167.57037354 0.00964355 C168.30654317 0.00072067 169.04271281 -0.00820222 169.80119061 -0.0173955 C173.19378186 0.0348487 175.04415582 0.29264307 177.7994957 2.34131622 C181.53983745 7.60246377 179.91492617 16.37016807 179.06542969 22.5703125 C176.48737328 37.52596926 169.35867934 53.77766861 157.76149273 63.9013567 C155.27785561 66.73855668 155.90808835 70.52007153 155.91430664 74.11987305 C155.90411499 74.99813248 155.89392334 75.87639191 155.88342285 76.78126526 C155.85320609 79.68692329 155.84401367 82.59225213 155.83496094 85.49804688 C155.81812069 87.51159264 155.79997134 89.52512786 155.78056335 91.53865051 C155.73298624 96.84045107 155.70322676 102.14220885 155.67712402 107.44415283 C155.64735739 112.85347953 155.60081371 118.26265869 155.55566406 123.671875 C155.46954322 134.28703232 155.40223701 144.90221994 155.34667969 155.51757812 C156.4558374 155.66308105 157.56499512 155.80858398 158.70776367 155.95849609 C165.68224201 157.03005298 170.79562202 161.17845691 175.09277344 166.65820312 C180.02222858 173.96792477 180.35763275 181.87587355 179.34667969 190.51757812 C176.88968116 198.90094809 171.52078247 204.66377675 163.95996094 208.83398438 C158.0327277 211.50449605 152.79054861 212.01115106 146.34667969 211.51757812 C146.19972656 212.48695313 146.05277344 213.45632812 145.90136719 214.45507812 C142.71376265 234.06502357 134.92747523 252.03352207 122.34667969 267.51757812 C123.87035156 267.75541016 123.87035156 267.75541016 125.42480469 267.99804688 C143.39349931 270.97200938 159.15666087 277.71281857 170.10449219 292.96679688 C180.57016123 309.71712647 182.14837267 329.15293305 177.84667969 348.33007812 C177.56824219 349.45027344 177.28980469 350.57046875 177.00292969 351.72460938 C176.19418917 354.68839867 176.19418917 354.68839867 176.34667969 358.51757812 C177.07145508 358.72326416 177.79623047 358.9289502 178.54296875 359.14086914 C205.49203051 366.87275474 205.49203051 366.87275474 214.34667969 373.51757812 C215.05953125 374.02417969 215.77238281 374.53078125 216.50683594 375.05273438 C228.96806352 384.82483384 234.85414015 399.08375556 236.93637085 414.34838867 C237.83055415 422.42892044 237.65439904 430.58665916 237.64746094 438.70507812 C237.65135712 440.62125744 237.65569366 442.5374359 237.66044617 444.45361328 C237.66785381 448.44062117 237.66765419 452.42754037 237.66235352 456.41455078 C237.65652342 461.51650193 237.67360112 466.61809422 237.69669819 471.71998596 C237.7114309 475.66455189 237.71230859 479.60903082 237.70918846 483.55361938 C237.7097005 485.43544229 237.71491619 487.31727021 237.72500038 489.19906616 C237.73735764 491.82370551 237.73058088 494.44763736 237.71899414 497.07226562 C237.72663788 497.84221359 237.73428162 498.61216156 237.74215698 499.40544128 C237.69570778 504.17363724 236.89994189 507.47715276 234.34667969 511.51757812 C231.25494217 513.06344688 228.75238416 512.81117334 225.34667969 512.51757812 C222.90917969 510.70507812 222.90917969 510.70507812 221.34667969 508.51757812 C221.34667969 507.52757812 221.34667969 506.53757812 221.34667969 505.51757812 C203.27499016 505.53137412 185.20360158 505.57355247 167.13206768 505.64966869 C158.74141714 505.68434537 150.35093134 505.7096777 141.96020508 505.71313477 C134.64817654 505.71617097 127.33644119 505.73661465 120.02452594 505.7781027 C116.15159912 505.79946615 112.27908945 505.81201645 108.40610313 505.80373192 C104.76233589 505.79621247 101.11941531 505.81192655 97.47580338 505.84563828 C95.49758848 505.85784234 93.51926964 505.84525397 91.5410614 505.83201599 C90.36737 505.84730347 89.19367859 505.86259094 87.98442078 505.87834167 C86.96215236 505.88110705 85.93988394 505.88387243 84.88663769 505.88672161 C82.10774534 506.28679815 82.10774534 506.28679815 80.55682087 508.9950304 C79.95780098 510.24369153 79.95780098 510.24369153 79.34667969 511.51757812 C78.34667969 512.51757812 78.34667969 512.51757812 74.53417969 512.83007812 C71.34216078 512.79569372 70.53556166 512.65451755 67.84667969 510.70507812 C66.34667969 508.51757812 66.34667969 508.51757812 66.34667969 505.51757812 C44.56667969 505.51757812 22.78667969 505.51757812 0.34667969 505.51757812 C0.01667969 507.16757812 -0.31332031 508.81757813 -0.65332031 510.51757812 C-4.44579718 513.04589603 -7.20281744 513.13079982 -11.65332031 512.51757812 C-14.32763521 510.70594546 -14.6125239 509.63996736 -15.65332031 506.51757812 C-84.45832031 506.02257812 -84.45832031 506.02257812 -154.65332031 505.51757812 C-154.98332031 507.16757812 -155.31332031 508.81757813 -155.65332031 510.51757812 C-159.37390392 512.99796719 -161.25128602 512.98095016 -165.65332031 512.51757812 C-168.56049104 510.29894783 -169.49313674 508.99812884 -170.65332031 505.51757812 C-170.75484081 502.80752643 -170.8001572 500.12311954 -170.79858398 497.4128418 C-170.8019426 496.58633118 -170.80530121 495.75982056 -170.8087616 494.90826416 C-170.81828127 492.16734319 -170.82021604 489.42648337 -170.82128906 486.68554688 C-170.82450386 484.77281164 -170.8278681 482.86007664 -170.83137512 480.94734192 C-170.83737098 476.92818636 -170.83921485 472.9090523 -170.83862305 468.88989258 C-170.83852206 463.77392215 -170.85210559 458.65809251 -170.86939526 453.54215527 C-170.88059903 449.58439012 -170.88253961 445.62665793 -170.88201332 441.66887856 C-170.8831835 439.78529697 -170.88755036 437.90171425 -170.89534569 436.01814842 C-170.97767428 414.04668027 -168.92173729 395.41370922 -153.65332031 378.51757812 C-141.59521461 366.81910014 -125.33540277 362.98621423 -109.65332031 358.51757812 C-110.29645179 353.76381607 -110.29645179 353.76381607 -111.18847656 349.05273438 C-114.33230252 334.3116838 -114.99346747 316.44921727 -108.65332031 302.51757812 C-108.30269531 301.71835937 -107.95207031 300.91914063 -107.59082031 300.09570312 C-104.40053046 293.67081384 -99.6430803 288.60296069 -94.65332031 283.51757812 C-94.09902344 282.93878906 -93.54472656 282.36 -92.97363281 281.76367188 C-82.99691007 272.25848578 -68.7671653 269.5417184 -55.65332031 267.51757812 C-56.21019531 266.76476562 -56.76707031 266.01195312 -57.34082031 265.23632812 C-68.99508383 249.01485323 -77.15901495 231.50924948 -79.65332031 211.51757812 C-80.33136719 211.56398437 -81.00941406 211.61039063 -81.70800781 211.65820312 C-90.41592882 211.99590643 -96.525629 210.05769586 -103.90332031 205.51757812 C-110.28106934 199.5042719 -113.03700237 191.46892468 -113.34082031 182.89257812 C-112.95983467 174.43296517 -110.62864638 167.9906117 -104.40332031 162.14257812 C-99.87413068 158.64636157 -94.45622871 155.51757812 -88.65332031 155.51757812 C-88.66220276 154.50297012 -88.67108521 153.48836212 -88.68023682 152.44300842 C-88.76186582 142.80929323 -88.82154354 133.1756496 -88.860569 123.54166508 C-88.88130791 118.59053524 -88.90937024 113.63968798 -88.95507812 108.6887207 C-88.99903081 103.89704612 -89.02255992 99.10564068 -89.03282928 94.31377983 C-89.04013311 92.49962575 -89.05439106 90.68548381 -89.07624054 88.87144661 C-89.33589811 66.38784644 -84.28992575 47.68339722 -70.65332031 29.51757812 C-70.1725 28.84984375 -69.69167969 28.18210937 -69.19628906 27.49414062 C-62.70269798 19.13683005 -53.1377602 12.96154957 -43.84082031 8.14257812 C-43.26283691 7.83328369 -42.68485352 7.52398926 -42.08935547 7.20532227 C-28.66237501 0.61360247 -14.62392745 -0.07052281 0 0 Z " fill="#010201" transform="translate(222.6533203125,-0.517578125)"/>
<path d="M0 0 C1.76544175 0.00084803 3.53088455 0.00036771 5.29632568 -0.00132751 C10.0496312 -0.00218204 14.80270579 0.01535496 19.55595803 0.03639436 C24.53804087 0.05525248 29.52013002 0.05691876 34.50224304 0.06047058 C43.91896641 0.06976436 53.33558426 0.09434175 62.75226134 0.12451905 C73.48027608 0.15814646 84.20829607 0.17456997 94.93635046 0.18960536 C116.98846878 0.22089389 139.04049237 0.27360208 161.0925293 0.34057617 C161.20374754 5.78497394 160.51005593 10.04212318 158.5300293 15.09057617 C158.25900391 15.78940918 157.98797852 16.48824219 157.70874023 17.20825195 C150.69855832 34.63756711 138.13180837 46.62041036 121.0300293 54.15307617 C110.79170485 58.45699161 100.45248468 58.62848635 89.5168457 58.59594727 C87.96522844 58.59870204 86.4136126 58.60238488 84.86199951 58.60691833 C81.54015823 58.61498528 78.21838406 58.61721034 74.89653397 58.61497116 C69.64380703 58.61212427 64.39121304 58.62653828 59.13851929 58.64395142 C44.20898389 58.69085656 29.27945941 58.71493671 14.34985352 58.72143555 C6.08962543 58.72518282 -2.17045037 58.74317661 -10.43061316 58.77652991 C-15.65309047 58.79675647 -20.87517547 58.79910945 -26.09767604 58.78824973 C-29.34072904 58.78564686 -32.58355219 58.79962397 -35.82654572 58.81833076 C-37.33099404 58.82366202 -38.83548445 58.82214 -40.33991623 58.81329536 C-42.39231363 58.80220063 -44.44315117 58.81557076 -46.49545288 58.83505249 C-48.21815934 58.83668679 -48.21815934 58.83668679 -49.97566795 58.83835411 C-53.55730913 59.45189444 -54.7436855 60.46747382 -56.9074707 63.34057617 C-57.35038605 66.44098359 -57.57329183 68.35864813 -55.78201199 71.00036049 C-53.02071566 72.97456756 -50.84963415 72.7182844 -47.47731018 72.7215271 C-46.82167821 72.72620707 -46.16604625 72.73088704 -45.49054664 72.73570883 C-43.28890341 72.74769471 -41.08787856 72.7381877 -38.88623047 72.72875977 C-37.30921566 72.73282425 -35.7322037 72.73816543 -34.15519714 72.74468994 C-29.86537899 72.75839419 -25.57577676 72.75304948 -21.28595471 72.74355268 C-16.79121138 72.73596016 -12.29648661 72.74300168 -7.80174255 72.74771118 C-0.24328294 72.75317498 7.31508887 72.74596606 14.87353516 72.73168945 C23.58996242 72.71541482 32.30617858 72.72061102 41.02260059 72.73716867 C48.51579853 72.75082936 56.00893325 72.75267929 63.50213963 72.74485266 C67.97270314 72.7401944 72.44316788 72.73949905 76.9137249 72.74946213 C81.12694349 72.75819443 85.33989353 72.75199678 89.55308342 72.73477936 C91.0912583 72.7308454 92.62945617 72.73189488 94.16762161 72.73856735 C108.51023769 72.79499678 120.75802658 70.00782753 133.5925293 63.59057617 C136.0925293 62.34057617 136.0925293 62.34057617 138.0925293 62.34057617 C138.09839554 63.44891312 138.10426178 64.55725006 138.11030579 65.69917297 C138.16745991 76.13212878 138.24018299 86.56487469 138.32824421 96.99761677 C138.3730171 102.36151446 138.41225789 107.72533498 138.43896484 113.08935547 C138.46492887 118.26364511 138.50528206 123.43763885 138.55571556 128.61174583 C138.57243108 130.58810948 138.58391609 132.56452435 138.5901432 134.54094887 C138.59973348 137.3043093 138.62773126 140.06690467 138.66015625 142.83007812 C138.65872116 143.65150803 138.65728607 144.47293793 138.6558075 145.31925964 C138.61527714 149.4795324 138.61527714 149.4795324 140.46193218 153.05110455 C142.75605661 154.86529171 144.51258657 154.71006576 147.4050293 154.77807617 C152.37446832 155.1194379 155.32607149 155.8566027 159.0925293 159.34057617 C161.99180234 163.68948573 162.83354376 167.15347494 162.0925293 172.34057617 C159.92345358 176.10202891 157.14030787 178.74081074 153.0925293 180.34057617 C150.7331543 180.53588867 150.7331543 180.53588867 148.3425293 180.46557617 C147.54331055 180.4475293 146.7440918 180.42948242 145.9206543 180.41088867 C145.31737305 180.38768555 144.7140918 180.36448242 144.0925293 180.34057617 C143.6594043 179.13401367 143.6594043 179.13401367 143.2175293 177.90307617 C142.35990362 175.20792938 142.35990362 175.20792938 140.0925293 174.34057617 C136.63452571 173.9238441 136.63452571 173.9238441 133.0925293 174.34057617 C130.40247754 177.09677037 129.70997959 179.18804935 129.5378418 182.98120117 C129.48354004 183.87887207 129.42923828 184.77654297 129.37329102 185.70141602 C129.32188965 186.65483887 129.27048828 187.60826172 129.2175293 188.59057617 C127.18231065 215.95196615 113.80794855 239.45363042 93.0925293 257.34057617 C71.15071335 275.04376945 44.69760253 279.90949445 17.0925293 278.34057617 C0.68265667 276.52177102 -14.79767926 269.10901409 -27.9074707 259.34057617 C-29.32672852 258.29063477 -29.32672852 258.29063477 -30.7746582 257.21948242 C-49.85361958 242.39497088 -62.52279449 219.92713612 -66.4309082 196.21948242 C-67.04404234 191.22897257 -67.3609813 186.25644659 -67.5012207 181.23120117 C-67.95547797 177.998986 -68.5456778 176.57919167 -70.9074707 174.34057617 C-73.74315928 173.67797963 -75.94986297 174.05889924 -78.9074707 174.34057617 C-81.0460192 176.47912467 -81.33402133 177.47332931 -81.9074707 180.34057617 C-90.32644304 181.25531361 -90.32644304 181.25531361 -94.0949707 179.07495117 C-97.98119555 175.73927484 -99.78149394 173.85229728 -100.2199707 168.59057617 C-100.15587433 164.17593861 -98.81629565 161.72110246 -95.9074707 158.34057617 C-92.2132996 155.72014339 -89.1872462 154.84966546 -84.7199707 154.27807617 C-80.31081959 153.8713272 -80.31081959 153.8713272 -76.9074707 151.34057617 C-76.71577693 148.47742749 -76.64845284 145.7100609 -76.66796875 142.84619141 C-76.66595459 141.96612427 -76.66394043 141.08605713 -76.66186523 140.17932129 C-76.65831205 138.26138562 -76.65909622 136.34343826 -76.66364098 134.42550468 C-76.6692336 131.37509115 -76.66007133 128.32505813 -76.6464386 125.27467346 C-76.60934176 116.59879068 -76.59066458 107.92303016 -76.60205078 99.24707031 C-76.60795904 93.94068192 -76.58935314 88.63481996 -76.55616188 83.32853889 C-76.54828521 81.31906673 -76.54937799 79.30953597 -76.56018639 77.30007744 C-76.67129941 55.68083858 -72.46236016 36.00473044 -56.7590332 20.09838867 C-40.21466663 4.09794648 -22.35132066 -0.15188708 0 0 Z " fill="#CC906D" transform="translate(224.907470703125,14.659423828125)"/>
<path d="M0 0 C1.12728516 -0.020625 2.25457031 -0.04125 3.41601562 -0.0625 C5.04120117 -0.07023437 5.04120117 -0.07023437 6.69921875 -0.078125 C8.17201294 -0.09214355 8.17201294 -0.09214355 9.67456055 -0.10644531 C12.83499446 0.32060083 14.18766519 0.86062247 16.3125 3.25 C16.5625 6.4375 16.5625 6.4375 16.3125 9.25 C15.54695801 9.2593457 14.78141602 9.26869141 13.99267578 9.27832031 C10.47366678 9.33249977 6.95591984 9.4160543 3.4375 9.5 C2.23351562 9.51417969 1.02953125 9.52835937 -0.2109375 9.54296875 C-8.74946453 9.77499394 -16.22096767 10.72761271 -23.08984375 16.14453125 C-28.53553972 22.94818703 -31.3067435 28.61094221 -31.0390625 37.46875 C-30.15591506 44.45542753 -27.08791938 49.76880094 -21.6875 54.25 C-11.48729799 62.07472554 -0.6202853 68.95983278 10.125 76 C14.06473777 78.58581645 18.00327191 81.1734611 21.94140625 83.76171875 C22.9138327 84.40056503 23.88625916 85.03941132 24.88815308 85.69761658 C30.8072804 89.59007635 36.70871184 93.50741449 42.58984375 97.45703125 C43.28362625 97.92247345 43.97740875 98.38791565 44.69221497 98.86746216 C47.85728102 100.99188128 51.01876174 103.12135056 54.17504883 105.25878906 C65.64935151 112.99249104 74.15919641 117.2943517 88.3125 116.25 C91.70768367 115.46865806 94.33559193 114.04161542 97.3125 112.25 C97.91916504 111.89019043 98.52583008 111.53038086 99.15087891 111.15966797 C112.11266896 104.45056389 112.11266896 104.45056389 120.375 93.625 C120.56380257 90.38660621 120.56380257 90.38660621 119.3125 88.3125 C116.25917468 86.69042092 113.63312747 86.57100603 110.3125 87.25 C106.69729539 89.05834388 103.43775945 91.31750848 100.125 93.625 C98.36171101 94.8218372 96.59742527 96.01720751 94.83203125 97.2109375 C94.05964111 97.74509277 93.28725098 98.27924805 92.49145508 98.82958984 C87.00104998 102.40865728 82.82220846 103.26093612 76.3125 102.25 C65.26641769 97.28447552 55.05987651 89.2751652 45.03564453 82.55151367 C43.03621436 81.21390835 41.03254336 79.88262266 39.02490234 78.55737305 C36.10648185 76.63091285 33.2005125 74.68692941 30.296875 72.73828125 C29.39394714 72.14654617 28.49101929 71.5548111 27.56072998 70.94514465 C26.73856995 70.38743881 25.91640991 69.82973297 25.06933594 69.25512695 C24.34164001 68.76994095 23.61394409 68.28475494 22.86419678 67.78486633 C22.35213684 67.27836044 21.8400769 66.77185455 21.3125 66.25 C21.3125 61.92736403 21.5339832 61.53285097 24.125 58.4375 C29.11814697 52.4580524 30.75479211 46.81677107 30.82421875 39.12890625 C30.85114555 38.01176491 30.85114555 38.01176491 30.87861633 36.87205505 C30.9323231 34.51892577 30.96648543 32.16599456 31 29.8125 C31.03320829 28.20635287 31.06770115 26.60023176 31.10351562 24.99414062 C31.18802574 21.07957101 31.25502371 17.16505606 31.3125 13.25 C35.57965616 14.66324409 39.84159981 16.08572116 44.0859375 17.56640625 C45.27445312 17.97761719 46.46296875 18.38882812 47.6875 18.8125 C48.87085938 19.22628906 50.05421875 19.64007813 51.2734375 20.06640625 C75.66786242 27.66568423 103.37097233 24.48183765 126.50390625 14.421875 C129.3125 13.25 129.3125 13.25 131.3125 13.25 C131.31137207 14.21711914 131.31024414 15.18423828 131.30908203 16.18066406 C131.31279984 19.82674381 131.35601293 23.47153726 131.41015625 27.1171875 C131.4281379 28.68415951 131.43591768 30.25128767 131.43261719 31.81835938 C131.41818801 43.10197361 132.31649552 52.92258484 140.51220703 61.57128906 C141.10630371 62.12526367 141.70040039 62.67923828 142.3125 63.25 C141.23880052 65.84477374 140.68851478 67.0398741 138.1875 68.4375 C136.0994277 70.07349634 136.0994277 70.07349634 136.0546875 72.4375 C136.06182125 74.72030102 136.17070877 76.97244355 136.3125 79.25 C141.8763839 80.41517813 145.68370804 80.79113896 150.67651367 77.54370117 C151.27826416 77.11677979 151.88001465 76.6898584 152.5 76.25 C153.15782471 75.81083252 153.81564941 75.37166504 154.4934082 74.91918945 C155.95863934 73.93559998 157.4162106 72.94053332 158.8671875 71.93603516 C161.57923536 70.06608682 164.31883281 68.24118278 167.0625 66.41796875 C169.04272923 65.09273218 171.02190392 63.76591847 173 62.4375 C173.94447998 61.80392578 174.88895996 61.17035156 175.86206055 60.51757812 C184.00564454 54.96390162 189.99320424 49.76079847 193.3125 40.25 C194.73017806 32.28832001 192.88933048 25.83786205 188.3125 19.25 C183.43951822 13.64370542 177.52582273 10.68936671 170.13549805 9.91870117 C166.52649967 9.73321889 162.92560114 9.62926797 159.3125 9.5625 C157.43498047 9.51125977 157.43498047 9.51125977 155.51953125 9.45898438 C152.45061043 9.37699031 149.38195794 9.30767981 146.3125 9.25 C146.0625 6.4375 146.0625 6.4375 146.3125 3.25 C148.49044485 0.75596579 149.93964499 0.30614528 153.20654297 -0.18579102 C185.06287088 -0.83388169 185.06287088 -0.83388169 198.8125 10.5 C208.48696442 19.91987325 212.23231551 30.48012037 212.5625 43.6875 C212.2785468 68.0816617 201.58176137 89.1337019 185.125 106.8125 C170.25025863 121.11513593 149.89726765 130.50820657 129.3125 131.25 C129.26351562 130.40695312 129.21453125 129.56390625 129.1640625 128.6953125 C129.05191406 127.05175781 129.05191406 127.05175781 128.9375 125.375 C128.83308594 123.73917969 128.83308594 123.73917969 128.7265625 122.0703125 C128.57996509 119.11953526 128.57996509 119.11953526 126.3125 117.25 C123.87237051 117.00712511 123.87237051 117.00712511 121.1875 117.125 C120.27742187 117.14304687 119.36734375 117.16109375 118.4296875 117.1796875 C117.73101562 117.20289063 117.03234375 117.22609375 116.3125 117.25 C114.77807489 121.47154311 114.77807489 121.47154311 114.3125 131.25 C92.5325 131.25 70.7525 131.25 48.3125 131.25 C47.9825 127.62 47.6525 123.99 47.3125 120.25 C46.9825 119.26 46.6525 118.27 46.3125 117.25 C45.075 117.023125 43.8375 116.79625 42.5625 116.5625 C41.86640625 116.43488281 41.1703125 116.30726563 40.453125 116.17578125 C37.44753628 116.27998962 36.35670966 117.06233703 34.3125 119.25 C33.61297511 122.20551526 33.61297511 122.20551526 33.5625 125.4375 C33.50578125 126.52417969 33.4490625 127.61085938 33.390625 128.73046875 C33.36484375 129.56191406 33.3390625 130.39335937 33.3125 131.25 C8.83158822 129.85246763 -11.21428591 118.407758 -28 100.828125 C-43.43204307 83.14557564 -50.95205805 60.58934308 -49.6875 37.25 C-48.75168478 26.72962571 -43.87589451 17.31574438 -36.16015625 10.10546875 C-24.82556659 1.60004997 -13.81473391 0.06384626 0 0 Z " fill="#B2EE99" transform="translate(174.6875,283.75)"/>
<path d="M0 0 C2.01953125 2.45703125 2.01953125 2.45703125 3.8125 5.8125 C4.48947755 7.01416807 5.17324052 8.21203539 5.86328125 9.40625 C6.38656006 10.31310547 6.38656006 10.31310547 6.92041016 11.23828125 C14.14416288 23.02629564 24.67082747 32.34084111 36 40 C36.79148437 40.53625 37.58296875 41.0725 38.3984375 41.625 C49.69367326 48.82993444 61.89340817 52.6737218 75 55 C78.63 55.66 82.26 56.32 86 57 C86 81.75 86 106.5 86 132 C39.8 132 -6.4 132 -54 132 C-54.103125 116.758125 -54.20625 101.51625 -54.3125 85.8125 C-54.35802002 81.02339111 -54.40354004 76.23428223 -54.45043945 71.30004883 C-54.47302246 65.39196777 -54.47302246 65.39196777 -54.47721863 62.61454773 C-54.48483018 60.70005968 -54.50227603 58.78559359 -54.52787781 56.8712616 C-54.72224799 41.55418755 -53.75622731 29.30860548 -43.2109375 17.21484375 C-35.31551217 9.30546891 -26.47648401 6.07866538 -16 3 C-15.01902344 2.67902344 -14.03804687 2.35804688 -13.02734375 2.02734375 C-4.65470269 -0.6877661 -4.65470269 -0.6877661 0 0 Z " fill="#CCF49F" transform="translate(122,373)"/>
<path d="M0 0 C3.21681182 0.38728201 5.88577547 1.09703613 8.9296875 2.1953125 C12.72208612 3.53601214 16.48579294 4.76670462 20.3671875 5.8203125 C32.23370432 9.34407753 41.19048548 16.58037049 47.1796875 27.3828125 C52.62147906 37.68559011 51.69059463 48.71700915 51.5703125 60.01953125 C51.56442075 61.87487304 51.56034659 63.7302215 51.55810547 65.58557129 C51.53725684 72.4139207 51.48141184 79.24212716 51.4296875 86.0703125 C51.3471875 101.3534375 51.2646875 116.6365625 51.1796875 132.3828125 C4.9796875 132.3828125 -41.2203125 132.3828125 -88.8203125 132.3828125 C-88.8203125 107.6328125 -88.8203125 82.8828125 -88.8203125 57.3828125 C-82.8803125 56.3928125 -76.9403125 55.4028125 -70.8203125 54.3828125 C-45.73014387 47.47021502 -23.22219293 32.13565273 -8.8203125 10.3828125 C-7.31294721 7.66883028 -5.82761456 4.95950574 -4.4375 2.18359375 C-2.8203125 0.3828125 -2.8203125 0.3828125 0 0 Z " fill="#CCF49F" transform="translate(392.8203125,372.6171875)"/>
<path d="M0 0 C1.76544175 0.00084803 3.53088455 0.00036771 5.29632568 -0.00132751 C10.0496312 -0.00218204 14.80270579 0.01535496 19.55595803 0.03639436 C24.53804087 0.05525248 29.52013002 0.05691876 34.50224304 0.06047058 C43.91896641 0.06976436 53.33558426 0.09434175 62.75226134 0.12451905 C73.48027608 0.15814646 84.20829607 0.17456997 94.93635046 0.18960536 C116.98846878 0.22089389 139.04049237 0.27360208 161.0925293 0.34057617 C161.20374754 5.78497394 160.51005593 10.04212318 158.5300293 15.09057617 C158.25900391 15.78940918 157.98797852 16.48824219 157.70874023 17.20825195 C150.69855832 34.63756711 138.13180837 46.62041036 121.0300293 54.15307617 C110.79170485 58.45699161 100.45248468 58.62848635 89.5168457 58.59594727 C87.96522844 58.59870204 86.4136126 58.60238488 84.86199951 58.60691833 C81.54015823 58.61498528 78.21838406 58.61721034 74.89653397 58.61497116 C69.64380703 58.61212427 64.39121304 58.62653828 59.13851929 58.64395142 C44.20898389 58.69085656 29.27945941 58.71493671 14.34985352 58.72143555 C6.08962543 58.72518282 -2.17045037 58.74317661 -10.43061316 58.77652991 C-15.65309047 58.79675647 -20.87517547 58.79910945 -26.09767604 58.78824973 C-29.34072904 58.78564686 -32.58355219 58.79962397 -35.82654572 58.81833076 C-37.33099404 58.82366202 -38.83548445 58.82214 -40.33991623 58.81329536 C-42.39231363 58.80220063 -44.44315117 58.81557076 -46.49545288 58.83505249 C-48.21815934 58.83668679 -48.21815934 58.83668679 -49.97566795 58.83835411 C-53.56115062 59.45255249 -54.71232667 60.49266002 -56.9074707 63.34057617 C-57.2374707 64.33057617 -57.5674707 65.32057617 -57.9074707 66.34057617 C-63.5174707 66.34057617 -69.1274707 66.34057617 -74.9074707 66.34057617 C-74.9074707 93.40057617 -74.9074707 120.46057617 -74.9074707 148.34057617 C-75.2374707 148.34057617 -75.5674707 148.34057617 -75.9074707 148.34057617 C-76.02403424 136.89974613 -76.11252254 125.45906057 -76.16653156 114.01775455 C-76.19247143 108.70335265 -76.22757949 103.38936113 -76.28466797 98.07519531 C-76.3395505 92.93337998 -76.36900814 87.79195588 -76.38185692 82.64986992 C-76.39099698 80.70172415 -76.4088409 78.7535964 -76.43612099 76.80562019 C-76.71156831 56.2951614 -72.83524312 36.95218499 -58.21313477 21.57128906 C-41.45112751 4.59258024 -23.17523926 -0.15748597 0 0 Z " fill="#5F4B55" transform="translate(224.907470703125,14.659423828125)"/>
<path d="M0 0 C2.77245014 -0.13487595 5.53837088 -0.23400807 8.3125 -0.3125 C9.49102539 -0.3753418 9.49102539 -0.3753418 10.69335938 -0.43945312 C12.9015038 -0.48643492 14.84262464 -0.47986266 17 0 C18.98046875 2.45703125 18.98046875 2.45703125 20 5 C21.82032884 6.82032884 24.67103035 6.14465337 27.11854553 6.15821838 C28.08762908 6.16562535 28.08762908 6.16562535 29.07629007 6.17318195 C31.25666787 6.18862786 33.43701607 6.19693661 35.61743164 6.20532227 C37.17421228 6.21489523 38.73099028 6.22490496 40.2877655 6.23532104 C44.52722373 6.26243926 48.76669316 6.28341124 53.00619054 6.30332303 C57.43183659 6.32514008 61.85744781 6.35254964 66.2830658 6.37937927 C74.66951453 6.42936424 83.05598253 6.47428146 91.44246906 6.51740164 C100.98767822 6.56672452 110.53285244 6.62166094 120.07802784 6.67708123 C139.71865271 6.79099033 159.3593109 6.89780983 179 7 C178.02680515 15.88349342 178.02680515 15.88349342 175.25 18.875 C174.76015625 19.42929688 174.2703125 19.98359375 173.765625 20.5546875 C168.6629027 24.73169469 163.04886937 24.28213406 156.78466797 24.25537109 C155.75797501 24.25899155 154.73128204 24.262612 153.67347717 24.26634216 C151.4461951 24.27322935 149.21889617 24.27574287 146.99160385 24.27439499 C143.4595478 24.27342857 139.9277951 24.28638762 136.39578247 24.30337524 C126.35404839 24.34960175 116.31234463 24.37423686 106.27050781 24.38085938 C100.12434169 24.38588979 93.9784909 24.41022095 87.83243179 24.44618607 C85.49702986 24.45595166 83.16158436 24.45833382 80.82616806 24.45301437 C77.54767225 24.44589954 74.27010724 24.46331882 70.99169922 24.48583984 C70.03857346 24.47766739 69.08544769 24.46949493 68.10343933 24.46107483 C59.12946658 24.56998746 50.38008473 26.89531514 43.625 33.0625 C42.85414063 33.73410156 42.08328125 34.40570313 41.2890625 35.09765625 C33.56184388 44.89513651 33.29130797 54.8242414 33.44140625 66.75 C33.44566741 68.45670203 33.44798616 70.1634099 33.44847107 71.87011719 C33.4546042 75.43060979 33.47714412 78.99046534 33.51293945 82.55078125 C33.55820822 87.08620299 33.57296827 91.62105038 33.57667637 96.15667725 C33.58113173 99.6760002 33.59648232 103.19520592 33.6155529 106.71447754 C33.62435394 108.38561045 33.63112258 110.05675549 33.63571358 111.72790527 C33.74035961 138.49699827 41.35138916 162.58749578 59 183 C60.38638672 184.35544922 60.38638672 184.35544922 61.80078125 185.73828125 C64 188 64 188 64 190 C64.59167969 190.26683594 65.18335938 190.53367187 65.79296875 190.80859375 C68.03804375 192.02053689 69.49055853 193.29081898 71.3125 195.0625 C76.73370648 199.94158583 83.02101775 203.39457079 89.31005859 207.02148438 C91.55570034 208.3217635 93.77904884 209.65808687 96 211 C91.97002778 212.578752 88.29426335 211.47518012 84.25 210.5 C83.50210205 210.31985352 82.7542041 210.13970703 81.98364258 209.95410156 C69.08277098 206.65195559 57.67733595 200.95595367 47 193 C46.05382812 192.30003906 45.10765625 191.60007812 44.1328125 190.87890625 C25.05385113 176.05439471 12.38467622 153.58655994 8.4765625 129.87890625 C7.86342836 124.8883964 7.54648941 119.91587041 7.40625 114.890625 C6.95199273 111.65840982 6.3617929 110.2386155 4 108 C1.16431142 107.33740346 -1.04239226 107.71832307 -4 108 C-6.1385485 110.1385485 -6.42655063 111.13275314 -7 114 C-15.41897233 114.91473744 -15.41897233 114.91473744 -19.1875 112.734375 C-23.07372485 109.39869867 -24.87402324 107.51172111 -25.3125 102.25 C-25.24840363 97.83536244 -23.90882494 95.38052628 -21 92 C-16.38354547 88.70708857 -12.26769536 88.35770603 -6.7421875 87.8203125 C-3.87985563 87.24643272 -3.87985563 87.24643272 -2.3556366 84.95466614 C-0.64725003 81.23116681 -0.55992727 77.92248152 -0.56762695 73.9050293 C-0.5574353 73.10450638 -0.54724365 72.30398346 -0.53674316 71.47920227 C-0.50664895 68.84413624 -0.4973528 66.20943395 -0.48828125 63.57421875 C-0.4714319 61.74289241 -0.45328131 59.91157761 -0.43388367 58.08027649 C-0.38640536 53.26841846 -0.35658195 48.45660725 -0.33044434 43.64459229 C-0.3006279 38.73106642 -0.25410127 33.81770185 -0.20898438 28.90429688 C-0.12297592 19.26961566 -0.05561966 9.63490122 0 0 Z " fill="#B47D5E" transform="translate(150,81)"/>
<path d="M0 0 C4.26715616 1.41324409 8.52909981 2.83572116 12.7734375 4.31640625 C13.96195313 4.72761719 15.15046875 5.13882812 16.375 5.5625 C17.55835938 5.97628906 18.74171875 6.39007813 19.9609375 6.81640625 C44.35536242 14.41568423 72.05847233 11.23183765 95.19140625 1.171875 C98 0 98 0 100 0 C99.99887207 0.96711914 99.99774414 1.93423828 99.99658203 2.93066406 C100.00029984 6.57674381 100.04351293 10.22153726 100.09765625 13.8671875 C100.1156379 15.43415951 100.12341768 17.00128767 100.12011719 18.56835938 C100.10568801 29.85197361 101.00399552 39.67258484 109.19970703 48.32128906 C109.79380371 48.87526367 110.38790039 49.42923828 111 50 C109.92642747 52.59446694 109.34119527 53.7992969 106.875 55.25 C106.25625 55.8275 105.6375 56.405 105 57 C105.2165625 58.8253125 105.2165625 58.8253125 105.4375 60.6875 C105.578125 62.80078125 105.578125 62.80078125 105 65 C101.66487787 68.19522606 97.92135477 70.5824933 94 73 C93.01 73.66 92.02 74.32 91 75 C89.32345271 74.72057545 87.65740715 74.37668344 86 74 C78.70748404 72.94882653 74.53171986 76.39129653 68.8125 80.375 C67.04921101 81.5718372 65.28492527 82.76720751 63.51953125 83.9609375 C62.74714111 84.49509277 61.97475098 85.02924805 61.17895508 85.57958984 C55.68854998 89.15865728 51.50970846 90.01093612 45 89 C33.95391769 84.03447552 23.74737651 76.0251652 13.72314453 69.30151367 C11.72371436 67.96390835 9.72004336 66.63262266 7.71240234 65.30737305 C4.79398185 63.38091285 1.8880125 61.43692941 -1.015625 59.48828125 C-1.91855286 58.89654617 -2.82148071 58.3048111 -3.75177002 57.69514465 C-4.98501007 56.85858589 -4.98501007 56.85858589 -6.24316406 56.00512695 C-6.97085999 55.51994095 -7.69855591 55.03475494 -8.44830322 54.53486633 C-9.21639313 53.7751075 -9.21639313 53.7751075 -10 53 C-10 48.67736403 -9.7785168 48.28285097 -7.1875 45.1875 C-2.19435303 39.2080524 -0.55770789 33.56677107 -0.48828125 25.87890625 C-0.47033005 25.13414536 -0.45237885 24.38938446 -0.43388367 23.62205505 C-0.3801769 21.26892577 -0.34601457 18.91599456 -0.3125 16.5625 C-0.27929171 14.95635287 -0.24479885 13.35023176 -0.20898438 11.74414062 C-0.12447426 7.82957101 -0.05747629 3.91505606 0 0 Z " fill="#B47E5E" transform="translate(206,297)"/>
<path d="M0 0 C21.78 0 43.56 0 66 0 C66 24.42 66 48.84 66 74 C44.22 74 22.44 74 0 74 C0 49.58 0 25.16 0 0 Z " fill="#CDF5A0" transform="translate(223,431)"/>
<path d="M0 0 C9 3 9 3 12.7734375 4.31640625 C13.96195313 4.72761719 15.15046875 5.13882812 16.375 5.5625 C17.55835938 5.97628906 18.74171875 6.39007813 19.9609375 6.81640625 C44.35536242 14.41568423 72.05847233 11.23183765 95.19140625 1.171875 C98 0 98 0 100 0 C100 9.57 100 19.14 100 29 C99.67 29 99.34 29 99 29 C99 25.37 99 21.74 99 18 C97.370625 18.598125 95.74125 19.19625 94.0625 19.8125 C63.27850464 30.967264 31.42013557 31.1040584 1 18 C1 21.63 1 25.26 1 29 C0.67 29 0.34 29 0 29 C0 19.43 0 9.86 0 0 Z " fill="#9D6B4E" transform="translate(206,297)"/>
<path d="M0 0 C1.83041423 1.11560236 3.45150019 2.33434575 5.09375 3.7109375 C9.92139731 6.97553507 15.13140382 7.38784398 20.8125 7.375 C21.86872559 7.37367065 21.86872559 7.37367065 22.94628906 7.37231445 C29.7134286 7.2187992 34.96868717 5.66388097 40.0625 1.1875 C42.84985962 -0.5208817 45.00366123 -0.12516732 48.15625 0.43359375 C50 1 50 1 52.0625 2.625 C53.51530203 6.3054318 53.23322201 8.23542754 52 12 C46.98914766 17.59567331 39.97008506 19.8042543 33 22 C32.01 22.33 31.02 22.66 30 23 C15.35118082 24.35741231 2.65735192 22.60770763 -9 13 C-11 10 -11 10 -10.875 6.5 C-10 3 -10 3 -8.3125 1.0625 C-5.17558807 -0.37878386 -3.43321394 -0.53854336 0 0 Z " fill="#040302" transform="translate(235,220)"/>
<path d="M0 0 C1.74023438 0.00966797 1.74023438 0.00966797 3.515625 0.01953125 C4.7221875 0.03628906 5.92875 0.05304688 7.171875 0.0703125 C9.00492188 0.08384766 9.00492188 0.08384766 10.875 0.09765625 C13.89082282 0.12121737 16.90624992 0.15411544 19.921875 0.1953125 C20.60622064 20.85241233 20.60622064 20.85241233 15.3046875 27.1015625 C13.54494203 28.76312475 12.09328301 30.12128273 9.921875 31.1953125 C5.43856181 30.45194429 2.19126003 27.98993982 -1.515625 25.5078125 C-2.49885742 24.87456055 -2.49885742 24.87456055 -3.50195312 24.22851562 C-7.84195023 21.34243931 -11.04120901 18.45159627 -14.078125 14.1953125 C-14.74698428 9.95920375 -14.59960201 8.03340055 -12.328125 4.3828125 C-8.36372568 0.52853538 -5.49083274 -0.05383169 0 0 Z " fill="#60D49A" transform="translate(172.078125,307.8046875)"/>
<path d="M0 0 C4.04152915 -0.08746928 8.08281305 -0.14054982 12.125 -0.1875 C13.26710938 -0.21263672 14.40921875 -0.23777344 15.5859375 -0.26367188 C22.50355819 -0.32399996 27.585978 -0.18642053 32.875 4.75 C34.57173606 8.14347212 34.57260179 10.24627713 34 14 C30.54673409 19.54615434 25.68400244 22.85081775 20.375 26.5 C19.38874634 27.18703003 19.38874634 27.18703003 18.38256836 27.88793945 C13.55883353 31.07169024 13.55883353 31.07169024 10.97509766 30.74023438 C6.9868208 29.24549328 4.10213417 26.85601032 1.94921875 23.23046875 C-1.01831847 15.87491441 -0.25768222 7.77818549 0 0 Z " fill="#60D49A" transform="translate(320,308)"/>
<path d="M0 0 C1.64644742 3.60650387 1.65850276 5.15369826 0.3125 8.875 C-3.32245879 13.38736264 -8.08636772 13.81137261 -13.5390625 14.55859375 C-25.47641368 15.75825311 -25.47641368 15.75825311 -28.43359375 13.6015625 C-30.22039311 11.14123441 -30.23080867 8.78047224 -30.078125 5.80859375 C-29.6875 3.875 -29.6875 3.875 -27.9375 1.5 C-20.73876818 -2.09936591 -6.77969441 -5.3606886 0 0 Z " fill="#050403" transform="translate(221.6875,138.125)"/>
<path d="M0 0 C15.488305 1.9179925 15.488305 1.9179925 19.93359375 6.36328125 C20.4296875 8.30078125 20.4296875 8.30078125 20.37109375 10.36328125 C20.36980469 11.04390625 20.36851562 11.72453125 20.3671875 12.42578125 C19.80161608 14.95301929 19.0222452 15.84807651 16.93359375 17.36328125 C9.10890486 18.7441087 -1.33376029 17.41257707 -8.25390625 13.61328125 C-10.5747146 10.73227778 -11.14200593 9.06766547 -11.06640625 5.36328125 C-8.59381481 -0.05287142 -5.43812227 -0.28281468 0 0 Z " fill="#040302" transform="translate(300.06640625,135.63671875)"/>
<path d="M0 0 C2.15234375 1.56640625 2.15234375 1.56640625 4 4 C4.53125 7.53125 4.53125 7.53125 4.5 11.5 C4.5103125 12.8096875 4.520625 14.119375 4.53125 15.46875 C4 19 4 19 2.15625 21.4375 C0 23 0 23 -3 23.5 C-6.63326668 22.89445555 -7.74144325 21.8441085 -10 19 C-12.10065116 14.79869769 -11.53482694 9.5642617 -11 5 C-8.01087982 0.42840444 -5.43274083 -1.04031207 0 0 Z " fill="#070503" transform="translate(308,163)"/>
<path d="M0 0 C3.0625 0.5625 3.0625 0.5625 5.9375 2.3125 C9.09175596 7.13665617 8.95894458 11.94478066 8.0625 17.5625 C5.72916667 22.22916667 5.72916667 22.22916667 3.0625 23.5625 C-0.39256149 23.93805016 -2.23222252 24.06790642 -5.1015625 22.01171875 C-7.63709826 18.62920615 -7.47047531 16.25036494 -7.4375 12.0625 C-7.45296875 10.09796875 -7.45296875 10.09796875 -7.46875 8.09375 C-6.9375 4.5625 -6.9375 4.5625 -5.08984375 2.12890625 C-2.9375 0.5625 -2.9375 0.5625 0 0 Z " fill="#070503" transform="translate(206.9375,162.4375)"/>
</svg>
