<?xml version="1.0" encoding="UTF-8"?>
<svg version="1.1" xmlns="http://www.w3.org/2000/svg" width="512" height="512">
<path d="M0 0 C12.18601047 8.26407606 19.28645349 19.58811022 22.72241211 33.91845703 C23.59499202 39.11362837 23.41299644 44.39422934 23.42773438 49.65014648 C23.4373589 51.71966014 23.46838158 53.78814418 23.5 55.85742188 C23.6439797 73.71184238 18.69905562 86.9107669 6.1875 99.6875 C4.52438572 101.3577115 2.85850504 103.02518303 1.1875 104.6875 C2.1775 104.67589844 3.1675 104.66429688 4.1875 104.65234375 C5.52083142 104.64295409 6.85416492 104.63385517 8.1875 104.625 C10.1365625 104.60759766 10.1365625 104.60759766 12.125 104.58984375 C14.96547988 104.58469795 17.50095238 104.9347285 20.28125 105.4921875 C24.49092899 105.70267145 25.8977011 105.0762872 29.05419922 102.37231445 C29.59318848 101.87820068 30.13217773 101.38408691 30.6875 100.875 C31.90350845 99.84521664 33.1250704 98.82196201 34.3515625 97.8046875 C34.9796582 97.28229492 35.60775391 96.75990234 36.25488281 96.22167969 C72.70743568 67.28435753 123.74419986 56.66731554 169.25 61.3125 C202.73437916 65.33373671 237.85673778 78.6417091 263.62890625 100.78515625 C264.39074219 101.43355469 265.15257812 102.08195312 265.9375 102.75 C266.59234375 103.33910156 267.2471875 103.92820312 267.921875 104.53515625 C271.24092017 106.2232913 273.56838046 105.34893825 277.1875 104.6875 C280.00125499 104.55917784 282.80900611 104.59150693 285.625 104.625 C286.72231445 104.63176758 286.72231445 104.63176758 287.84179688 104.63867188 C289.62373419 104.65031852 291.40562863 104.66824809 293.1875 104.6875 C292.44242187 103.94371094 291.69734375 103.19992188 290.9296875 102.43359375 C289.57230469 101.07427734 289.57230469 101.07427734 288.1875 99.6875 C287.20136719 98.71490234 287.20136719 98.71490234 286.1953125 97.72265625 C274.23833294 85.19511543 270.81735477 71.27896819 270.87182617 54.4230957 C270.8749784 52.3889357 270.85148298 50.3562461 270.82617188 48.32226562 C270.81797311 31.53938839 275.03387312 18.27848651 286.7109375 5.9765625 C298.74514167 -5.14653473 312.08075714 -8.32494256 328.046875 -7.75390625 C340.79252458 -6.91340511 351.67613162 -1.12490767 360.46875 8.07421875 C374.53596186 24.79215524 375.59429746 44.52100951 373.87890625 65.453125 C371.94143585 79.92414283 365.54021287 92.30361346 354.1875 101.6875 C353.5275 101.6875 352.8675 101.6875 352.1875 101.6875 C352.1875 102.6775 352.1875 103.6675 352.1875 104.6875 C353.16589844 104.66429688 354.14429688 104.64109375 355.15234375 104.6171875 C367.72567385 104.44410331 377.28471455 105.05993594 386.7578125 114.203125 C391.3440875 119.42104267 393.80877299 124.74417144 394.1875 131.6875 C393.5 134.5625 393.5 134.5625 392.1875 136.6875 C390.10546875 137.3203125 390.10546875 137.3203125 388.1875 137.6875 C388.50287528 140.63400616 388.86241682 143.56288125 389.25 146.5 C389.33443359 147.33337891 389.41886719 148.16675781 389.50585938 149.02539062 C389.84518395 151.43944258 390.1965066 153.45705416 391.1875 155.6875 C394.62152095 157.51053276 394.62152095 157.51053276 398.1875 158.6875 C403.25793303 166.98996344 404.86939669 184.3377436 403.1875 193.6875 C401.21061105 197.27854598 398.86262906 199.84993547 395.1875 201.6875 C393.09394981 201.77917789 390.99740823 201.80500933 388.90185547 201.80102539 C388.25782776 201.80117142 387.61380005 201.80131744 386.95025635 201.8014679 C384.81836598 201.8007704 382.68656263 201.79298566 380.5546875 201.78515625 C379.07781014 201.78329149 377.60093216 201.78186786 376.12405396 201.78086853 C372.23437801 201.77704792 368.34473933 201.76722152 364.45507812 201.75616455 C360.48698429 201.74594064 356.51888445 201.74136881 352.55078125 201.73632812 C344.76300384 201.72559885 336.97525714 201.70852789 329.1875 201.6875 C329.46174805 202.75258789 329.73599609 203.81767578 330.01855469 204.91503906 C330.38233816 206.34435608 330.74593494 207.77372062 331.109375 209.203125 C331.28968262 209.90131348 331.46999023 210.59950195 331.65576172 211.31884766 C338.34514895 237.74039997 337.92851819 269.77441061 329.1875 295.6875 C329.74695313 295.75066406 330.30640625 295.81382812 330.8828125 295.87890625 C342.3737676 297.63395566 353.85658915 303.34162925 361.3828125 312.30078125 C374.56197203 330.73559752 375.84340206 349.73261767 373.6875 371.875 C371.50126943 384.78129908 365.0115153 394.92672698 355.41015625 403.55078125 C352.970045 405.5652727 352.970045 405.5652727 352.1875 408.6875 C352.77128418 408.66131592 353.35506836 408.63513184 353.95654297 408.6081543 C376.29475046 407.73711857 376.29475046 407.73711857 385.1875 415.4140625 C392.86273389 423.18523681 394.74675531 434.06174339 396.546875 444.4609375 C396.83803192 446.08934067 396.83803192 446.08934067 397.1350708 447.75064087 C397.53981046 450.03048042 397.93954986 452.31121289 398.33447266 454.59277344 C398.93518868 458.049201 399.55831347 461.50106702 400.18359375 464.953125 C405.20766562 493.20896857 405.20766562 493.20896857 401.82324219 499.03662109 C399.84678952 501.52347638 398.03203337 503.26523332 395.1875 504.6875 C393.28798481 504.7897333 391.38485385 504.82699936 389.48260498 504.83467102 C387.66140892 504.84540398 387.66140892 504.84540398 385.80342102 504.85635376 C384.45065333 504.85919416 383.09788537 504.86190587 381.74511719 504.86450195 C380.32600233 504.87076578 378.90688912 504.87741251 377.48777771 504.88441467 C373.6260519 504.9018331 369.76433849 504.91237896 365.90258312 504.9206202 C363.49004844 504.92576914 361.07751762 504.93184496 358.66498566 504.93813133 C351.11726438 504.95718675 343.56955291 504.97141649 336.0218122 504.9797433 C327.30841951 504.98951459 318.59528094 505.01582963 309.8819778 505.05624419 C303.14813927 505.08640576 296.41437357 505.10121225 289.6804688 505.10452431 C285.65825081 505.10687499 281.63630417 505.11583714 277.61415863 505.14098549 C273.82856302 505.16427184 270.04341731 505.16849745 266.25776863 505.15822411 C264.87024756 505.15772875 263.4827043 505.16404939 262.09525108 505.17778015 C249.07232979 505.29942187 249.07232979 505.29942187 244.1875 500.6875 C240.08604824 495.52760907 241.19869394 490.19004191 241.88858032 484.01138306 C242.94611506 475.78981971 244.44253594 467.626714 245.88842773 459.46655273 C246.50001081 455.99993873 247.09321233 452.53049508 247.68554688 449.06054688 C248.07701095 446.82792938 248.46955242 444.59550046 248.86328125 442.36328125 C249.03636307 441.34011307 249.20944489 440.31694489 249.38777161 439.26277161 C250.85111936 431.15861218 252.72808518 422.21456916 258.875 416.3125 C259.47699219 415.70664062 260.07898438 415.10078125 260.69921875 414.4765625 C267.97526142 409.24512209 274.4122578 408.11769304 283.25 408.4375 C284.21099609 408.45554687 285.17199219 408.47359375 286.16210938 408.4921875 C288.50499227 408.53881204 290.8456829 408.60421831 293.1875 408.6875 C291.67313655 405.46146326 290.33458875 403.80245423 287.5 401.625 C282.49632153 397.43544837 279.42852833 392.28840208 276.1875 386.6875 C275.300625 387.47125 274.41375 388.255 273.5 389.0625 C244.18034947 414.00172465 203.11755213 436.57165339 163.50390625 436.02734375 C161.1875 435.6875 161.1875 435.6875 158 433.625 C156.1875 430.6875 156.1875 430.6875 156.1875 427.0625 C157.17944545 423.7146841 157.58166503 422.78395772 160.1875 420.6875 C162.02734375 420.03613281 162.02734375 420.03613281 164.125 419.640625 C165.32189453 419.40569336 165.32189453 419.40569336 166.54296875 419.16601562 C167.41566406 419.00810547 168.28835938 418.85019531 169.1875 418.6875 C170.11175781 418.51412109 171.03601563 418.34074219 171.98828125 418.16210938 C173.99283756 417.78642101 175.99773409 417.41254435 178.00292969 417.0402832 C201.15827801 412.65738263 223.86554446 404.53693965 243.1875 390.6875 C244.65703125 389.64142578 244.65703125 389.64142578 246.15625 388.57421875 C252.86838056 383.66724451 259.15924819 378.41277209 265.1875 372.6875 C266.09371094 372.05457031 266.99992187 371.42164063 267.93359375 370.76953125 C271.62410875 365.72305579 270.85047535 360.21055021 270.8125 354.125 C270.8125 336.24945108 274.13061011 322.23008466 286.7109375 308.9765625 C294.31096888 301.95192782 302.45452569 298.7583891 312.1875 295.6875 C313.00653545 291.70965014 313.81652594 287.73000868 314.625 283.75 C314.85509766 282.63302734 315.08519531 281.51605469 315.32226562 280.36523438 C320.19685259 256.27488429 319.36785151 231.59012509 313.56787109 207.71508789 C313.1875 205.6875 313.1875 205.6875 313.1875 201.6875 C312.41155487 201.69638245 311.63560974 201.70526489 310.83615112 201.7144165 C303.50941551 201.79469665 296.18289434 201.85553206 288.85583305 201.89474869 C285.08924409 201.91558854 281.32301976 201.94383908 277.55664062 201.98925781 C273.91913413 202.03284598 270.28197747 202.05666419 266.64422989 202.06700897 C265.25917176 202.07437726 263.87413193 202.08876605 262.48922348 202.11042023 C249.01952863 202.31257814 249.01952863 202.31257814 244.1875 197.6875 C240.08604824 192.52760907 241.19869394 187.19004191 241.88858032 181.01138306 C242.94611506 172.78981971 244.44253594 164.626714 245.88842773 156.46655273 C246.50001081 152.99993873 247.09321233 149.53049508 247.68554688 146.06054688 C248.07701095 143.82792938 248.46955242 141.59550046 248.86328125 139.36328125 C249.03636307 138.34011307 249.20944489 137.31694489 249.38777161 136.26277161 C250.45195289 130.36923415 251.9882766 125.26242097 254.58952332 119.85514832 C255.41832136 117.66494656 255.41832136 117.66494656 254.39422607 115.49229431 C253.02909496 113.45058747 251.75816413 112.39027485 249.72265625 111.0234375 C249.0150415 110.54608154 248.30742676 110.06872559 247.57836914 109.5769043 C246.42582642 108.82727417 246.42582642 108.82727417 245.25 108.0625 C244.44876709 107.53760986 243.64753418 107.01271973 242.82202148 106.47192383 C203.27507918 80.99859909 157.02867316 71.40133265 110.73242188 81.20751953 C87.95056128 86.31836596 66.70033109 95.75963831 47.5625 109.125 C46.83345459 109.63313232 46.10440918 110.14126465 45.35327148 110.66479492 C41.31544689 113.410516 41.31544689 113.410516 39.1875 117.6875 C39.86364348 119.79006105 39.86364348 119.79006105 40.96386719 122.05004883 C43.5487018 128.18851074 44.66070305 134.34265419 45.765625 140.88671875 C45.98192566 142.12114212 46.19822632 143.35556549 46.42108154 144.62739563 C46.98805821 147.88000045 47.54496463 151.13412567 48.09777832 154.38916016 C48.55114275 157.03929759 49.01706598 159.68716032 49.48323441 162.33507061 C50.04221544 165.51782835 50.59123204 168.70229413 51.140625 171.88671875 C51.44990936 173.65567757 51.44990936 173.65567757 51.76544189 175.46037292 C54.34354793 190.71698565 54.34354793 190.71698565 51.5 195.4375 C49.12499581 198.77534373 47.8152524 199.95011831 44.1875 201.6875 C41.19450378 202.04826355 41.19450378 202.04826355 37.83666992 202.02807617 C35.94527534 202.02773628 35.94527534 202.02773628 34.01567078 202.02738953 C32.64976644 202.01207202 31.28386578 201.99642407 29.91796875 201.98046875 C28.51264398 201.97486912 27.10731333 201.97060075 25.70198059 201.96760559 C22.01441095 201.95618555 18.32719931 201.92674342 14.63977051 201.89349365 C10.87252647 201.86273111 7.10522423 201.84908709 3.33789062 201.83398438 C-4.04573561 201.80187048 -11.42906752 201.75070917 -18.8125 201.6875 C-18.96267578 202.92121338 -19.11285156 204.15492676 -19.26757812 205.42602539 C-19.62168434 208.25673399 -20.00918285 211.06572021 -20.53125 213.87109375 C-20.65886719 214.57169922 -20.78648438 215.27230469 -20.91796875 215.99414062 C-21.18029034 217.41093694 -21.4433075 218.82760464 -21.70703125 220.24414062 C-25.32516583 240.1438808 -24.85334034 260.59638875 -21.1875 280.45166016 C-20.83764227 282.53759576 -20.61600177 284.59279161 -20.4375 286.69921875 C-19.99814298 290.20230641 -19.60741064 292.64437657 -17.8125 295.6875 C-14.45062677 297.54620635 -11.23060853 298.52231099 -7.52734375 299.53125 C3.39263549 302.93010789 11.80970173 311.92718742 17.06152344 321.80029297 C22.03586182 331.47204246 23.33121998 339.03224075 23.10522461 349.82592773 C22.54147989 362.34917769 22.54147989 362.34917769 27.63037109 373.26904297 C29.7229804 375.16749969 31.89045009 376.82141864 34.24365234 378.38476562 C36.38297591 379.8185047 38.39543686 381.36913592 40.42578125 382.953125 C49.80504835 390.14985349 59.67849216 396.29309121 70.1875 401.6875 C70.79625977 402.00412598 71.40501953 402.32075195 72.03222656 402.64697266 C87.32671303 410.50766551 103.40181498 414.87894627 120.28515625 417.828125 C121.0858252 417.97056641 121.88649414 418.11300781 122.71142578 418.25976562 C124.4460917 418.55942395 126.18454535 418.83758138 127.92529297 419.09960938 C129.25971436 419.32100586 129.25971436 419.32100586 130.62109375 419.546875 C131.8265686 419.7320166 131.8265686 419.7320166 133.05639648 419.92089844 C135.84643794 420.92453347 136.71808895 422.14672163 138.1875 424.6875 C138.6598305 428.46614401 138.69211526 430.75035737 136.875 434.125 C129.74499172 438.27035365 119.16558071 435.26969549 111.5 433.6875 C110.42564697 433.46747314 109.35129395 433.24744629 108.24438477 433.02075195 C90.65007471 429.23486211 73.91907545 423.43533234 58.1875 414.6875 C56.95450074 414.02069712 55.72142777 413.3540305 54.48828125 412.6875 C43.65260632 406.74348274 34.07997529 399.55826368 24.59765625 391.66796875 C22.50062202 389.94479799 20.37352257 388.29531707 18.1875 386.6875 C17.78660156 387.38875 17.38570313 388.09 16.97265625 388.8125 C13.2992986 394.94309237 9.59595255 399.56073796 4.0078125 404.03125 C1.92737681 405.65307214 1.92737681 405.65307214 1.1875 408.6875 C2.06317627 408.64822388 2.06317627 408.64822388 2.95654297 408.6081543 C24.72464946 407.75934856 24.72464946 407.75934856 32.1875 413.6875 C32.8475 414.19539063 33.5075 414.70328125 34.1875 415.2265625 C42.50324244 422.53748606 44.00744147 433.47361536 45.765625 443.88671875 C46.09007599 445.73835381 46.09007599 445.73835381 46.42108154 447.62739563 C46.98805821 450.88000045 47.54496463 454.13412567 48.09777832 457.38916016 C48.55114275 460.03929759 49.01706598 462.68716032 49.48323441 465.33507061 C50.04221544 468.51782835 50.59123204 471.70229413 51.140625 474.88671875 C51.34681458 476.06602463 51.55300415 477.24533051 51.76544189 478.46037292 C54.44282891 494.30450664 54.44282891 494.30450664 50.1875 500.6875 C44.483753 506.11691717 37.78154678 505.26706085 30.30688477 505.23681641 C28.88879323 505.2455179 27.47071109 505.25588664 26.05264282 505.26779175 C22.21163505 505.29451642 18.37102152 505.29573558 14.52993894 505.29066515 C11.31922153 505.28852205 8.10858329 505.29830173 4.89788288 505.30787599 C-2.67857156 505.33004688 -10.25482766 505.330952 -17.83129883 505.31884766 C-25.63866966 505.30676596 -33.44531982 505.33139859 -41.25256771 505.37398779 C-47.96446645 505.40925086 -54.67613611 505.42121781 -61.38812405 505.41471231 C-65.39307294 505.4110913 -69.39750763 505.41631049 -73.40237236 505.44414139 C-77.16939333 505.46934134 -80.93529295 505.46537293 -84.70229721 505.43931961 C-86.08132752 505.43459804 -87.46043729 505.44002243 -88.83937645 505.45656586 C-100.53434601 505.58671094 -100.53434601 505.58671094 -105.12562561 501.76596069 C-109.27832125 497.48920971 -109.15933014 493.93050166 -109.11132812 488.11425781 C-108.67181947 479.17356096 -106.77925033 470.3119423 -105.18701172 461.52148438 C-104.56320612 458.06641098 -103.96209441 454.60791989 -103.36328125 451.1484375 C-102.96749495 448.9190309 -102.57040341 446.68985555 -102.171875 444.4609375 C-101.99565613 443.4429306 -101.81943726 442.42492371 -101.63787842 441.37606812 C-99.44854797 429.46982187 -96.38988427 419.95106361 -86.875 412.0859375 C-78.38592861 406.65899544 -67.46907662 408.25438002 -57.8125 408.6875 C-59.81141272 405.03648907 -61.87164146 402.59362662 -65 399.875 C-77.32210182 387.77437387 -79.90747198 372.34574947 -80.0625 355.75 C-79.97060421 339.41552335 -77.39278447 327.11042605 -67.8125 313.6875 C-67.235 312.82125 -66.6575 311.955 -66.0625 311.0625 C-57.82608162 302.36850282 -46.6222344 297.06995957 -34.8125 295.6875 C-35.21082031 294.25083984 -35.21082031 294.25083984 -35.6171875 292.78515625 C-43.00744708 265.33362492 -43.89012145 234.4121638 -36.25317383 206.88110352 C-35.98330154 205.90440201 -35.71342926 204.9277005 -35.43537903 203.92140198 C-35.22982895 203.18421432 -35.02427887 202.44702667 -34.8125 201.6875 C-35.62380875 201.70082367 -36.43511749 201.71414734 -37.27101135 201.72787476 C-44.9358642 201.84835094 -52.60025477 201.93957426 -60.26580906 201.99837303 C-64.20634581 202.0296194 -68.14609698 202.07196598 -72.08618164 202.14013672 C-75.89231463 202.20557391 -79.69769454 202.24125636 -83.50434685 202.25676346 C-84.952838 202.26780669 -86.40129026 202.28937261 -87.84945869 202.32188034 C-100.61221682 202.59684562 -100.61221682 202.59684562 -105.19506836 198.77587891 C-109.45931975 194.28429608 -109.02134038 190.3368707 -108.97079468 184.32971191 C-108.72276762 178.62284209 -107.81017636 173.09974076 -106.80078125 167.484375 C-106.59067917 166.28113586 -106.38057709 165.07789673 -106.16410828 163.8381958 C-105.71998966 161.31625298 -105.27011547 158.79531744 -104.81469727 156.27539062 C-104.12489007 152.43688828 -103.464881 148.59402572 -102.80664062 144.75 C-102.36898188 142.28613892 -101.92958799 139.82258529 -101.48828125 137.359375 C-101.29534988 136.22167664 -101.10241852 135.08397827 -100.90364075 133.9118042 C-98.88945334 123.04082591 -94.97460345 115.12195433 -85.8125 108.6875 C-79.22828768 104.92509296 -72.36866908 104.53139031 -64.9375 104.625 C-64.24914062 104.62951172 -63.56078125 104.63402344 -62.8515625 104.63867188 C-61.17183665 104.65033664 -59.49215625 104.66826729 -57.8125 104.6875 C-57.8125 103.6975 -57.8125 102.7075 -57.8125 101.6875 C-58.39386719 101.42582031 -58.97523437 101.16414063 -59.57421875 100.89453125 C-68.75035677 95.94614269 -74.17876099 85.85712287 -77.65625 76.390625 C-82.31137711 59.2761871 -82.30267615 34.4297016 -73.8125 18.6875 C-66.34917468 6.4041104 -56.17804478 -1.67816084 -42.6484375 -6.421875 C-27.8542059 -9.85678824 -12.94727642 -7.75788222 0 0 Z " fill="#010100" transform="translate(108.8125,7.3125)"/>
<path d="M0 0 C0.70382812 0.61230469 1.40765625 1.22460938 2.1328125 1.85546875 C16.90385168 15.43903223 25.1086939 36.26083662 26.16015625 56.0078125 C26.78004883 79.67153775 18.78288204 101.23582386 2.49609375 118.59375 C-2.94452272 123.83853833 -8.80604454 128.65716843 -15.75 131.7421875 C-26.45191312 136.53209126 -30.63396007 142.39319876 -35.8515625 152.76318359 C-37.71259382 156.38792188 -39.78730795 159.87753326 -41.875 163.375 C-42.23255371 163.99898682 -42.59010742 164.62297363 -42.95849609 165.26586914 C-44.91122358 168.5860593 -46.64440283 171.04704245 -50 173 C-54.97552785 174.19781226 -58.36071506 174.21878845 -63 172 C-66.87613699 168.53704346 -69.35563247 165.03488171 -71.84765625 160.4921875 C-72.35551918 159.58123825 -72.35551918 159.58123825 -72.87364197 158.65188599 C-74.30745699 156.0797165 -75.72163985 153.49692843 -77.13696289 150.91455078 C-78.17920323 149.01969829 -79.2318387 147.13089808 -80.28515625 145.2421875 C-80.90269775 144.1166748 -81.52023926 142.99116211 -82.15649414 141.83154297 C-85.16307362 137.21357067 -88.78657444 135.53069216 -93.6875 133.25 C-99.42262613 130.42773259 -104.14471077 127.12517055 -109 123 C-109.99773437 122.21882813 -109.99773437 122.21882813 -111.015625 121.421875 C-123.70000085 111.13454655 -134.04636363 94.06618184 -136.3125 77.75 C-136.52061031 74.21212465 -136.26932158 72.35909543 -134.125 69.5 C-132 68 -132 68 -130 68 C-130 62.39 -130 56.78 -130 51 C-131.65 50.34 -133.3 49.68 -135 49 C-137.29359493 44.41281015 -135.44821983 38.47426522 -134.02734375 33.80078125 C-126.15746119 12.41798136 -111.38103658 -3.95490074 -91 -14 C-83.86484805 -17.16134692 -76.71252033 -19.73636673 -69 -21 C-67.700625 -21.226875 -66.40125 -21.45375 -65.0625 -21.6875 C-40.9237556 -23.96235549 -17.78190393 -16.41182281 0 0 Z " fill="#BAEB6B" transform="translate(312,180)"/>
<path d="M0 0 C0.70382812 0.61230469 1.40765625 1.22460938 2.1328125 1.85546875 C16.90385168 15.43903223 25.1086939 36.26083662 26.16015625 56.0078125 C26.78004883 79.67153775 18.78288204 101.23582386 2.49609375 118.59375 C-2.94452272 123.83853833 -8.80604454 128.65716843 -15.75 131.7421875 C-26.45191312 136.53209126 -30.63396007 142.39319876 -35.8515625 152.76318359 C-37.71259382 156.38792188 -39.78730795 159.87753326 -41.875 163.375 C-42.23255371 163.99898682 -42.59010742 164.62297363 -42.95849609 165.26586914 C-44.91122358 168.5860593 -46.64440283 171.04704245 -50 173 C-54.97552785 174.19781226 -58.36071506 174.21878845 -63 172 C-66.87613699 168.53704346 -69.35563247 165.03488171 -71.84765625 160.4921875 C-72.35551918 159.58123825 -72.35551918 159.58123825 -72.87364197 158.65188599 C-74.30745699 156.0797165 -75.72163985 153.49692843 -77.13696289 150.91455078 C-78.17920323 149.01969829 -79.2318387 147.13089808 -80.28515625 145.2421875 C-80.90269775 144.1166748 -81.52023926 142.99116211 -82.15649414 141.83154297 C-85.16307362 137.21357067 -88.78657444 135.53069216 -93.6875 133.25 C-99.42262613 130.42773259 -104.14471077 127.12517055 -109 123 C-109.99773437 122.21882813 -109.99773437 122.21882813 -111.015625 121.421875 C-123.70000085 111.13454655 -134.04636363 94.06618184 -136.3125 77.75 C-136.51092196 74.37682673 -136.2258745 72.34749923 -134.375 69.5 C-131.25991849 67.5325801 -129.62829011 67.4076261 -126 68 C-121.24362003 70.97822561 -120.06320833 73.7468042 -118.5625 79.0625 C-115.50054668 89.15701332 -111.03554327 97.12689205 -104 105 C-104 105.66 -104 106.32 -104 107 C-103.41605469 107.26683594 -102.83210938 107.53367187 -102.23046875 107.80859375 C-99.95497719 109.02404896 -98.26692047 110.38558345 -96.3125 112.0625 C-91.35319936 116.05473701 -85.89789539 118.76107383 -80.11645508 121.36352539 C-74.032531 124.32208386 -71.31699753 128.21487221 -68 134 C-67.50701416 134.81629883 -67.01402832 135.63259766 -66.50610352 136.47363281 C-65.01868291 138.9467695 -63.56778768 141.43810558 -62.125 143.9375 C-61.62742187 144.78634766 -61.12984375 145.63519531 -60.6171875 146.50976562 C-60.14796875 147.31994141 -59.67875 148.13011719 -59.1953125 148.96484375 C-58.56133545 150.05720337 -58.56133545 150.05720337 -57.91455078 151.17163086 C-57 153 -57 153 -57 155 C-56.34 155 -55.68 155 -55 155 C-54.76925781 154.18402344 -54.53851563 153.36804688 -54.30078125 152.52734375 C-52.71061203 148.21526325 -50.54687159 144.49246946 -48.1875 140.5625 C-47.76146484 139.83740234 -47.33542969 139.11230469 -46.89648438 138.36523438 C-45.62547156 136.22508723 -44.31725396 134.11191944 -43 132 C-42.63028076 131.36400879 -42.26056152 130.72801758 -41.87963867 130.07275391 C-38.57308201 124.80809683 -34.48283074 122.80008651 -28.9375 120.25 C-20.16867702 115.9250183 -13.65416672 111.18650005 -7 104 C-6.32839844 103.28457031 -5.65679687 102.56914062 -4.96484375 101.83203125 C7.274511 87.4945014 10.03925004 70.2100733 9 52 C8.63052481 48.54078849 7.98391568 45.33406858 7 42 C6.61521484 40.68322266 6.61521484 40.68322266 6.22265625 39.33984375 C0.66714196 22.38717999 -11.22203316 9.05376636 -27 1 C-43.02224037 -6.16225977 -61.25319396 -7.50599532 -78.05078125 -2 C-85.11044034 0.72698394 -91.06274252 4.33641162 -97 9 C-97.76054687 9.57234375 -98.52109375 10.1446875 -99.3046875 10.734375 C-109.77099829 19.20882733 -115.36246808 30.66669997 -119.70556641 43.13427734 C-121.71115283 48.80743522 -121.71115283 48.80743522 -125 51 C-128.79106167 51.41357036 -131.12965695 51.47868868 -134.5 49.625 C-136.94821 45.34063251 -136.08178898 41.68565574 -135 37 C-128.46165643 15.80227501 -114.18266477 -1.84788469 -94.55859375 -12.24609375 C-86.37748192 -16.2782773 -78.02219855 -19.52178668 -69 -21 C-67.700625 -21.226875 -66.40125 -21.45375 -65.0625 -21.6875 C-40.9237556 -23.96235549 -17.78190393 -16.41182281 0 0 Z " fill="#010100" transform="translate(312,180)"/>
<path d="M0 0 C0.75410156 0.00322266 1.50820313 0.00644531 2.28515625 0.00976562 C3.06246094 0.01814453 3.83976562 0.02652344 4.640625 0.03515625 C5.43339844 0.03966797 6.22617187 0.04417969 7.04296875 0.04882812 C8.99222008 0.0605706 10.94143238 0.07850479 12.890625 0.09765625 C12.89449219 0.98904297 12.89449219 0.98904297 12.8984375 1.8984375 C13.24608652 9.34971478 15.36195482 15.13840012 19.890625 21.09765625 C26.4855695 27.06196587 33.41578753 30.66332921 42.3984375 30.40625 C51.00764337 29.34021981 58.21447593 25.64602681 63.890625 19.09765625 C67.95388533 13.37270438 68.93557667 6.93379165 69.890625 0.09765625 C72.59957267 0.01620682 75.30603763 -0.04304989 78.015625 -0.08984375 C79.15644531 -0.12754883 79.15644531 -0.12754883 80.3203125 -0.16601562 C85.28340355 -0.23019353 88.57561539 0.37547923 92.890625 3.09765625 C95.61630403 5.90121183 96.86405307 8.02426711 98.203125 11.72265625 C98.76 12.83640625 99.316875 13.95015625 99.890625 15.09765625 C101.04046875 15.47277344 102.1903125 15.84789062 103.375 16.234375 C106.890625 18.09765625 106.890625 18.09765625 107.74291992 20.01953125 C108.25489079 22.44376586 108.57839133 24.82022769 108.828125 27.28515625 C108.99538086 28.55262695 108.99538086 28.55262695 109.16601562 29.84570312 C109.4363558 31.92614705 109.66735069 34.01163628 109.890625 36.09765625 C109.08625 36.44828125 108.281875 36.79890625 107.453125 37.16015625 C104.60406079 38.91151541 104.60406079 38.91151541 103.98828125 42.23828125 C103.87672692 46.64690832 104.44599297 50.54585494 105.328125 54.84765625 C106.890625 62.83073485 106.890625 62.83073485 106.890625 66.09765625 C63.660625 66.09765625 20.430625 66.09765625 -24.109375 66.09765625 C-23.44127472 58.74855317 -22.65586825 51.63313521 -21.40234375 44.390625 C-21.15234367 42.93708366 -21.15234367 42.93708366 -20.89729309 41.45417786 C-20.54598893 39.426119 -20.19209557 37.39850705 -19.83569336 35.37133789 C-19.29557505 32.27771055 -18.77567378 29.18107923 -18.25585938 26.08398438 C-17.91009529 24.10264759 -17.5631319 22.12151965 -17.21484375 20.140625 C-16.98803169 18.76235786 -16.98803169 18.76235786 -16.75663757 17.35624695 C-15.57116375 10.80982626 -13.51880069 5.38011826 -8.109375 1.09765625 C-5.34969694 0.24415135 -2.87982082 -0.02181682 0 0 Z " fill="#61D9F9" transform="translate(390.109375,127.90234375)"/>
<path d="M0 0 C0.79921875 0.00644531 1.5984375 0.01289062 2.421875 0.01953125 C3.246875 0.03628906 4.071875 0.05304688 4.921875 0.0703125 C5.76234375 0.07933594 6.6028125 0.08835937 7.46875 0.09765625 C9.53658104 0.12115433 11.60426495 0.15702342 13.671875 0.1953125 C13.81882813 1.113125 13.96578125 2.0309375 14.1171875 2.9765625 C16.19517108 14.34576 19.53216093 20.32889225 28.83984375 27.06640625 C34.63786108 30.63917173 43.06055245 29.84052395 49.671875 29.1953125 C53.040771 28.31309143 55.74331762 27.05834565 58.671875 25.1953125 C60.0021875 24.421875 60.0021875 24.421875 61.359375 23.6328125 C67.78969002 16.85491288 70.4613249 9.39725735 70.671875 0.1953125 C73.69490795 0.0322318 76.70904206 -0.08605155 79.734375 -0.1796875 C80.58193359 -0.22996094 81.42949219 -0.28023438 82.30273438 -0.33203125 C86.82406824 -0.43677258 89.94297341 -0.13614976 93.60546875 2.65625 C99.5209378 8.77569673 100.34856928 17.8744835 101.71484375 25.9609375 C101.88816727 26.95736267 102.06149078 27.95378784 102.24006653 28.98040771 C102.6021002 31.07067347 102.96075301 33.16152737 103.31616211 35.25292969 C103.86041249 38.45140969 104.416685 41.64762987 104.97460938 44.84375 C105.32622983 46.88269036 105.67716533 48.92174898 106.02734375 50.9609375 C106.19292282 51.91309143 106.35850189 52.86524536 106.52909851 53.84625244 C106.67958145 54.73778015 106.83006439 55.62930786 106.98510742 56.54785156 C107.11817795 57.32678772 107.25124847 58.10572388 107.38835144 58.90826416 C107.671875 61.1953125 107.671875 61.1953125 107.671875 66.1953125 C64.441875 66.1953125 21.211875 66.1953125 -23.328125 66.1953125 C-22.15645466 58.57945527 -20.98517939 50.97711628 -19.671875 43.38671875 C-19.52407593 42.53150131 -19.37627686 41.67628387 -19.22399902 40.79515076 C-18.91553525 39.01475398 -18.60632977 37.23448555 -18.29638672 35.4543457 C-17.82488493 32.73915421 -17.35973245 30.02291775 -16.89453125 27.30664062 C-16.59153675 25.56243205 -16.28816495 23.81828896 -15.984375 22.07421875 C-15.84785522 21.271017 -15.71133545 20.46781525 -15.57067871 19.64027405 C-14.38946799 12.93173653 -13.14222143 7.29259107 -8.328125 2.1953125 C-5.44648301 0.44925203 -3.35138014 -0.04787686 0 0 Z " fill="#FB71C3" transform="translate(38.328125,127.8046875)"/>
<path d="M0 0 C1.24716797 0.02707031 1.24716797 0.02707031 2.51953125 0.0546875 C4.55519074 0.10148427 6.5902509 0.17321702 8.625 0.25 C8.63917969 0.85585938 8.65335937 1.46171875 8.66796875 2.0859375 C9.14531655 10.47177715 11.57986247 17.79833783 17.875 23.625 C25.56874137 29.44907949 32.97520287 31.54604988 42.625 30.25 C47.55500642 28.74605459 51.60624996 26.46500004 55.625 23.25 C56.285 23.25 56.945 23.25 57.625 23.25 C57.91375 22.66347656 58.2025 22.07695312 58.5 21.47265625 C59.17871275 20.13172724 59.88060025 18.80170112 60.625 17.49609375 C63.68821525 11.9559818 64.7541311 6.48358788 65.625 0.25 C68.31360931 0.14112493 70.99773158 0.06229406 73.6875 0 C74.43966797 -0.03351563 75.19183594 -0.06703125 75.96679688 -0.1015625 C81.70274174 -0.20088622 84.97148181 0.83393421 89.625 4.25 C93.03929996 8.35302141 93.6163176 13.12639775 94.5 18.25 C94.66145508 19.14412598 94.82291016 20.03825195 94.98925781 20.95947266 C95.34574734 22.94769059 95.69702238 24.93684832 96.04394531 26.92675781 C96.68017982 30.5655915 97.33612988 34.20062796 97.9921875 37.8359375 C98.45416808 40.43210627 98.91511421 43.02845934 99.375 45.625 C99.70927002 47.48705078 99.70927002 47.48705078 100.05029297 49.38671875 C100.25541504 50.56621094 100.46053711 51.74570312 100.671875 52.9609375 C100.94789551 54.52787354 100.94789551 54.52787354 101.22949219 56.12646484 C101.625 59.25 101.625 59.25 101.625 66.25 C58.725 66.25 15.825 66.25 -28.375 66.25 C-27.70689972 58.90089692 -26.92149325 51.78547896 -25.66796875 44.54296875 C-25.41796867 43.08942741 -25.41796867 43.08942741 -25.16291809 41.60652161 C-24.81161393 39.57846275 -24.45772057 37.5508508 -24.10131836 35.52368164 C-23.56120005 32.4300543 -23.04129878 29.33342298 -22.52148438 26.23632812 C-22.17572029 24.25499134 -21.8287569 22.2738634 -21.48046875 20.29296875 C-21.25365669 18.91470161 -21.25365669 18.91470161 -21.02226257 17.5085907 C-19.82544563 10.89953108 -17.85936542 6.45022978 -12.7109375 1.890625 C-8.31064479 -0.27345338 -4.82253036 -0.19997734 0 0 Z " fill="#C996E5" transform="translate(394.375,430.75)"/>
<path d="M0 0 C1.24040039 0.03383789 1.24040039 0.03383789 2.50585938 0.06835938 C4.52553577 0.12673153 6.54426721 0.21639368 8.5625 0.3125 C8.70945312 1.364375 8.70945312 1.364375 8.859375 2.4375 C9.85627425 8.76265389 11.4015732 13.76853073 14.5625 19.3125 C14.85125 20.00472656 15.14 20.69695312 15.4375 21.41015625 C16.84619152 23.79221448 18.03255753 24.26802834 20.5625 25.3125 C21.23410156 25.65410156 21.90570313 25.99570312 22.59765625 26.34765625 C23.26667969 26.68667969 23.93570313 27.02570313 24.625 27.375 C25.29660156 27.71660156 25.96820313 28.05820312 26.66015625 28.41015625 C32.54105505 31.19965855 39.00403593 31.21370291 45.26171875 29.62890625 C54.1682618 26.34180537 59.62392106 21.63245062 63.62890625 12.9921875 C65.08300141 8.81850851 65.45957169 4.71034615 65.5625 0.3125 C68.27144767 0.23105057 70.97791263 0.17179386 73.6875 0.125 C74.82832031 0.08729492 74.82832031 0.08729492 75.9921875 0.04882812 C80.95653714 -0.01536605 84.24510374 0.59293166 88.5625 3.3125 C94.06183881 8.81183881 94.82529486 16.14259144 96 23.51953125 C96.12560303 24.2849675 96.25120605 25.05040375 96.38061523 25.83903503 C96.7784754 28.26707315 97.17083561 30.69595545 97.5625 33.125 C98.08097759 36.31939804 98.60220283 39.51333751 99.125 42.70703125 C99.24907227 43.46936066 99.37314453 44.23169006 99.50097656 45.01712036 C100.28716152 49.79915587 101.1682569 54.54636569 102.23046875 59.27612305 C102.5625 61.3125 102.5625 61.3125 102.5625 66.3125 C59.6625 66.3125 16.7625 66.3125 -27.4375 66.3125 C-26.8406363 58.55327196 -26.25904094 51.17319542 -24.9140625 43.57421875 C-24.76722015 42.72374466 -24.62037781 41.87327057 -24.46908569 40.99702454 C-24.16117738 39.2246114 -23.85018431 37.45273144 -23.53613281 35.68139648 C-23.06058551 32.98916141 -22.60010046 30.29462844 -22.140625 27.59960938 C-21.83683757 25.86182158 -21.53218054 24.12418553 -21.2265625 22.38671875 C-21.09206696 21.59383957 -20.95757141 20.80096039 -20.81900024 19.98405457 C-18.25290001 5.74912726 -18.25290001 5.74912726 -13.33984375 2.33203125 C-9.02709815 -0.37634122 -4.95552741 -0.25955623 0 0 Z " fill="#FDDF76" transform="translate(43.4375,430.6875)"/>
<path d="M0 0 C16.79380251 0.07116018 31.5555806 8.13717945 43.75 19.1875 C58.04016877 34.57964696 62.64819297 52.54599046 62.07568359 73.00976562 C61.56519754 86.43390218 54.96541732 100.03358949 46 110 C45.34515625 110.73476563 44.6903125 111.46953125 44.015625 112.2265625 C37.92258525 118.68691315 31.12567269 123.82645525 22.9140625 127.30859375 C14.58863211 130.84218322 11.15432039 135.09376259 7.01806641 143.06298828 C5.49723754 145.9565749 3.86422939 148.78427827 2.24487305 151.62353516 C0.47434443 154.73680434 -1.26306376 157.8678858 -3 161 C-3.66 161 -4.32 161 -5 161 C-8.3 155.06 -11.6 149.12 -15 143 C-10.50981023 136.26471534 -10.50981023 136.26471534 -6.65625 134.39453125 C-5.82754395 133.97405518 -4.99883789 133.5535791 -4.14501953 133.12036133 C-3.27216309 132.68876709 -2.39930664 132.25717285 -1.5 131.8125 C7.33183321 127.20254708 14.22961108 122.33647495 21 115 C21.58523438 114.3709375 22.17046875 113.741875 22.7734375 113.09375 C35.60610869 97.6130673 40.56467281 76.6951509 39 57 C36.56979081 38.51004776 27.02455997 20.6005522 12.26660156 9.11889648 C8.99139981 6.66857161 5.66816056 4.39394966 2.14453125 2.31640625 C1.43683594 1.88199219 0.72914063 1.44757813 0 1 C0 0.67 0 0.34 0 0 Z " fill="#95D529" transform="translate(260,174)"/>
<path d="M0 0 C0.05859908 4.31244188 0.09379686 8.62477974 0.125 12.9375 C0.14175781 14.14986328 0.15851563 15.36222656 0.17578125 16.61132812 C0.24386225 29.17227235 -1.45576434 39.23570312 -10.1875 48.75 C-18.01869704 56.10347696 -28.4869261 59.55578391 -39.1015625 59.30859375 C-48.92906454 58.26226941 -57.5796568 53.46497573 -63.78515625 45.79296875 C-65.31770286 43.5826374 -66.68066722 41.34266141 -68 39 C-68.61875 37.96875 -69.2375 36.9375 -69.875 35.875 C-72.19846718 30.18182603 -71.21034962 23.05339452 -71 17 C-70.21463867 17.01571045 -69.42927734 17.0314209 -68.62011719 17.04760742 C-64.99682064 17.11069303 -61.37364027 17.14922211 -57.75 17.1875 C-56.51507813 17.21263672 -55.28015625 17.23777344 -54.0078125 17.26367188 C-45.86745926 17.32793782 -38.76917121 16.42527031 -31 14 C-30.2663623 13.77546143 -29.53272461 13.55092285 -28.77685547 13.31958008 C-19.91346798 10.45456993 -12.22161606 6.67040071 -4.4765625 1.5390625 C-2 0 -2 0 0 0 Z " fill="#FBCFA1" transform="translate(467,348)"/>
<path d="M0 0 C0.1503376 4.33743239 0.25812607 8.6734148 0.32958984 13.01269531 C0.35943268 14.48301664 0.40012433 15.95316525 0.45263672 17.42285156 C0.86315548 29.22325355 -1.08513206 37.77035725 -8.4375 47.4375 C-15.63676213 54.63676213 -24.20451855 59.11518657 -34.5625 59.4375 C-45.85468314 58.93955167 -54.98847325 54.49311566 -62.75 46.3125 C-68.45150024 39.28197872 -71.30627298 32.75913702 -71.12890625 23.6328125 C-71.11029541 22.3864502 -71.09168457 21.14008789 -71.07250977 19.85595703 C-71.04858154 18.91349121 -71.02465332 17.97102539 -71 17 C-69.85337891 17.0314209 -69.85337891 17.0314209 -68.68359375 17.06347656 C-43.98551376 17.65046462 -23.77139942 14.52495155 -2.72265625 1.06640625 C-1 0 -1 0 0 0 Z " fill="#FBCFA2" transform="translate(116,348)"/>
<path d="M0 0 C0.66 0 1.32 0 2 0 C2.05859908 4.31244188 2.09379686 8.62477974 2.125 12.9375 C2.14175781 14.14986328 2.15851563 15.36222656 2.17578125 16.61132812 C2.24374583 29.15079395 0.6377365 38.75089303 -8.078125 48.26953125 C-16.73244774 56.42456614 -24.11692893 58.65000738 -35.82617188 58.61816406 C-45.50445908 58.24885098 -52.76170875 54.28588451 -60 48 C-68.13983017 38.02214366 -69.48158785 29.69965008 -69 17 C-68.26587891 17.02094727 -67.53175781 17.04189453 -66.77539062 17.06347656 C-41.65320419 17.68484561 -22.850144 13.60194351 -1 1 C-0.67 0.67 -0.34 0.34 0 0 Z " fill="#FCD0A2" transform="translate(465,45)"/>
<path d="M0 0 C0.12535793 4.19505502 0.21514515 8.38906477 0.2746582 12.58544922 C0.29951385 14.00719229 0.33341201 15.42881161 0.37719727 16.85009766 C0.7032313 27.72045582 -0.55269139 37.35001227 -7.25 46.375 C-16.38909294 55.09867963 -25.6720586 58.60291539 -38.12426758 58.55297852 C-47.1578477 58.26288817 -54.17402309 54.83029705 -60.875 48.8125 C-68.14427551 40.77709987 -71.02522364 32.44947772 -71.0078125 21.78515625 C-71.00668457 20.88804932 -71.00555664 19.99094238 -71.00439453 19.06665039 C-71.00294434 18.38465576 -71.00149414 17.70266113 -71 17 C-70.23969482 17.01047363 -69.47938965 17.02094727 -68.69604492 17.03173828 C-65.19323134 17.07375821 -61.69047108 17.0994708 -58.1875 17.125 C-56.99189453 17.14175781 -55.79628906 17.15851562 -54.56445312 17.17578125 C-43.20720992 17.23767358 -33.55174296 15.65731661 -23.0625 11.3125 C-22.20293701 10.96380859 -21.34337402 10.61511719 -20.45776367 10.25585938 C-14.32211613 7.70544081 -8.65509734 4.78109596 -3.01953125 1.25 C-1 0 -1 0 0 0 Z " fill="#FCD0A2" transform="translate(116,45)"/>
<path d="M0 0 C4.2286315 2.17815832 6.9824794 4.77036305 9.6875 8.66796875 C10.12449219 9.29340576 10.56148438 9.91884277 11.01171875 10.56323242 C11.33785156 11.03736572 11.66398437 11.51149902 12 12 C4.10257576 17.13682019 -3.75507152 21.59915683 -12.5625 25 C-13.31128418 25.29011963 -14.06006836 25.58023926 -14.83154297 25.87915039 C-22.63570892 28.78312808 -29.85169245 29.18206419 -38.125 29.1875 C-39.60806641 29.20586914 -39.60806641 29.20586914 -41.12109375 29.22460938 C-42.07371094 29.22654297 -43.02632813 29.22847656 -44.0078125 29.23046875 C-44.87035645 29.23457764 -45.73290039 29.23868652 -46.62158203 29.24291992 C-49.17171233 28.98246215 -50.80126486 28.28381454 -53 27 C-52.17765127 17.1318153 -47.44596509 9.49873281 -40 3 C-26.4690515 -5.19745676 -14.72842235 -6.03332964 0 0 Z " fill="#A498A4" transform="translate(449,19)"/>
<path d="M0 0 C5.0113952 2.91449663 8.93386098 6.689572 12.84765625 10.93359375 C9.68721976 14.45477485 6.18042678 16.68776427 2.03515625 18.87109375 C1.38442139 19.21664307 0.73368652 19.56219238 0.06323242 19.91821289 C-6.75232969 23.42202807 -13.79876643 25.80516702 -21.15234375 27.93359375 C-21.76827393 28.11390137 -22.3842041 28.29420898 -23.01879883 28.47998047 C-27.47775503 29.42799976 -32.11236177 29.11829475 -36.65234375 29.12109375 C-37.69777344 29.13333984 -38.74320312 29.14558594 -39.8203125 29.15820312 C-41.33044922 29.16110352 -41.33044922 29.16110352 -42.87109375 29.1640625 C-43.78826172 29.16817139 -44.70542969 29.17228027 -45.65039062 29.17651367 C-48.27051502 28.92212025 -49.90190719 28.26181193 -52.15234375 26.93359375 C-51.76163543 18.14265661 -47.29634199 10.58823024 -41.02734375 4.55859375 C-28.75062228 -5.43552121 -14.14340867 -7.00753279 0 0 Z " fill="#A499A4" transform="translate(448.15234375,322.06640625)"/>
<path d="M0 0 C4.7591996 2.9872406 8.22761907 6.16284781 11.55859375 10.67578125 C8.38647641 14.21876803 4.85366242 16.43128103 0.68359375 18.61328125 C0.02810547 18.95883057 -0.62738281 19.30437988 -1.30273438 19.66040039 C-13.23467545 25.79082122 -24.63641324 28.86373434 -38.06640625 28.80078125 C-39.31550781 28.80658203 -39.31550781 28.80658203 -40.58984375 28.8125 C-44.67046611 28.80600219 -48.46126977 28.69924492 -52.44140625 27.67578125 C-53.30932327 19.69094463 -49.64412623 13.97986123 -45.31640625 7.48828125 C-33.69110691 -5.46562373 -15.07751663 -8.17804502 0 0 Z " fill="#A599A5" transform="translate(98.44140625,19.32421875)"/>
<path d="M0 0 C4.1486099 3.07453614 6.8421964 5.79405336 9.3515625 10.3515625 C1.68155191 15.54688029 -6.08544578 19.81001527 -14.6484375 23.3515625 C-15.59589844 23.76792969 -16.54335937 24.18429687 -17.51953125 24.61328125 C-28.08378528 28.61170409 -43.8598613 29.94775457 -54.6484375 26.3515625 C-55.37764227 19.64287862 -53.30528269 14.94790268 -49.6484375 9.3515625 C-37.12467756 -6.20452514 -17.45088191 -10.86175836 0 0 Z " fill="#A499A4" transform="translate(100.6484375,323.6484375)"/>
<path d="M0 0 C5.2518167 -0.315109 8.54814877 0.1310292 13 3 C15.72567903 5.80355558 16.97342807 7.92661086 18.3125 11.625 C18.869375 12.73875 19.42625 13.8525 20 15 C21.14984375 15.37511719 22.2996875 15.75023437 23.484375 16.13671875 C27 18 27 18 27.85229492 19.921875 C28.36426579 22.34610961 28.68776633 24.72257144 28.9375 27.1875 C29.04900391 28.03248047 29.16050781 28.87746094 29.27539062 29.74804688 C29.5457308 31.8284908 29.77672569 33.91398003 30 36 C29.195625 36.350625 28.39125 36.70125 27.5625 37.0625 C24.71343579 38.81385916 24.71343579 38.81385916 24.09765625 42.140625 C23.98610192 46.54925207 24.55536797 50.44819869 25.4375 54.75 C27 62.7330786 27 62.7330786 27 66 C22.71 66 18.42 66 14 66 C13.74307373 64.51266357 13.48614746 63.02532715 13.22143555 61.49291992 C12.25948016 55.93257858 11.29054346 50.37347206 10.31958008 44.81469727 C9.90168229 42.41658699 9.48563471 40.01815349 9.0715332 37.61938477 C8.47322426 34.15552875 7.86809332 30.6929208 7.26171875 27.23046875 C6.98964851 25.64228584 6.98964851 25.64228584 6.71208191 24.02201843 C4.61355186 11.61548031 4.61355186 11.61548031 0 0 Z " fill="#01BDF6" transform="translate(470,128)"/>
<path d="M0 0 C4.78006742 0.11684609 8.20188931 0.52704552 12.375 3 C19.17169519 10.76765165 19.50615333 23.06408437 21.0625 32.9375 C21.57132767 36.11375023 22.08440482 39.2893059 22.59765625 42.46484375 C22.71863678 43.22098969 22.83961731 43.97713562 22.96426392 44.75619507 C23.73369916 49.5215829 24.60574938 54.24843661 25.66577148 58.95922852 C26 61 26 61 26 66 C21.71 66 17.42 66 13 66 C12.76925781 64.43636719 12.53851563 62.87273437 12.30078125 61.26171875 C10.51384606 49.31036877 8.60736644 37.38828315 6.4375 25.5 C6.24003174 24.39873779 6.04256348 23.29747559 5.83911133 22.1628418 C4.42891717 14.56730037 2.44067481 7.32202442 0 0 Z " fill="#FABF43" transform="translate(120,431)"/>
<path d="M0 0 C4.849831 -0.51050853 7.87309359 -0.61806523 11.8125 2.4375 C18.05703364 7.64375014 18.77089689 18.23672007 20.04296875 25.765625 C20.21629227 26.76205017 20.38961578 27.75847534 20.56819153 28.78509521 C20.9302252 30.87536097 21.28887801 32.96621487 21.64428711 35.05761719 C22.18853749 38.25609719 22.74481 41.45231737 23.30273438 44.6484375 C23.65435483 46.68737786 24.00529033 48.72643648 24.35546875 50.765625 C24.52104782 51.71777893 24.68662689 52.66993286 24.85722351 53.65093994 C25.08294792 54.98823151 25.08294792 54.98823151 25.31323242 56.35253906 C25.44630295 57.13147522 25.57937347 57.91041138 25.71647644 58.71295166 C26.02024408 61.16329924 26.04791707 63.53338657 26 66 C24.02090602 66.02686553 22.04171029 66.04633375 20.0625 66.0625 C18.96035156 66.07410156 17.85820312 66.08570313 16.72265625 66.09765625 C14 66 14 66 13 65 C12.70131888 63.53969711 12.45824313 62.06796563 12.23828125 60.59375 C12.09189209 59.63758789 11.94550293 58.68142578 11.79467773 57.69628906 C11.63555908 56.64151367 11.47644043 55.58673828 11.3125 54.5 C9.74495045 44.46946501 8.09854674 34.45520974 6.32675171 24.45874023 C6.06828458 22.99211403 5.81355293 21.52482437 5.56265259 20.05688477 C5.20666279 17.97873788 4.83741764 15.90335427 4.46484375 13.828125 C4.254646 12.6309082 4.04444824 11.43369141 3.82788086 10.20019531 C2.99547808 6.98252041 1.77974504 4.77774732 0 2 C0 1.34 0 0.68 0 0 Z " fill="#F829A4" transform="translate(120,128)"/>
<path d="M0 0 C6.14161557 -0.50135637 9.10285091 0.51549007 14 4 C17.28230572 8.30903682 17.97665619 12.79139067 18.875 18 C19.03645508 18.89412598 19.19791016 19.78825195 19.36425781 20.70947266 C19.72074734 22.69769059 20.07202238 24.68684832 20.41894531 26.67675781 C21.05517982 30.3155915 21.71112988 33.95062796 22.3671875 37.5859375 C22.82916808 40.18210627 23.29011421 42.77845934 23.75 45.375 C23.97284668 46.61636719 24.19569336 47.85773438 24.42529297 49.13671875 C25.414445 54.82453718 26.30675804 60.2227235 26 66 C22.04 66 18.08 66 14 66 C13.7733667 64.71536865 13.5467334 63.4307373 13.31323242 62.10717773 C12.45947355 57.27044876 11.60346349 52.43412032 10.74682617 47.59790039 C10.37871369 45.51792827 10.01118489 43.43785275 9.64428711 41.35766602 C8.60180958 35.44839707 7.54978543 29.54101347 6.47845459 23.63690186 C6.17443398 21.96135622 5.87218628 20.28548719 5.57232666 18.60919189 C5.1998805 16.5408906 4.8153256 14.47529519 4.42578125 12.41015625 C4.21993408 11.29906494 4.01408691 10.18797363 3.80200195 9.04321289 C2.93277035 5.7448957 1.62355986 2.99118218 0 0 Z " fill="#AC64D6" transform="translate(470,431)"/>
<path d="M0 0 C8.91 0 17.82 0 27 0 C27.061875 2.51625 27.12375 5.0325 27.1875 7.625 C27.21481201 8.40568848 27.24212402 9.18637695 27.27026367 9.99072266 C27.33968025 15.87097822 25.93678197 19.8923255 21.875 24.3125 C17.95004523 26.6162778 14.54154021 27.32661762 10 27 C6.36382502 25.81125049 3.75178559 23.92272524 1.31640625 20.93359375 C-0.53726375 16.80271491 -0.32384812 13.15159391 -0.1875 8.6875 C-0.0946875 4.3871875 -0.0946875 4.3871875 0 0 Z " fill="#F0A569" transform="translate(418,117)"/>
<path d="M0 0 C8.91 0 17.82 0 27 0 C27.061875 2.866875 27.12375 5.73375 27.1875 8.6875 C27.21481201 9.58170654 27.24212402 10.47591309 27.27026367 11.3972168 C27.31923294 16.09247402 27.0998738 19.22001532 24 23 C19.22929953 26.39453687 15.99224187 27.87159882 10 27 C4.91356199 24.26114877 1.82995973 21.4898792 0 16 C-0.07056698 13.25917841 -0.09336154 10.55153023 -0.0625 7.8125 C-0.041875 5.234375 -0.02125 2.65625 0 0 Z " fill="#F0A569" transform="translate(67,117)"/>
<path d="M0 0 C1.28777344 0.24363281 1.28777344 0.24363281 2.6015625 0.4921875 C10.68058993 1.69939849 18.95163148 1.26248918 27 0 C27.08152344 2.54232342 27.14073716 5.08199202 27.1875 7.625 C27.21263672 8.33785156 27.23777344 9.05070312 27.26367188 9.78515625 C27.33010442 14.61258782 26.63903477 17.80380965 24 22 C20.62299279 25.04754309 18.36769013 26.86591273 13.8125 27.3125 C8.95056081 26.91398039 6.96618103 25.82209035 3 23 C-0.69583778 18.49329712 -0.35805849 14.22846425 -0.1875 8.6875 C-0.17396484 7.85154297 -0.16042969 7.01558594 -0.14648438 6.15429688 C-0.11131217 4.10258502 -0.05751048 2.05120725 0 0 Z " fill="#F3A66A" transform="translate(418,420)"/>
<path d="M0 0 C0.84691406 0.16242188 1.69382812 0.32484375 2.56640625 0.4921875 C6.07735745 1.01144081 9.3902331 1.13283926 12.9375 1.125 C14.10152344 1.12757813 15.26554687 1.13015625 16.46484375 1.1328125 C20.03916733 0.99852852 23.47081003 0.56791563 27 0 C27.10852923 2.87602455 27.1875515 5.74790832 27.25 8.625 C27.30027344 9.83736328 27.30027344 9.83736328 27.3515625 11.07421875 C27.44083132 16.56425126 26.69822246 19.66645903 23 24 C18.634442 26.910372 15.20499921 27.6506249 10 27 C4.91356199 24.26114877 1.82995973 21.4898792 0 16 C-0.07051114 13.26134713 -0.09357765 10.54972412 -0.0625 7.8125 C-0.05798828 7.06291016 -0.05347656 6.31332031 -0.04882812 5.54101562 C-0.03706354 3.69397617 -0.01912865 1.84697787 0 0 Z " fill="#F3A76A" transform="translate(67,420)"/>
<path d="M0 0 C0.1503376 4.33743239 0.25812607 8.6734148 0.32958984 13.01269531 C0.35943268 14.48301664 0.40012433 15.95316525 0.45263672 17.42285156 C0.86315548 29.22325355 -1.08513206 37.77035725 -8.4375 47.4375 C-13.35382112 52.35382112 -18.47435515 55.61562977 -25 58 C-25.99 58 -26.98 58 -28 58 C-26.62738886 54.92345779 -25.02954579 52.84186187 -22.6875 50.4375 C-16.53137992 43.54881448 -12.656698 34.95116196 -13.11914062 25.58764648 C-13.18681641 24.72341064 -13.25449219 23.8591748 -13.32421875 22.96875 C-14.14444332 11.76239381 -14.14444332 11.76239381 -13 7 C-9.80214449 3.44630003 -5.07613747 0 0 0 Z " fill="#FBBA84" transform="translate(116,348)"/>
<path d="M0 0 C0.66 0 1.32 0 2 0 C2.05859908 4.31244188 2.09379686 8.62477974 2.125 12.9375 C2.14175781 14.14986328 2.15851563 15.36222656 2.17578125 16.61132812 C2.24374583 29.15079395 0.6377365 38.75089303 -8.078125 48.26953125 C-13.32895317 53.21742702 -19.50741271 58 -27 58 C-27 57.34 -27 56.68 -27 56 C-26.13375 55.34 -25.2675 54.68 -24.375 54 C-16.6095682 47.69974401 -12.84257377 37.56016023 -11 28 C-10.31477875 21.3514327 -10.13317766 14.67885986 -10 8 C-10.66 7.67 -11.32 7.34 -12 7 C-11.21753906 6.57847656 -10.43507813 6.15695313 -9.62890625 5.72265625 C-8.61699219 5.17480469 -7.60507812 4.62695312 -6.5625 4.0625 C-5.55316406 3.51722656 -4.54382813 2.97195312 -3.50390625 2.41015625 C-1.13329507 1.22300532 -1.13329507 1.22300532 0 0 Z " fill="#FBBA84" transform="translate(465,45)"/>
<path d="M0 0 C0.66 0 1.32 0 2 0 C2.05859908 4.31244188 2.09379686 8.62477974 2.125 12.9375 C2.14175781 14.14986328 2.15851563 15.36222656 2.17578125 16.61132812 C2.24386225 29.17227235 0.54423566 39.23570312 -8.1875 48.75 C-13.12580091 53.40673112 -19.37079432 56.56748199 -26 58 C-24.71300648 55.17593366 -23.34014601 53.15830367 -21.1875 50.9375 C-12.94391508 41.54505361 -10.79626487 29.57625949 -10.375 17.5 C-10.31699219 16.12328125 -10.31699219 16.12328125 -10.2578125 14.71875 C-10.16450436 12.47935472 -10.07871815 10.23994746 -10 8 C-10.66 7.67 -11.32 7.34 -12 7 C-11.21753906 6.57847656 -10.43507813 6.15695312 -9.62890625 5.72265625 C-8.61699219 5.17480469 -7.60507812 4.62695312 -6.5625 4.0625 C-5.55316406 3.51722656 -4.54382813 2.97195313 -3.50390625 2.41015625 C-1.13329507 1.22300532 -1.13329507 1.22300532 0 0 Z " fill="#FBBA84" transform="translate(465,348)"/>
<path d="M0 0 C0.12535793 4.19505502 0.21514515 8.38906477 0.2746582 12.58544922 C0.29951385 14.00719229 0.33341201 15.42881161 0.37719727 16.85009766 C0.7032313 27.72045582 -0.55269139 37.35001227 -7.25 46.375 C-13.39238453 52.23818524 -19.81755866 55.79480304 -28 58 C-26.61439191 54.89267096 -24.97369275 52.7586276 -22.625 50.3125 C-18.96882846 46.23066192 -16.85723866 42.12280996 -15 37 C-14.62230469 36.16597656 -14.24460937 35.33195312 -13.85546875 34.47265625 C-12.81104981 30.23298301 -13.14611619 26.62073583 -13.43383789 22.29101562 C-14.2260455 8.91150931 -14.2260455 8.91150931 -11.84716797 5.20263672 C-8.78574371 2.44097481 -4.23482656 0 0 0 Z " fill="#FCBB84" transform="translate(116,45)"/>
<path d="M0 0 C3.5 0.5625 3.5 0.5625 5.9375 2.1875 C7.99791771 5.31933492 8.1767545 6.87794773 7.5 10.5625 C5.18262395 13.60819423 3.72174087 15.29431298 -0.0625 16.125 C-3.35342997 15.36555462 -4.50258579 14.27327642 -6.5 11.5625 C-7.5 8.625 -7.5 8.625 -7.5 5.5625 C-5.45638108 1.64556373 -4.39720316 0.70669337 0 0 Z " fill="#080A04" transform="translate(226.5,232.4375)"/>
<path d="M0 0 C2.9375 2.125 2.9375 2.125 5 5 C5.16299417 8.99335725 4.47797727 10.46739675 1.8125 13.4375 C-1 15 -1 15 -4.125 15 C-7.46294538 13.83897552 -8.4614746 13.16252443 -10 10 C-10.53293835 6.34556561 -10.4753727 4.69477548 -8.375 1.625 C-5.24988831 -0.51323431 -3.71837535 -0.6829669 0 0 Z " fill="#060803" transform="translate(288,233)"/>
<path d="M0 0 C2.375 1 2.375 1 4 3 C4.45352711 6.17468977 4.69511624 7.98984447 4 11 C1.875 13.5625 1.875 13.5625 -1 15 C-4.15548924 14.93689022 -6.13769198 14.48864121 -8.875 12.9375 C-10.71751909 9.76427268 -10.66053097 6.56241421 -10 3 C-7.19663749 -0.45029232 -4.26211439 -0.5327643 0 0 Z " fill="#050703" transform="translate(259,233)"/>
<path d="M0 0 C9.89210899 0.76093146 16.60412399 6.97673561 23 14 C19.90636311 17.25504403 17.10432418 19.1343981 13 21 C12.81566406 20.39414062 12.63132812 19.78828125 12.44140625 19.1640625 C10.11390888 12.44018121 6.75889875 8.03137758 1.828125 2.93359375 C0 1 0 1 0 0 Z " fill="#8D7E8D" transform="translate(438,319)"/>
<path d="M0 0 C8.21300281 1.19221009 15.04345143 4.33147611 20.51953125 10.79296875 C21.625 12.4375 21.625 12.4375 23 15 C21.87926138 15.83905565 20.75325453 16.67107831 19.625 17.5 C18.99851562 17.9640625 18.37203125 18.428125 17.7265625 18.90625 C16 20 16 20 14 20 C13.60167969 19.24074219 13.20335938 18.48148437 12.79296875 17.69921875 C12.26316406 16.70535156 11.73335937 15.71148437 11.1875 14.6875 C10.66542969 13.70136719 10.14335938 12.71523438 9.60546875 11.69921875 C8.21730444 9.3653464 6.91237601 7.86643304 5 6 C5 5.34 5 4.68 5 4 C4.360625 3.71125 3.72125 3.4225 3.0625 3.125 C1 2 1 2 0 0 Z " fill="#8D7F8D" transform="translate(87,319)"/>
<path d="M0 0 C10.02638155 1.59148913 16.96379204 5.8219118 23 14 C20.19713709 17.11429212 17.90669429 18.56171454 14 20 C13.56300781 19.03900391 13.56300781 19.03900391 13.1171875 18.05859375 C9.70237988 10.8531349 5.62153485 5.57163957 0 0 Z " fill="#8C7E8C" transform="translate(87,16)"/>
<path d="M0 0 C9.52242767 0.95224277 15.37227628 5.58790358 21.3125 12.8125 C21.869375 13.534375 22.42625 14.25625 23 15 C20.03 16.65 17.06 18.3 14 20 C13.36384766 18.82244141 13.36384766 18.82244141 12.71484375 17.62109375 C9.43532174 11.7467851 6.29495304 6.73236417 1.28515625 2.20703125 C0.86105469 1.80871094 0.43695313 1.41039063 0 1 C0 0.67 0 0.34 0 0 Z " fill="#8E7F8E" transform="translate(438,16)"/>
</svg>
